<svg width="23" height="16" viewBox="0 0 23 16" fill="none" xmlns="http://www.w3.org/2000/svg">
<path d="M14.8098 7.7948L22.3419 12.556V2.83481L14.8098 7.7948Z" fill="white"/>
<path d="M0 2.83481V12.5591L7.53211 7.79784L0 2.83481Z" fill="white"/>
<path d="M20.9455 0H1.39646C1.06564 0.00267982 0.746811 0.124205 0.498139 0.342405C0.249467 0.560605 0.0875289 0.860932 0.0418701 1.1886L11.171 8.52121L22.3001 1.1886C22.2545 0.860932 22.0925 0.560605 21.8438 0.342405C21.5952 0.124205 21.2763 0.00267982 20.9455 0Z" fill="white"/>
<path d="M13.5307 8.63771L11.5548 9.93901C11.4406 10.0138 11.3071 10.0536 11.1706 10.0536C11.0341 10.0536 10.9006 10.0138 10.7865 9.93901L8.81055 8.6362L0.0449219 14.1794C0.091906 14.5054 0.254176 14.8037 0.50229 15.0202C0.750403 15.2368 1.06792 15.3572 1.39723 15.3597H20.9455C21.2745 15.3571 21.5916 15.2368 21.8396 15.0206C22.0875 14.8043 22.2498 14.5065 22.2971 14.181L13.5307 8.63771Z" fill="white"/>
</svg>
