<svg width="30" height="30" viewBox="0 0 30 30" fill="none" xmlns="http://www.w3.org/2000/svg">
<path d="M26.6645 10.8172L29.8283 7.65338C29.9588 7.52314 30.0201 7.33889 29.994 7.15647C29.9681 6.97406 29.8576 6.8143 29.696 6.72549L25.8924 4.63694C25.6089 4.4813 25.2527 4.58499 25.0968 4.86857C24.9412 5.15238 25.0447 5.50852 25.3285 5.66416L28.4477 7.37689L25.7325 10.0919L15.9667 4.72941L18.6817 2.01441L21.4263 3.5216C21.7099 3.67724 22.0662 3.57379 22.2219 3.28997C22.3777 3.00639 22.274 2.65002 21.9902 2.49438L18.8603 0.775476C18.6318 0.650048 18.348 0.69056 18.164 0.87481L15 4.03887L11.8359 0.87481C11.6516 0.69056 11.3678 0.650277 11.1396 0.775476L0.303907 6.72549C0.142316 6.8143 0.0317661 6.97383 0.00590238 7.15647C-0.0201901 7.33889 0.0411502 7.52314 0.171613 7.65338L3.33545 10.8172L0.171613 13.9808C0.0411502 14.1113 -0.0201901 14.2953 0.00590238 14.4779C0.0317661 14.6604 0.142316 14.8201 0.303907 14.9087L3.57829 16.7068V22.7168C3.57829 22.9308 3.69479 23.1276 3.88225 23.2306L14.718 29.1804C14.8059 29.2287 14.9029 29.2527 15 29.2527C15.097 29.2527 15.194 29.2287 15.2819 29.1804L26.1177 23.2306C26.3051 23.1276 26.4216 22.9308 26.4216 22.7168V16.7068L29.696 14.9089C29.8576 14.8201 29.9681 14.6604 29.994 14.4779C30.0201 14.2955 29.9588 14.1113 29.8283 13.981L26.6645 10.8172ZM15 16.0984L5.38165 10.817L15 5.5353L24.6183 10.817L15 16.0984ZM11.3184 2.01441L14.0332 4.72941L4.26745 10.0919L1.55246 7.37689L11.3184 2.01441ZM4.26791 11.5423L14.0336 16.9048L11.3184 19.62L1.55246 14.2575L4.26791 11.5423ZM25.2497 22.3703L15.5859 27.6767V21.687C15.5859 21.3634 15.3236 21.1011 15 21.1011C14.6763 21.1011 14.414 21.3634 14.414 21.687V27.6767L4.75016 22.3703V17.3504L11.1396 20.8589C11.2282 20.9075 11.3253 20.9313 11.4214 20.9313C11.5731 20.9313 11.7233 20.8722 11.8359 20.7596L15 17.5955L18.164 20.7596C18.2766 20.8724 18.4268 20.9313 18.5785 20.9313C18.6747 20.9313 18.7717 20.9075 18.8603 20.8589L25.2497 17.3504V22.3703ZM18.6817 19.62L15.9665 16.9046L25.7322 11.5423L28.4477 14.2573L18.6817 19.62Z" fill="black"/>
<path d="M23.7188 4.69781C23.8728 4.69781 24.0234 4.6351 24.133 4.52592C24.242 4.41698 24.3047 4.26591 24.3047 4.11188C24.3047 3.95761 24.242 3.80655 24.133 3.6976C24.0241 3.58842 23.8728 3.52594 23.7188 3.52594C23.564 3.52594 23.4134 3.58842 23.3045 3.6976C23.1948 3.80655 23.1328 3.95761 23.1328 4.11188C23.1328 4.26591 23.1948 4.41698 23.3045 4.52592C23.4134 4.6351 23.5647 4.69781 23.7188 4.69781Z" fill="black"/>
<path d="M15 19.1558C14.846 19.1558 14.6947 19.2183 14.5857 19.3275C14.4768 19.4369 14.4141 19.5875 14.4141 19.7418C14.4141 19.8963 14.4768 20.0469 14.5857 20.1565C14.6947 20.2654 14.846 20.3277 15 20.3277C15.154 20.3277 15.3053 20.2654 15.4143 20.1565C15.5232 20.0469 15.5859 19.8963 15.5859 19.7418C15.5859 19.5875 15.5232 19.4369 15.4143 19.3275C15.3053 19.2183 15.154 19.1558 15 19.1558Z" fill="black"/>
</svg>
