<svg xmlns="http://www.w3.org/2000/svg" width="36.201" height="28.237" viewBox="0 0 36.201 28.237">
  <path id="return_1_" data-name="return (1)" d="M26.833,37.3H5.4l4.386-4.8a1.845,1.845,0,0,0,0-2.445,1.487,1.487,0,0,0-2.236,0L.463,37.806a1.845,1.845,0,0,0,0,2.445L7.547,48a1.487,1.487,0,0,0,2.236,0,1.845,1.845,0,0,0,0-2.445L5.4,40.757H26.833c3.422,0,6.206,3.045,6.206,6.787s-2.784,6.787-6.206,6.787h-8.1a1.736,1.736,0,0,0,0,3.458h8.1c5.165,0,9.368-4.6,9.368-10.245S32,37.3,26.833,37.3Z" transform="translate(0 -29.551)"/>
</svg>
