<svg xmlns="http://www.w3.org/2000/svg" width="42.356" height="29.021" viewBox="0 0 42.356 29.021">
  <g id="Group_1195" data-name="Group 1195" transform="translate(-30 -34)">
    <path id="Path_4" data-name="Path 4" d="M32.764,34H69.592a2.764,2.764,0,1,1,0,5.528H32.764a2.764,2.764,0,0,1,0-5.528Z" transform="translate(0)" fill-rule="evenodd"/>
    <path id="Path_5" data-name="Path 5" d="M32.764,48.976H69.592a2.764,2.764,0,1,1,0,5.528H32.764a2.764,2.764,0,0,1,0-5.528Z" transform="translate(0 -3.229)" fill-rule="evenodd"/>
    <path id="Path_6" data-name="Path 6" d="M32.764,63.952H69.592a2.764,2.764,0,0,1,0,5.528H32.764a2.764,2.764,0,0,1,0-5.528Z" transform="translate(0 -6.459)" fill-rule="evenodd"/>
  </g>
</svg>
