<svg id="Capa_1" data-name="Capa 1" xmlns="http://www.w3.org/2000/svg" viewBox="0 0 1080 1080"><defs><style>.cls-1{font-size:75.5px;font-family:NexaBold, Nexa Bold;letter-spacing:-0.05em;}.cls-2{letter-spacing:-0.03em;}.cls-3{letter-spacing:-0.06em;}.cls-4{letter-spacing:-0.02em;}.cls-5{letter-spacing:-0.03em;}.cls-6{letter-spacing:0em;}.cls-7{letter-spacing:-0.13em;}.cls-8{letter-spacing:-0.03em;}</style></defs><polygon points="653.26 338.17 653.39 338.56 653.39 338.17 653.26 338.17"/><path d="M742.48,654.33,673.39,456.49l-10-28.63-10-28.64-21.32-61.05H582.15a93.08,93.08,0,0,1-18.51-184.31A97.36,97.36,0,0,0,392.3,178.21L316.38,395.62c0,.19,0,.37,0,.55V687.82c0,25.59-9.24,47.8-27.48,66-1.59,1.59-3.2,3.08-4.82,4.53a80.55,80.55,0,0,0,17.12,1.82A79.62,79.62,0,0,0,376,708l27-73.7h162.6l27,73.7a79.62,79.62,0,0,0,74.77,52.26,80.74,80.74,0,0,0,18.19-2.07,78.67,78.67,0,0,0,21.77-8.62C738.73,731.21,755.69,692.15,742.48,654.33ZM447.93,493.27l36.33-110.7,36.32,110.7Z"/><path d="M912.54,172H582.15a73.12,73.12,0,0,0-73.09,73.08h0a73.08,73.08,0,0,0,73.09,73.08h91.24v77.66l88,251.91a98.35,98.35,0,0,1,4.47,48A100.2,100.2,0,0,1,729,758.83,73.38,73.38,0,0,0,746.48,761h.86a73.09,73.09,0,0,0,73.09-73.09V318.17h92.11a73.08,73.08,0,0,0,73.08-73.08h0A73.08,73.08,0,0,0,912.54,172Z"/><path d="M222.88,321.11q30.26,0,51.89-21.63t21.62-51.89q0-30.27-22.05-51.89T222,174.07q-30.28,0-51.89,21.63t-21.63,51.89q0,30.28,22.06,51.89T222.88,321.11Z"/><path d="M274.34,344.28Q252.28,322.67,222,322.66t-51.89,21.62q-21.63,21.63-21.63,51.89V687.82c2.55,25.83,16.65,43.82,24.4,50.77,16.47,14.77,32.3,21.72,51.6,22.32.79,0,1.58,0,2.36,0a65.76,65.76,0,0,0,13.61-1.38,59.76,59.76,0,0,0,11.75-3.81,64.56,64.56,0,0,0,10.1-5.64,85.69,85.69,0,0,0,12.46-10.4q21.6-21.62,21.62-51.9V396.17c0-1.25,0-2.5-.08-3.73Q295,364.57,274.34,344.28Z"/><text class="cls-1" transform="translate(50.98 858.76)">P<tspan class="cls-2" x="47.19" y="0">rograma I</tspan><tspan class="cls-3" x="371.84" y="0">n</tspan><tspan class="cls-2" x="411.78" y="0">vestig</tspan><tspan class="cls-4" x="611.63" y="0">a</tspan><tspan class="cls-2" x="656.33" y="0">c</tspan><tspan class="cls-4" x="690.08" y="0">i</tspan><tspan class="cls-5" x="706.16" y="0">ón, A</tspan><tspan class="cls-6" x="873.31" y="0">r</tspan><tspan class="cls-5" x="906.16" y="0">te </tspan><tspan class="cls-2"><tspan x="175.8" y="85.13">y </tspan><tspan class="cls-7" x="228.88" y="85.13">T</tspan><tspan class="cls-8" x="265.19" y="85.13">ransmedia UNA</tspan></tspan></text></svg>