<svg width="243" height="243" viewBox="0 0 243 243" fill="none" xmlns="http://www.w3.org/2000/svg">
<g clip-path="url(#clip0)">
<path d="M168.496 111.025H183.715V176.479C183.715 180.475 180.475 183.715 176.479 183.715H66.188C62.192 183.715 58.952 180.475 58.952 176.479V111.025H74.171C73.448 114.348 73.056 117.794 73.056 121.333C73.056 147.996 94.67 169.61 121.333 169.61C147.996 169.61 169.61 147.996 169.61 121.333C169.61 117.794 169.219 114.347 168.496 111.025ZM121.333 153.852C139.292 153.852 153.851 139.293 153.851 121.334C153.851 103.375 139.292 88.816 121.333 88.816C103.374 88.816 88.815 103.375 88.815 121.334C88.815 139.293 103.374 153.852 121.333 153.852ZM160.293 87.937H172.678C176.309 87.937 179.253 84.993 179.253 81.362V68.978C179.253 65.347 176.31 62.404 172.678 62.404H160.293C156.662 62.404 153.719 65.347 153.719 68.978V81.363C153.719 84.994 156.662 87.937 160.293 87.937ZM242.667 0V242.667H0V0H242.667ZM198.623 63.539C198.623 52.773 189.895 44.045 179.129 44.045H63.539C52.773 44.045 44.045 52.773 44.045 63.539V179.129C44.045 189.895 52.773 198.623 63.539 198.623H179.129C189.895 198.623 198.623 189.895 198.623 179.129V63.539V63.539Z" fill="#D91A5B"/>
</g>
<defs>
<clipPath id="clip0">
<rect width="242.667" height="242.667" rx="16" fill="white"/>
</clipPath>
</defs>
</svg>
