<svg xmlns="http://www.w3.org/2000/svg" xmlns:xlink="http://www.w3.org/1999/xlink" viewBox="0 0 1080 1080"><defs><style>.cls-1{isolation:isolate;}.cls-2,.cls-5{fill:url(#linear-gradient);}.cls-3{fill:url(#Degradado_sin_nombre_2);}.cls-4{fill:url(#Degradado_sin_nombre_2-2);}.cls-15,.cls-5{mix-blend-mode:hard-light;}.cls-6{fill:#505050;}.cls-7{font-size:75.5px;fill:#a4a4a4;font-family:NexaBold, Nexa Bold;letter-spacing:-0.05em;}.cls-8{letter-spacing:-0.03em;}.cls-9{letter-spacing:-0.06em;}.cls-10{letter-spacing:-0.02em;}.cls-11{letter-spacing:-0.03em;}.cls-12{letter-spacing:0em;}.cls-13{letter-spacing:-0.13em;}.cls-14{letter-spacing:-0.03em;}.cls-15{fill:url(#Degradado_sin_nombre_4);}</style><linearGradient id="linear-gradient" x1="-115.17" y1="436.54" x2="1666.07" y2="436.54" gradientUnits="userSpaceOnUse"><stop offset="0" stop-color="#9e9e9e"/><stop offset="1" stop-color="#6b6b6b"/></linearGradient><linearGradient id="Degradado_sin_nombre_2" x1="649.36" y1="104.52" x2="980.66" y2="770.18" gradientUnits="userSpaceOnUse"><stop offset="0" stop-color="#c7c7c7"/><stop offset="0.7" stop-color="#9e9e9e"/><stop offset="1" stop-color="#828282"/></linearGradient><linearGradient id="Degradado_sin_nombre_2-2" x1="655.01" y1="545.84" x2="874.06" y2="974.66" xlink:href="#Degradado_sin_nombre_2"/><linearGradient id="Degradado_sin_nombre_4" x1="262.45" y1="299.28" x2="554.84" y2="854.53" gradientUnits="userSpaceOnUse"><stop offset="0" stop-color="#c7c7c7"/><stop offset="1" stop-color="#9a9a9a"/></linearGradient></defs><g class="cls-1"><g id="Capa_1" data-name="Capa 1"><path class="cls-2" d="M576.21,178.21a97.37,97.37,0,0,0-92-65.35h0a97.38,97.38,0,0,0-92,65.35L226,654.33C208,706.09,246.38,760.21,301.21,760.21A79.62,79.62,0,0,0,376,708l27-73.7h162.6l27,73.7a79.62,79.62,0,0,0,74.77,52.26c54.82,0,93.25-54.12,75.17-105.88ZM447.93,493.27l36.33-110.7,36.32,110.7Z"/><path class="cls-3" d="M985.62,245.09A73.08,73.08,0,0,0,912.54,172H582.15a73.08,73.08,0,0,0-73.09,73.08h0a73.08,73.08,0,0,0,73.09,73.08h91.24V687.86A73.09,73.09,0,0,0,746.48,761h.86a73.09,73.09,0,0,0,73.09-73.09V318.17h92.11a73.08,73.08,0,0,0,73.08-73.08Z"/><path class="cls-4" d="M742.14,655.07,673.39,458.21V687.86A73,73,0,0,0,707.7,749.8C738.67,731.3,755.24,692.57,742.14,655.07Z"/><path class="cls-5" d="M576.21,178.21a97.37,97.37,0,0,0-92-65.35h0a97.38,97.38,0,0,0-92,65.35L226,654.33C208,706.09,246.38,760.21,301.21,760.21A79.62,79.62,0,0,0,376,708l27-73.7h162.6l27,73.7a79.62,79.62,0,0,0,74.77,52.26c54.82,0,93.25-54.12,75.17-105.88ZM447.93,493.27l36.33-110.7,36.32,110.7Z"/><path class="cls-6" d="M296.39,247.59q0,30.28-21.62,51.89t-51.89,21.63q-30.28,0-52.33-21.63t-22.06-51.89q0-30.27,21.63-51.89T222,174.07q30.27,0,52.33,21.63T296.39,247.59Zm0,440.23q0,30.3-21.62,51.9c-14.42,14.42-30.12,21.82-50.28,21.19-19.3-.6-35.13-7.55-51.6-22.32-7.75-7-21.85-24.94-24.4-50.77V396.17q0-30.27,21.63-51.89T222,322.66q30.27,0,52.33,21.62t22.05,51.89Z"/><text class="cls-7" transform="translate(50.98 858.76)">P<tspan class="cls-8" x="47.19" y="0">rograma I</tspan><tspan class="cls-9" x="371.84" y="0">n</tspan><tspan class="cls-8" x="411.78" y="0">vestig</tspan><tspan class="cls-10" x="611.63" y="0">a</tspan><tspan class="cls-8" x="656.33" y="0">c</tspan><tspan class="cls-10" x="690.08" y="0">i</tspan><tspan class="cls-11" x="706.16" y="0">ón, A</tspan><tspan class="cls-12" x="873.31" y="0">r</tspan><tspan class="cls-11" x="906.16" y="0">te </tspan><tspan class="cls-8"><tspan x="175.8" y="85.13">y </tspan><tspan class="cls-13" x="228.88" y="85.13">T</tspan><tspan class="cls-14" x="265.19" y="85.13">ransmedia UNA</tspan></tspan></text><path class="cls-15" d="M578.89,469.37c16.59-64-46.81-113-91.65-166.55-41.36-49.45-68.15-103.94-73.88-159.3a97.15,97.15,0,0,0-21.12,34.68L226,654.33c-18.08,51.76,20.35,105.88,75.17,105.88A79.61,79.61,0,0,0,375.91,708l27-73.7H483c.31-4.36.79-8.69,1.52-13C494.41,563.07,564,527,578.89,469.37Zm-94.7-86.8,36.33,110.7H447.87Z"/></g></g></svg>