<svg width="225" height="305" viewBox="0 0 225 305" fill="none" xmlns="http://www.w3.org/2000/svg">
<path d="M25.288 278.189L25.9267 283.077L25.9907 283.58L25.9267 283.789C25.8707 283.916 25.764 283.974 25.6307 283.985C25.4627 284.012 25.2147 283.732 24.904 283.134C22.3533 278.698 18.92 276.486 14.5733 276.486C11.0973 276.486 8.388 277.548 6.37467 279.674C4.392 281.801 3.38667 284.702 3.38667 288.393C3.38667 292.63 4.512 296.097 6.70667 298.778C8.944 301.468 11.796 302.804 15.296 302.804C17.3173 302.804 19.3267 302.265 21.2907 301.185C23.2613 300.101 24.6107 298.773 25.3853 297.212C25.736 296.5 25.9987 296.116 26.204 296.116C26.4093 296.116 26.5213 296.242 26.5213 296.512L26.4987 296.728L26.4173 297.17L25.94 299.682L25.8707 300.046C25.82 300.4 25.4987 300.762 24.912 301.146C21.7867 303.138 18.324 304.138 14.5627 304.138C10.1973 304.138 6.67867 302.836 3.99867 300.249C1.32667 297.656 0 294.264 0 290.024C0 285.788 1.372 282.281 4.14533 279.484C6.908 276.681 10.376 275.28 14.548 275.28C17.416 275.28 20.0547 275.93 22.4427 277.217L23.2747 277.642L23.5933 277.793L23.9467 277.916C24.0133 277.916 24.108 277.854 24.252 277.741C24.5453 277.525 24.74 277.416 24.856 277.416C25.076 277.416 25.2147 277.68 25.288 278.189Z" fill="#9C9C9C"/>
<path d="M36.287 281.771V297.026C36.287 298.923 36.4003 300.188 36.6456 300.796C36.9083 301.496 37.2443 301.982 37.6456 302.255C38.0416 302.556 38.671 302.758 39.5256 302.87C40.207 302.966 40.543 303.138 40.543 303.37C40.543 303.687 40.327 303.85 39.9056 303.85C39.7083 303.85 39.4496 303.828 39.1363 303.788C38.7296 303.72 38.0043 303.687 36.9816 303.687L34.0376 303.651L31.6403 303.788C31.2243 303.838 30.907 303.85 30.6523 303.85C30.2896 303.85 30.103 303.706 30.103 303.43C30.103 303.19 30.3096 303.028 30.743 302.98C31.7616 302.788 32.4323 302.452 32.7283 301.908C33.0216 301.372 33.1723 300.236 33.1723 298.512V281.066C33.1723 279.387 32.991 278.25 32.5976 277.671C32.2043 277.087 31.3896 276.682 30.1203 276.486C29.7096 276.41 29.4936 276.244 29.4816 276.002C29.475 275.712 29.655 275.57 30.0563 275.57C30.1696 275.57 30.3003 275.57 30.4176 275.582C31.4283 275.712 32.7336 275.775 34.3816 275.775C35.3736 275.775 36.2456 275.746 36.9723 275.712L38.3296 275.582C38.5776 275.57 38.7536 275.57 38.827 275.57C39.199 275.57 39.3856 275.696 39.3856 275.955C39.3856 276.196 39.207 276.363 38.8603 276.486L37.799 276.896C36.7936 277.279 36.287 278.9 36.287 281.771Z" fill="#9C9C9C"/>
<path d="M49.9629 279.072V300.008C49.9629 300.837 50.3789 301.398 51.1962 301.72C51.9242 301.994 52.8429 302.218 53.9535 302.43C55.0669 302.629 56.0122 302.726 56.7869 302.726C59.1029 302.726 61.1989 302.146 63.0522 300.982C66.1935 299.025 67.7709 295.728 67.7709 291.034C67.7709 288.48 67.2749 286.145 66.2895 283.997C65.3095 281.864 63.9509 280.18 62.2442 278.961C60.1269 277.465 57.5829 276.706 54.5829 276.706C52.4255 276.706 51.0749 276.932 50.4922 277.413C50.1389 277.67 49.9629 278.225 49.9629 279.072ZM46.8495 280.686C46.8495 279.305 46.6122 278.316 46.1509 277.67C45.6935 277.026 44.9349 276.656 43.8642 276.546C43.4095 276.513 43.1855 276.364 43.1855 276.121C43.1855 275.87 43.3602 275.734 43.7149 275.734L45.3215 275.809C45.4869 275.828 45.9655 275.844 46.7415 275.844C48.1309 275.844 49.1789 275.797 49.9469 275.734L51.8309 275.548C52.6402 275.488 53.5375 275.442 54.5202 275.442C60.0829 275.442 64.2509 276.845 67.0442 279.637C69.5775 282.185 70.8389 285.448 70.8389 289.425C70.8389 291.997 70.2789 294.332 69.1695 296.488C68.0602 298.629 66.5095 300.318 64.5335 301.558C62.0375 303.114 59.3095 303.886 56.3522 303.886C56.0029 303.886 55.3749 303.865 54.4735 303.788C52.6642 303.661 51.0829 303.606 49.7335 303.606C48.2789 303.606 47.0229 303.672 45.9495 303.837C45.4655 303.893 45.0815 303.934 44.7975 303.945C44.3215 303.993 44.0842 303.828 44.0842 303.488C44.0842 303.258 44.2749 303.114 44.6509 303.029C45.5749 302.836 46.1615 302.501 46.4389 302.026C46.7109 301.532 46.8495 300.534 46.8495 299.014V280.686Z" fill="#9C9C9C"/>
<path d="M80.8688 279.022V287.228C80.8688 287.85 80.9142 288.226 81.0422 288.358C81.1648 288.48 81.5022 288.553 82.0848 288.553H85.2128C86.6382 288.553 87.7688 288.47 88.6035 288.298C89.3208 288.158 89.8022 287.953 90.0262 287.722C90.2462 287.482 90.4342 286.894 90.6075 286.002C90.6888 285.669 90.8542 285.506 91.1302 285.518C91.4048 285.532 91.5302 285.714 91.5302 286.065C91.5302 286.161 91.5142 286.304 91.5048 286.512C91.3902 287.825 91.3288 289.016 91.3288 290.093C91.3288 290.93 91.3662 291.745 91.4528 292.565C91.4648 292.837 91.4902 293.029 91.4902 293.146C91.4902 293.488 91.3542 293.648 91.0995 293.648C90.8035 293.648 90.6302 293.509 90.5635 293.202L90.4435 292.641C90.2835 291.73 89.9608 291.106 89.4688 290.782C88.9862 290.466 88.1622 290.298 86.9942 290.298H82.5195C81.8488 290.298 81.4008 290.377 81.1795 290.5C80.9515 290.644 80.8355 290.914 80.8355 291.32L80.8688 291.997V299.49C80.8688 300.662 81.0648 301.37 81.4915 301.652C81.8942 301.93 82.9462 302.082 84.6208 302.082C89.9462 302.082 93.3715 300.878 94.8848 298.48C95.0275 298.258 95.1835 298.128 95.3408 298.104C95.5955 298.101 95.7142 298.274 95.7142 298.642C95.7142 299.521 95.2248 300.565 94.2302 301.784C93.0368 303.245 91.5382 303.965 89.7248 303.965C89.3208 303.965 88.7915 303.945 88.1288 303.886C85.5302 303.652 83.3902 303.528 81.7008 303.528C79.3222 303.528 77.6528 303.609 76.6808 303.774C76.1515 303.865 75.7955 303.902 75.6155 303.902C75.1822 303.902 74.9662 303.764 74.9662 303.477C74.9662 303.245 75.1475 303.098 75.5035 302.994L76.2675 302.776C77.2462 302.493 77.7382 301.558 77.7382 299.912L77.7515 298.588V281.372C77.7515 279.434 77.5395 278.126 77.1248 277.46C76.6835 276.782 75.8502 276.444 74.6195 276.444C74.2235 276.444 74.0488 276.314 74.0488 276.07C74.0488 275.685 74.3368 275.513 74.9422 275.513C75.2875 275.513 75.7435 275.534 76.3062 275.606C78.2528 275.828 80.5795 275.938 83.3208 275.938C84.9635 275.938 86.4342 275.902 87.7115 275.858L90.5928 275.713C91.4048 275.673 91.8888 275.664 92.0542 275.636C92.4222 275.569 92.6902 275.549 92.8715 275.549C93.3368 275.549 93.5462 275.734 93.5462 276.134C93.5462 276.254 93.5208 276.42 93.4675 276.609C93.4395 276.788 93.3955 277.329 93.3368 278.225L93.2395 279.425C93.1608 280.2 93.1035 280.694 93.0208 280.892C92.9595 281.093 92.8128 281.19 92.5742 281.212C92.3048 281.22 92.1742 281.014 92.1742 280.592V280.064C92.1742 279.637 92.0875 279.216 91.9422 278.826C91.6715 278.217 91.1528 277.817 90.3688 277.604C89.6008 277.402 88.1382 277.308 86.0475 277.308H82.8462C82.0235 277.308 81.4622 277.413 81.2328 277.617C80.9955 277.828 80.8688 278.3 80.8688 279.022Z" fill="#9C9C9C"/>
<path d="M113.786 289.711L110.596 281.65L110.424 281.227C110.262 280.79 110.09 280.571 109.895 280.555C109.803 280.544 109.702 280.663 109.582 280.932L105.61 289.75C105.431 290.132 105.33 290.382 105.33 290.5C105.33 290.858 105.658 291.036 106.287 291.036L106.827 291.052H112.976C113.648 291.052 113.99 290.882 113.99 290.548C113.99 290.446 113.947 290.292 113.89 290.074L113.786 289.711ZM113.546 292.991H106.182C105.178 292.991 104.544 293.067 104.296 293.23C104.058 293.402 103.738 293.942 103.324 294.863L101.996 297.859C101.394 299.235 101.095 300.248 101.095 300.92C101.095 301.559 101.258 302.026 101.57 302.302C101.888 302.583 102.511 302.826 103.452 303.028C103.866 303.115 104.058 303.268 104.083 303.516C104.095 303.74 103.908 303.85 103.518 303.85C103.363 303.85 103.14 303.85 102.827 303.828L100.882 303.706C100.223 303.672 99.479 303.662 98.6177 303.662C98.227 303.662 97.9177 303.672 97.711 303.686C97.0163 303.775 96.643 303.807 96.575 303.807C96.2137 303.807 96.0283 303.672 96.0283 303.43C96.0283 303.214 96.1417 303.063 96.371 302.995L97.1217 302.776C97.3897 302.704 97.7563 302.36 98.227 301.784C98.6777 301.202 99.051 300.606 99.355 299.986L99.9497 298.642L110.398 275.404C110.596 275 110.786 274.803 110.991 274.803C111.219 274.803 111.399 274.994 111.552 275.395L120.291 297.799L120.751 298.902C121.39 300.544 121.91 301.563 122.339 301.967C122.743 302.363 123.602 302.692 124.899 302.919C125.308 302.995 125.522 303.167 125.511 303.411C125.486 303.643 125.308 303.752 124.946 303.752C124.814 303.752 124.547 303.74 124.175 303.706C123.466 303.643 122.204 303.61 120.39 303.61C118.512 303.61 117.339 303.651 116.851 303.724C116.567 303.788 116.362 303.807 116.228 303.807C115.868 303.807 115.702 303.662 115.702 303.392C115.702 303.186 115.862 303.028 116.204 302.98L116.839 302.826C117.512 302.704 117.868 302.239 117.868 301.447C117.868 300.731 117.443 299.292 116.616 297.151L115.607 294.458C115.312 293.71 115.092 293.275 114.916 293.154C114.764 293.05 114.311 292.991 113.546 292.991Z" fill="#9C9C9C"/>
<path d="M131.599 294.443C128.737 294.443 128.779 294.392 126.435 294.392C126.231 294.392 125.366 294.236 125.486 293.604C125.571 293.19 125.527 292.935 125.486 292.438C125.445 291.939 125.862 291.811 126.786 291.811C128.185 291.811 128.983 291.855 130.361 291.811C131.481 291.78 132.271 292.016 132.271 292.483C132.271 292.935 132.271 293.318 132.411 293.772C132.483 294.096 132.435 294.443 131.599 294.443Z" fill="#9C9C9C"/>
<path d="M159.791 291.88V281.351C159.791 279.646 159.554 278.408 159.059 277.655C158.566 276.888 157.731 276.444 156.57 276.343C156.176 276.308 155.978 276.156 155.978 275.903C155.978 275.618 156.128 275.472 156.374 275.487C156.674 275.5 157.123 275.554 157.691 275.651C158.207 275.735 158.819 275.775 159.538 275.775C161.047 275.775 161.987 275.746 162.334 275.712C162.803 275.67 163.102 275.651 163.215 275.651C163.462 275.651 163.603 275.775 163.603 276.015C163.603 276.211 163.462 276.363 163.176 276.486C162.352 276.819 161.819 277.307 161.575 277.902C161.319 278.523 161.212 279.675 161.212 281.371V291.435C161.212 295.142 160.471 297.988 158.991 299.986C158.055 301.244 156.708 302.255 154.983 303C153.235 303.763 151.375 304.138 149.38 304.138C147.078 304.138 145 303.686 143.171 302.788C141.315 301.892 139.971 300.678 139.111 299.155C138.152 297.384 137.651 295.091 137.651 292.251V281.91L137.616 280.762C137.616 279.304 137.428 278.315 137.03 277.751C136.63 277.204 135.82 276.846 134.615 276.663C134.252 276.615 134.068 276.478 134.068 276.244C134.068 275.93 134.332 275.775 134.823 275.775C135.188 275.775 135.646 275.788 136.246 275.808C136.862 275.858 137.316 275.87 137.603 275.87L139.172 275.858H140.716C140.879 275.858 141.263 275.828 141.871 275.775C142.36 275.735 142.71 275.712 142.908 275.712C143.219 275.712 143.358 275.815 143.358 276.024C143.358 276.29 143.159 276.444 142.723 276.524C141.927 276.69 141.414 277.039 141.134 277.554C140.864 278.059 140.743 278.974 140.743 280.288L140.783 281.634V291.88C140.783 295.371 141.315 297.859 142.412 299.352C143.946 301.467 146.515 302.53 150.115 302.53C153.355 302.53 155.775 301.639 157.386 299.872C158.979 298.103 159.791 295.44 159.791 291.88Z" fill="#9C9C9C"/>
<path d="M191.914 283.627V300.677C191.914 302.211 191.876 303.139 191.804 303.477C191.734 303.808 191.553 303.96 191.24 303.945C191.03 303.935 190.876 303.887 190.766 303.775L190.329 303.245L173.165 283.627L172.968 283.396C172.886 283.321 172.792 283.281 172.678 283.281C172.422 283.281 172.292 283.58 172.292 284.189V298.013L172.282 298.863L172.338 300.305C172.429 301.195 172.668 301.825 173.04 302.159C173.402 302.492 174.11 302.759 175.186 302.92C175.638 302.967 175.865 303.139 175.865 303.431C175.865 303.697 175.709 303.837 175.433 303.837C175.253 303.837 175.04 303.815 174.82 303.788C174.661 303.764 174.089 303.72 173.053 303.661L170.974 303.569L170.004 303.607C169.47 303.607 168.966 303.644 168.481 303.697C168.133 303.741 167.894 303.775 167.736 303.775C167.393 303.775 167.2 303.644 167.164 303.392C167.136 303.191 167.354 303.029 167.736 302.897C168.869 302.492 169.661 301.968 170.052 301.32C170.436 300.663 170.652 299.595 170.652 298.128V284.281C170.652 281.939 170.274 280.096 169.521 278.736C168.786 277.383 167.705 276.615 166.298 276.42C165.932 276.369 165.742 276.223 165.742 275.972C165.742 275.727 165.885 275.577 166.201 275.577C166.258 275.577 166.362 275.599 166.514 275.607L167.354 275.636L168.717 275.669L169.029 275.652C169.366 275.636 169.617 275.636 169.8 275.636C170.137 275.636 170.489 275.828 170.812 276.223L189.536 297.425C189.829 297.761 190.012 297.921 190.108 297.909C190.242 297.889 190.313 297.769 190.329 297.528V287.455L190.342 284.703L190.108 280.024C189.949 278.867 189.625 278.059 189.085 277.575C188.554 277.095 187.589 276.745 186.19 276.509C185.802 276.432 185.596 276.273 185.596 276.001C185.596 275.747 185.802 275.636 186.19 275.636C186.362 275.636 186.641 275.652 187.056 275.685C187.984 275.788 189.241 275.844 190.802 275.844C191.661 275.844 192.313 275.788 192.83 275.712C193.254 275.636 193.598 275.577 193.828 275.577C194.177 275.577 194.353 275.735 194.378 276.021C194.4 276.205 194.272 276.327 193.993 276.409C193.16 276.609 192.614 276.957 192.337 277.416C192.088 277.896 191.942 278.795 191.942 280.096V282.281L191.914 283.627Z" fill="#9C9C9C"/>
<path d="M213.143 289.711L209.949 281.65L209.786 281.227C209.635 280.79 209.459 280.571 209.265 280.555C209.163 280.544 209.051 280.663 208.941 280.932L204.966 289.75C204.79 290.132 204.709 290.382 204.709 290.5C204.709 290.858 205.009 291.036 205.641 291.036L206.185 291.052H212.33C213.013 291.052 213.35 290.882 213.35 290.548C213.35 290.446 213.318 290.292 213.249 290.074L213.143 289.711ZM212.907 292.991H205.543C204.538 292.991 203.906 293.067 203.671 293.23C203.421 293.402 203.101 293.942 202.697 294.863L201.354 297.859C200.762 299.235 200.458 300.248 200.458 300.92C200.458 301.559 200.621 302.026 200.933 302.302C201.243 302.583 201.878 302.826 202.813 303.028C203.217 303.115 203.421 303.268 203.449 303.516C203.453 303.74 203.273 303.85 202.881 303.85C202.73 303.85 202.493 303.85 202.191 303.828L200.235 303.706C199.585 303.672 198.838 303.662 197.99 303.662C197.581 303.662 197.281 303.672 197.081 303.686C196.387 303.775 196.01 303.807 195.946 303.807C195.583 303.807 195.393 303.672 195.393 303.43C195.393 303.214 195.505 303.063 195.733 302.995L196.494 302.776C196.762 302.704 197.119 302.36 197.581 301.784C198.039 301.202 198.43 300.606 198.726 299.986L199.318 298.642L209.762 275.404C209.949 275 210.149 274.803 210.362 274.803C210.577 274.803 210.767 274.994 210.925 275.395L219.654 297.799L220.109 298.902C220.759 300.544 221.274 301.563 221.697 301.967C222.115 302.363 222.974 302.692 224.259 302.919C224.683 302.995 224.886 303.167 224.87 303.411C224.849 303.643 224.674 303.752 224.297 303.752C224.177 303.752 223.918 303.74 223.526 303.706C222.829 303.643 221.562 303.61 219.769 303.61C217.882 303.61 216.702 303.651 216.213 303.724C215.943 303.788 215.729 303.807 215.594 303.807C215.234 303.807 215.074 303.662 215.074 303.392C215.074 303.186 215.229 303.028 215.565 302.98L216.203 302.826C216.881 302.704 217.217 302.239 217.217 301.447C217.217 300.731 216.799 299.292 215.983 297.151L214.958 294.458C214.685 293.71 214.446 293.275 214.282 293.154C214.133 293.05 213.669 292.991 212.907 292.991" fill="#9C9C9C"/>
<path d="M25.6642 230.995V182.362C25.6642 178.492 25.3628 175.576 24.7802 173.588C24.2028 171.614 23.2162 170.04 21.8562 168.875C21.1548 168.324 20.4055 167.86 19.5895 167.524C18.7588 167.17 17.5215 166.834 15.8335 166.49C15.6682 166.454 15.4748 166.411 15.2255 166.364C14.9935 166.315 14.5748 166.227 13.9722 166.106C13.5442 165.971 13.1642 165.662 12.8095 165.17C12.4722 164.683 12.2988 164.154 12.2988 163.587C12.2988 162.767 12.6055 162.098 13.2375 161.594C13.8575 161.075 14.7108 160.807 15.7842 160.807C16.0468 160.807 16.2802 160.823 16.5162 160.85C16.7722 160.868 17.0228 160.898 17.3215 160.951C20.2108 161.247 22.9335 161.452 25.5095 161.594C28.0922 161.719 30.7562 161.786 33.4562 161.786C47.8508 161.786 61.8988 161.358 75.5695 160.486L76.0868 160.438C76.8255 160.438 77.5842 160.411 78.3788 160.362C79.1708 160.328 79.6095 160.299 79.7188 160.299C81.5095 160.34 82.5188 161.416 82.7402 163.527V163.587V164.168L83.6335 177.195C83.6615 177.328 83.7108 177.482 83.7322 177.655C83.7668 177.827 83.7815 178.038 83.7815 178.291C83.7815 178.688 83.7908 179.12 83.8322 179.591C83.8655 180.063 83.8895 180.356 83.8895 180.494C83.8895 181.651 83.7015 182.438 83.3215 182.835C82.9255 183.252 82.1882 183.455 81.1188 183.455C80.4335 183.455 79.9028 183.252 79.5735 182.835C79.2242 182.438 78.9042 181.479 78.6042 179.978V179.787C78.4308 178.574 78.2095 177.592 77.9535 176.806C76.8842 173.463 74.8708 171.128 71.9055 169.808C68.9375 168.506 63.6388 167.85 56.0375 167.85C51.3428 167.85 48.4788 168.375 47.4122 169.392C46.3668 170.43 45.8295 173.035 45.8295 177.195V194.812C45.8295 197.6 46.2255 199.287 46.9962 199.879C47.7708 200.448 50.2668 200.736 54.4922 200.736C57.7055 200.736 60.3335 200.286 62.3495 199.363C64.3628 198.426 66.0042 196.964 67.2508 194.943C67.6482 194.254 68.0682 193.262 68.5482 191.97C68.6322 191.75 68.6935 191.579 68.7428 191.456L68.7988 191.26C69.4988 189.288 70.4348 188.296 71.6415 188.296C72.5468 188.296 73.1962 188.528 73.5735 189.006C73.9695 189.486 74.1508 190.246 74.1508 191.326C74.1508 192.044 74.0882 193.302 73.9695 195.062C73.9175 195.407 73.8935 195.675 73.8935 195.836C73.7788 197.479 73.6962 198.904 73.6735 200.135C73.6455 201.358 73.6442 202.528 73.6442 203.643C73.6442 205.67 73.7095 207.64 73.8562 209.576C74.0175 211.522 74.2375 213.424 74.5442 215.324C74.5815 215.536 74.6028 215.796 74.6028 216.098C74.7415 217.09 74.8055 217.688 74.8055 217.904C74.8055 218.93 74.6295 219.654 74.3108 220.062C73.9935 220.467 73.4442 220.676 72.6788 220.676C71.8122 220.676 71.1842 220.475 70.8028 220.087C70.4122 219.707 70.1495 218.78 70.0295 217.314C69.9802 217.158 69.9375 216.892 69.8868 216.542C69.6388 215.342 69.3842 214.442 69.1348 213.834C67.9575 211.382 66.2282 209.672 63.9282 208.674C61.6295 207.698 58.0335 207.195 53.1255 207.195C50.1215 207.195 48.1588 207.647 47.2335 208.588C46.2962 209.51 45.8295 212.07 45.8295 216.291V234.024C45.8295 239.487 46.3575 242.887 47.3828 244.188C48.4148 245.499 50.4988 246.14 53.6482 246.14C59.7002 246.14 65.0868 245.26 69.7708 243.468C74.4575 241.69 78.4828 238.972 81.8428 235.322C82.5535 234.548 83.3468 233.427 84.1988 231.963C84.3615 231.704 84.4922 231.487 84.5802 231.315C85.0482 230.246 85.4948 229.526 85.9268 229.151C86.3575 228.798 86.8535 228.614 87.4468 228.614C88.2348 228.614 88.8308 228.899 89.2882 229.475C89.7295 230.06 89.9655 230.872 89.9655 231.907C89.9655 233.794 89.6322 235.818 88.9855 237.984C88.3388 240.158 87.4228 242.327 86.2055 244.479C84.2508 247.958 82.0015 250.468 79.4802 252.028C76.9775 253.572 73.8802 254.344 70.2468 254.344C69.2335 254.344 68.0575 254.315 66.6695 254.247C65.2642 254.186 63.7362 254.075 62.0575 253.955C61.2868 253.919 60.0455 253.85 58.3708 253.767C50.3922 253.376 43.7442 253.18 38.4642 253.18C34.2508 253.18 29.2522 253.514 23.4468 254.159C22.9775 254.19 22.6455 254.219 22.4868 254.219C21.5308 254.344 20.6602 254.438 19.8748 254.498C19.0775 254.567 18.3922 254.602 17.8522 254.602C17.1122 254.602 16.4642 254.315 15.9108 253.767C15.3455 253.192 15.0735 252.563 15.0735 251.819C15.0735 251.195 15.3002 250.612 15.7495 250.086C16.2015 249.572 17.1842 248.964 18.6895 248.282C19.8748 247.726 20.8295 247.186 21.5308 246.671C22.2082 246.14 22.7788 245.59 23.2522 244.987C24.1655 243.878 24.7908 242.402 25.1242 240.575C25.4762 238.748 25.6642 235.555 25.6642 230.995Z" fill="#9C9C9C"/>
<path d="M104.541 230.222L105.899 192.746C105.927 192.059 105.958 191.338 105.989 190.579C106.006 189.836 106.006 188.726 106.006 187.26C106.006 182.698 105.621 179.132 104.83 176.52C104.031 173.926 102.751 171.694 100.991 169.855C99.7019 168.387 97.8539 167.252 95.4499 166.426C95.3459 166.426 95.3072 166.411 95.3072 166.372H95.1766C95.0886 166.276 95.0086 166.227 94.9179 166.227C93.8006 165.932 93.1246 165.583 92.8966 165.159C92.6646 164.763 92.5459 164.106 92.5459 163.204C92.5459 162.258 92.6806 161.616 92.9952 161.298C93.2846 160.975 93.8779 160.807 94.7326 160.807C95.6406 160.807 97.1232 160.984 99.1832 161.334H99.5086C99.8499 161.382 100.431 161.436 101.247 161.523C103.093 161.706 104.491 161.786 105.449 161.786C106.817 161.786 108.669 161.67 110.989 161.452C111.802 161.416 112.399 161.382 112.719 161.334H113.119C115.139 161.159 116.593 161.075 117.499 161.075C118.973 161.075 120.057 161.367 120.791 161.94C121.518 162.522 122.491 164.128 123.694 166.74L149.55 222.03C150.085 223.062 150.505 223.803 150.846 224.263C151.194 224.712 151.513 224.932 151.823 224.932C152.115 224.932 152.434 224.712 152.797 224.263C153.129 223.803 153.549 223.003 154.077 221.832L182.718 163.08C183.182 162.258 183.694 161.67 184.241 161.334C184.762 160.984 185.471 160.807 186.317 160.807C186.375 160.807 186.594 160.86 187.002 160.951C187.415 161.02 187.787 161.075 188.127 161.075C189.731 161.334 191.197 161.515 192.522 161.616C193.858 161.724 195.203 161.786 196.587 161.786C197.867 161.786 199.179 161.747 200.481 161.652C201.805 161.574 203.338 161.416 205.091 161.204C205.902 161.075 206.643 160.975 207.298 160.911C207.933 160.85 208.513 160.807 209.042 160.807C210.075 160.86 210.761 161.088 211.135 161.491C211.494 161.902 211.661 162.639 211.661 163.724C211.661 164.96 210.651 165.724 208.582 165.971H208.513C207.227 166.106 206.146 166.303 205.291 166.555C204.431 166.822 203.609 167.202 202.838 167.722C200.99 168.799 199.682 170.26 198.943 172.138C198.181 174.003 197.813 176.899 197.813 180.808V184.36L199.366 227.763C199.618 233.782 200.277 238.224 201.355 241.086C202.425 243.959 204.159 246.13 206.515 247.638C207.159 248.03 208.185 248.4 209.618 248.738C209.705 248.766 209.781 248.796 209.805 248.796C210.969 249.004 211.715 249.262 212.063 249.543C212.402 249.818 212.574 250.23 212.574 250.792C212.574 252.174 212.281 253.104 211.661 253.602C211.069 254.088 209.805 254.344 207.866 254.344C206.882 254.344 205.139 254.274 202.651 254.159C202.175 254.159 201.791 254.13 201.485 254.075C199.039 253.919 196.839 253.787 194.899 253.698C192.974 253.608 191.081 253.572 189.222 253.572C185.711 253.572 181.702 253.787 177.235 254.219C176.63 254.298 176.219 254.344 176.01 254.344C175.705 254.396 175.309 254.431 174.845 254.476C173.991 254.567 173.453 254.602 173.238 254.602C172.121 254.602 171.373 254.412 171.011 254.027C170.631 253.638 170.463 252.856 170.463 251.702C170.463 251.132 170.631 250.675 170.977 250.276C171.331 249.892 172.079 249.442 173.291 248.926C173.383 248.883 173.53 248.814 173.755 248.738C174.906 248.264 175.79 247.764 176.391 247.254C177.685 246.255 178.597 245.112 179.133 243.796C179.666 242.49 179.947 240.732 179.947 238.543C179.947 238.023 179.911 237.174 179.862 235.996C179.835 234.807 179.81 233.831 179.81 233.055C179.77 232.931 179.751 232.776 179.727 232.61C179.689 232.424 179.689 232.158 179.689 231.771L178.265 194.162C178.17 192.998 178.097 192.215 178.003 191.81C177.926 191.395 177.777 191.196 177.619 191.196C177.309 191.196 177.022 191.338 176.709 191.612C176.413 191.902 176.13 192.294 175.881 192.806L147.369 251.311C147.325 251.44 147.291 251.543 147.271 251.611C147.242 251.667 147.171 251.75 147.035 251.819C146.599 252.816 146.213 253.43 145.85 253.698C145.479 253.955 144.959 254.075 144.266 254.075C143.539 254.075 142.942 253.923 142.498 253.602C142.042 253.288 141.527 252.515 140.989 251.311C140.989 251.228 140.978 251.146 140.949 251.086C140.923 251.023 140.843 250.93 140.731 250.792L115.51 193.202C115.233 192.638 114.959 192.19 114.669 191.852C114.361 191.498 114.062 191.326 113.767 191.326C113.465 191.368 113.209 191.662 113.018 192.195C112.834 192.739 112.687 193.563 112.609 194.687L111.427 231.122V232.807C111.427 235.73 111.746 238.186 112.386 240.184C113.006 242.184 113.99 243.836 115.366 245.123C116.407 246.14 118.186 247.054 120.737 247.834C120.983 247.92 121.186 247.984 121.309 248.03C121.425 248.068 121.609 248.107 121.823 248.194C122.041 248.254 122.333 248.323 122.726 248.41C124.013 248.796 124.846 249.212 125.237 249.668C125.622 250.128 125.818 250.792 125.818 251.702C125.818 252.768 125.559 253.526 125.025 253.955C124.481 254.396 123.499 254.602 122.089 254.602C120.319 254.602 117.929 254.431 114.925 254.075C114.451 254.04 114.062 254.004 113.767 253.955C113.674 253.955 113.514 253.944 113.317 253.896C111.158 253.594 109.653 253.43 108.789 253.43C107.389 253.43 105.946 253.514 104.505 253.638C103.065 253.767 101.543 253.955 99.9539 254.219C99.1832 254.344 98.4272 254.438 97.7006 254.498C96.9699 254.567 96.3046 254.602 95.6979 254.602C94.5886 254.602 93.7899 254.384 93.3552 253.923C92.8966 253.476 92.6726 252.686 92.6726 251.567C92.6726 250.276 93.6552 249.318 95.6406 248.671H95.6979C96.5259 248.499 97.2139 248.282 97.7646 248.03C98.3299 247.764 98.8392 247.444 99.3059 247.054C100.939 245.679 102.19 243.614 103.065 240.86C103.91 238.116 104.41 234.559 104.541 230.222Z" fill="#9C9C9C"/>
<path d="M137.369 84.9217C138.09 84.6804 140.142 84.939 140.726 85.343C140.605 85.4244 140.478 85.4977 140.35 85.5537C140.485 85.563 140.613 85.563 140.754 85.5697C143.065 85.7484 145.337 86.7604 147.061 88.3297C147.162 88.395 147.262 88.4684 147.361 88.5377C148.77 89.4004 149.91 90.5377 150.773 91.9484C151.159 92.5977 151.59 93.2257 151.977 93.8644C152.43 94.599 152.729 95.343 152.695 96.259C152.665 97.0724 152.582 97.8497 152.361 98.6364C152.205 99.1804 152.19 99.763 152.091 100.324C151.889 101.34 151.435 102.236 150.865 103.078C150.585 103.495 150.213 103.807 149.731 104.039C148.543 104.572 147.598 105.471 146.583 106.266C145.791 106.896 145.015 107.543 144.259 108.192C143.45 108.872 142.714 109.636 141.993 110.416C141.537 110.903 141.079 111.395 140.638 111.915C138.985 113.903 136.981 115.535 134.987 117.186C135.01 117.196 135.043 117.222 135.071 117.239C135.559 117.526 135.579 117.708 135.189 118.156C134.543 118.882 133.874 119.6 133.21 120.312C133.07 120.451 132.887 120.559 132.707 120.676C132.522 120.811 132.299 120.903 132.149 121.071C131.337 121.982 130.221 122.46 129.238 123.13C128.847 123.41 128.377 123.583 127.922 123.766C127.131 124.596 126.366 125.438 125.618 126.323C123.777 128.51 121.534 130.666 118.999 131.966C118.991 131.986 118.986 132.006 118.986 132.006C118.615 132.656 118.122 133.148 117.538 133.542C116.526 134.22 115.487 134.839 114.407 135.416C113.561 135.868 112.743 136.366 111.889 136.802C110.922 137.288 109.929 137.699 108.929 138.1C108.242 138.375 107.61 138.734 106.955 139.072C106.089 139.52 105.141 139.826 104.285 140.306C104.159 140.368 104.013 140.384 103.881 140.408C103.045 140.574 102.262 140.888 101.485 141.219C101.283 141.299 101.085 141.306 100.887 141.352C100.057 141.566 99.25 141.822 98.4153 141.979C97.7673 142.111 97.1246 142.227 96.542 142.552C96.3126 142.675 96.0646 142.719 95.81 142.687C95.5406 142.654 95.2886 142.695 95.0526 142.759C94.41 142.938 93.742 142.872 93.0833 142.935C92.1326 143.006 91.1633 143.056 90.2126 143.056C89.3793 143.056 88.5673 142.894 88.0153 142.147C87.8566 141.906 87.638 141.69 87.454 141.46C86.9233 140.774 86.5086 140.047 86.4486 139.164C86.3926 138.372 86.082 137.638 85.7433 136.946C85.3633 136.174 85.2913 135.31 84.9313 134.531C84.7766 134.226 84.842 133.811 84.83 133.45C84.8046 133.034 84.7553 132.606 84.8046 132.219C84.902 131.228 84.6726 130.251 84.7766 129.263C84.83 128.832 84.6326 128.448 84.5566 128.052C84.4953 127.811 84.4286 127.56 84.4766 127.315C84.606 126.758 84.5433 126.21 84.4353 125.668C84.3446 125.184 84.3113 124.691 84.2993 124.198C87.286 124.524 90.1006 125.362 93.178 125.758C93.9153 125.854 94.6446 125.915 95.386 125.984C95.4846 125.948 95.5833 125.915 95.7206 125.888C95.9873 125.835 96.2726 125.804 96.5486 125.838C97.3806 125.936 98.1713 125.686 98.974 125.526C99.3713 125.452 99.9113 125.355 99.638 124.655C99.5406 124.419 99.8153 124.322 100.001 124.26C101.441 123.762 102.678 122.918 103.91 122.04C104.893 121.351 106.011 120.895 106.977 120.171C107.05 120.111 107.161 120.051 107.251 120.044C108.731 119.79 109.486 118.671 110.253 117.574C110.809 116.788 111.446 116.09 112.219 115.52C112.374 115.406 112.527 115.282 112.667 115.151C113.191 114.324 113.798 113.571 114.487 112.931C114.555 112.835 114.606 112.726 114.674 112.624C115.411 111.45 116.281 110.232 117.266 109.247C119.473 107.071 121.943 105.756 124.737 104.467C124.975 104.364 125.199 104.275 125.446 104.192C125.53 104.052 125.625 103.908 125.73 103.787C125.777 103.739 125.79 103.667 125.829 103.612C126.562 102.336 126.562 102.336 125.217 101.872C125.59 100.412 126.454 99.2684 127.511 98.2417C128.071 97.695 128.569 97.1177 128.922 96.403C129.67 93.5817 130.957 90.983 133.134 88.6297C134.402 87.2537 135.767 86.079 137.202 85.0297C137.318 85.0404 137.435 85.0364 137.549 85.0497C137.487 85.011 137.423 84.975 137.369 84.9217ZM76.5153 110.838C72.906 106.387 71.0433 100.808 70.1713 95.195C68.7006 94.0137 68.086 92.2564 67.3246 90.615C67.062 90.047 67.07 89.347 67.0313 88.7044C66.962 87.9804 66.6966 87.3564 66.262 86.5884C66.034 87.5484 66.2846 88.367 66.0913 89.2764C65.4966 88.7657 65.1713 88.1164 64.5593 87.7604C64.4153 87.6777 64.35 87.4177 64.4526 87.3004C65.11 86.5617 64.4486 85.8777 64.358 85.1924C64.3046 84.843 64.166 84.4404 64.1166 84.071C63.926 84.0244 63.8766 84.1057 63.8206 84.1964C63.7473 84.3097 63.6486 84.427 63.5006 84.3737C63.3393 84.3097 63.326 84.1604 63.382 84.031C63.5193 83.7844 63.61 83.5324 63.606 83.251C63.6033 82.867 63.7473 82.615 64.0913 82.435C64.6966 82.103 64.9126 81.5604 64.93 80.9004C64.9566 79.6697 65.1713 78.4577 65.4966 77.2777C65.7846 76.2284 66.2046 75.2084 66.498 74.1844C66.7966 73.131 67.0953 72.091 67.442 71.0604C67.9366 69.5644 68.4473 68.0804 68.9806 66.595C69.1286 66.1644 69.278 65.7137 69.7713 65.331C69.89 66.4164 69.2246 67.239 69.23 68.2124C70.5433 66.527 71.1526 64.5497 71.8993 62.6484C72.9366 60.0004 74.286 57.5004 75.8606 55.1337C77.2233 53.095 78.7953 51.2084 80.2606 49.2337C81.006 48.2377 81.9513 47.347 82.918 46.5417C84.4353 45.2937 85.6126 43.727 86.9793 42.3577C87.466 41.851 87.3566 41.215 87.4513 40.615C87.5046 40.2924 87.4326 40.0257 87.1393 39.8684C87.8073 39.4804 88.4593 39.4524 89.2553 39.6484C90.3233 39.9084 91.4806 39.9977 92.6166 39.7724C92.8406 39.7297 93.0886 39.6137 93.314 39.6484C95.2073 39.915 96.794 39.007 98.482 38.4444C98.7246 38.3604 98.9473 38.2724 99.166 38.4284C99.8966 38.919 100.574 38.6284 101.165 38.195C102.341 37.3217 103.701 36.7537 104.965 36.0084C105.786 35.5284 106.759 35.6124 107.671 35.579C110.099 35.4884 112.514 35.6964 114.918 36.0804C116.526 36.331 118.122 36.763 119.775 36.8404C120.129 36.8564 120.445 36.9737 120.766 37.0764C121.262 37.2084 121.767 37.403 122.259 37.4217C124.189 37.491 125.726 38.375 127.125 39.595C129.255 41.4417 130.798 43.719 131.947 46.2644C132.029 46.4417 132.091 46.587 132.131 46.7124C134.415 48.8577 135.01 51.7324 134.801 54.6817C134.807 54.723 134.815 54.7564 134.815 54.791C134.807 56.607 134.851 58.4177 134.771 60.219C134.631 62.615 133.857 64.8417 132.818 66.9857C132.278 68.0977 131.785 69.2084 131.681 70.467C131.65 70.831 131.514 71.2097 131.337 71.5377C130.733 72.651 130.233 73.807 129.726 74.9644C129.123 76.3524 128.513 77.723 127.934 79.111C126.65 79.2937 125.359 79.5217 124.03 79.823C120.361 80.659 116.806 80.667 113.131 80.979C113.074 81.0124 113.013 81.0604 112.919 81.103C112.687 81.2524 112.441 81.355 112.174 81.4377C111.606 81.615 111.035 81.827 110.534 82.143C110.075 82.435 109.591 82.6004 109.071 82.7177C108.461 82.843 107.866 82.9697 107.377 83.4297C107.134 83.659 106.778 83.7404 106.441 83.8457C106.226 83.9137 105.999 83.9817 105.805 84.0897C104.251 84.967 102.63 85.7404 101.371 87.0604C101.343 87.0924 101.297 87.115 101.254 87.1377C100.874 87.3004 100.661 87.6164 100.441 87.9497C100.301 88.1297 100.17 88.3257 100.015 88.4924C99.4313 89.0724 98.7806 89.591 98.354 90.3137C98.302 90.4097 98.1953 90.475 98.1046 90.5377C97.6313 90.859 97.1846 91.219 96.7273 91.571C96.4406 91.7977 96.2286 92.119 95.8926 92.2564C95.274 92.499 94.982 93.1644 94.3793 93.4017C94.0446 94.1244 93.178 94.383 92.8846 95.139C92.8406 95.2337 92.718 95.3004 92.6166 95.343C91.7233 95.7324 91.2526 96.6124 90.4473 97.103C89.9273 97.4377 89.5286 97.9217 89.0353 98.2897C87.9753 99.1137 86.9073 99.9484 85.898 100.834C85.518 101.159 85.1006 101.459 84.822 101.892C84.4766 102.383 84.0846 102.83 83.6833 103.274C83.346 103.652 83.0366 104.047 82.758 104.478C82.1993 105.36 81.9353 106.364 81.5966 107.338C81.0913 108.768 80.7006 110.232 80.166 111.648C79.9073 112.354 79.6713 113.06 79.514 113.79C78.458 112.928 77.4406 111.978 76.5153 110.838V110.838ZM69.9113 98.147C69.7486 98.2084 69.5566 98.2164 69.454 98.0457C69.3473 97.8817 69.2873 97.675 69.2246 97.487C69.1473 97.2564 69.1153 96.963 68.8606 96.899C67.798 96.6204 67.6873 95.563 67.1913 94.8377C67.0313 94.5897 66.9833 94.2684 66.8806 93.987C67.5713 94.6684 68.6126 94.8764 69.198 95.7377C69.6286 96.387 69.7073 97.1377 70.126 97.7577C70.238 97.915 70.0966 98.099 69.9113 98.147V98.147ZM66.3153 97.915C67.2406 98.523 67.5646 99.443 68.3113 100.324C67.2326 100.008 66.4126 98.9604 66.3153 97.915ZM66.2353 91.2377C66.2846 91.1324 66.3713 91.1004 66.4886 91.1137C66.5873 91.1604 66.6353 91.2417 66.6086 91.3497C66.5766 91.5057 66.4526 91.5777 66.3033 91.5057C66.2166 91.451 66.2086 91.3377 66.2353 91.2377ZM64.93 93.511C64.714 93.7484 64.5593 94.1937 64.0713 93.9564C63.6713 93.7537 63.5006 93.2337 63.7913 92.8497C64.1513 92.3804 64.0153 91.899 63.9646 91.4084C63.9513 91.2044 63.8913 90.971 64.1166 90.8737C64.358 90.767 64.5913 90.8457 64.754 91.0417C65.014 91.3497 65.15 93.1457 64.93 93.511ZM63.5286 62.291C63.742 62.2644 63.8206 62.4284 63.8913 62.571C63.9566 62.7484 64.0513 62.9897 63.7913 63.0604C63.6033 63.1137 63.5366 62.8937 63.4886 62.7337C63.4366 62.583 63.3673 62.4284 63.5286 62.291ZM69.7433 60.5604C69.698 60.611 69.5406 60.611 69.4646 60.575C69.3526 60.5177 69.3966 60.395 69.4393 60.3004C69.6753 59.8284 69.934 59.359 70.3953 58.8084C70.5326 59.6657 70.1126 60.1004 69.7433 60.5604ZM77.8393 44.0324C77.7286 44.191 77.566 44.247 77.4126 44.151C77.2526 44.0404 77.29 43.871 77.4446 43.6364C77.4913 43.5764 77.6286 43.4737 77.7913 43.6044C77.9433 43.711 77.95 43.8804 77.8393 44.0324ZM79.846 43.1004C79.7393 43.3324 79.53 43.4737 79.2646 43.3697C79.046 43.2817 78.9766 43.0804 79.0806 42.871C79.21 42.603 79.4513 42.631 79.614 42.6497C79.8806 42.7724 79.9393 42.9337 79.846 43.1004V43.1004ZM81.2326 44.9257C80.91 45.331 80.65 45.6177 80.166 45.883C80.3606 45.315 80.6326 45.0497 81.2326 44.9257ZM67.9006 55.3737C68.4526 54.3537 68.5793 53.2244 68.974 52.1764C69.026 52.015 69.0366 51.835 69.1153 51.691C70.0433 49.823 71.03 48.0097 72.1153 46.2444C73.0633 44.7017 74.1433 43.251 75.0526 41.687C75.178 41.4657 75.3473 41.3164 75.5353 41.1617C75.73 40.9764 75.986 40.8177 76.1233 40.5977C77.0513 39.0924 78.462 38.0177 79.6233 36.7217C80.2566 36.0124 81.0566 35.4644 81.8713 34.959C82.442 34.6204 82.77 34.783 82.7113 35.4044C82.6273 36.1657 82.7113 36.903 82.8473 37.647C82.934 38.1004 82.7473 38.3004 82.35 38.5057C81.822 38.7857 81.3793 39.115 80.8193 38.5404C80.5606 38.2697 80.2406 38.4324 79.99 38.643C79.7393 38.8604 79.4673 39.0924 79.2646 39.3724C78.8793 39.931 78.434 40.4484 77.9433 40.9217C77.7286 41.1337 77.5406 41.387 77.59 41.7497C77.9406 41.819 78.1073 41.5924 78.2766 41.3897C78.5486 41.0884 78.8126 40.771 79.0753 40.4617C79.1633 40.3457 79.2566 40.2497 79.4193 40.299C79.6086 40.3457 79.518 40.491 79.53 40.6257C79.5766 40.9964 80.0366 41.2244 80.302 41.031C80.474 40.907 80.446 40.743 80.3833 40.5724C80.2406 40.147 80.5233 39.959 80.8366 39.959C81.686 39.9444 82.2206 39.4337 82.7113 38.8484C83.0486 38.4444 83.4206 38.375 83.87 38.663C84.8553 39.2804 85.942 39.6324 87.0686 39.8737C86.0153 40.8297 84.974 41.783 83.922 42.727C83.7726 42.8644 83.6113 43.0084 83.4206 43.0804C83.0886 43.2204 82.8633 43.0337 82.8633 42.715C82.8393 42.3044 82.962 41.9084 83.4486 41.7497C84.202 41.4924 84.55 40.9617 84.51 40.127C84.4766 39.6324 84.4006 39.5177 83.954 39.751C83.7193 39.8737 83.4366 40.0124 83.3126 40.2297C82.6953 41.2697 81.5046 41.4057 80.574 41.9057C80.1886 42.1164 79.442 42.147 79.014 41.563C78.886 41.387 78.7153 41.4204 78.574 41.5297C78.3006 41.735 77.97 41.9217 77.7993 42.1937C77.3406 42.9337 76.5633 43.2577 75.898 43.6804C74.8166 44.363 74.2726 45.3964 73.8926 46.5417C73.6566 47.2177 73.1486 47.687 72.738 48.195C71.474 49.7484 70.462 51.419 69.5753 53.211C68.9113 54.559 68.2206 55.9417 67.274 57.1524C67.3033 56.4884 67.602 55.9137 67.9006 55.3737V55.3737ZM81.514 33.6684C81.5726 33.659 81.702 33.779 81.71 33.8444C81.746 34.1604 81.49 34.2244 81.2953 34.3284C81.2406 34.2577 81.2153 34.2284 81.2153 34.215C81.226 33.9804 81.1806 33.699 81.514 33.6684V33.6684ZM84.0926 116.568C84.1126 116.348 84.138 116.126 84.158 115.904C84.2126 115.008 84.458 114.138 84.47 113.256C84.47 112.894 84.55 112.578 84.6873 112.25C85.0073 111.44 85.1673 110.582 85.3926 109.743C85.4926 109.352 85.6793 109.135 86.0393 109.027C86.4073 108.903 86.7846 108.776 87.1233 108.582C87.562 108.351 87.9553 108.127 88.1926 107.562C88.526 106.803 88.9446 106.064 89.5193 105.42C89.8633 105.034 90.09 104.539 90.3113 104.064C90.462 103.73 90.6566 103.472 90.9353 103.26C91.4113 102.886 91.8233 102.471 92.1366 101.952C92.2406 101.776 92.3833 101.62 92.5326 101.483C93.4126 100.715 94.122 99.775 94.9033 98.9284C95.0646 98.771 95.2073 98.6537 95.4353 98.6617C95.7033 98.6724 95.9046 98.523 96.138 98.4297C96.5766 98.2524 96.8953 97.9497 97.2513 97.675C97.9393 97.1497 98.482 96.463 99.1833 95.9484C99.3246 95.8404 99.5073 95.7684 99.6713 95.6977C99.9273 95.5817 100.174 95.479 100.33 95.219C100.461 94.999 100.713 94.891 100.922 94.767C101.383 94.4724 101.797 94.0897 102.262 93.8097C102.835 93.4497 103.282 92.9244 103.95 92.671C104.145 92.5977 104.335 92.4404 104.505 92.2764C104.871 91.4817 105.271 90.7097 105.757 89.9844C107.954 86.711 110.993 85.887 114.674 85.1617C117.147 84.6737 119.639 84.5097 122.135 84.4964C122.907 84.3564 123.681 84.239 124.466 84.1684C125.23 84.0897 125.994 84.1204 126.755 84.1844C126.174 85.9697 125.373 87.6417 124.402 89.219C122.453 93.247 120.063 97.023 116.929 100.146C116.865 100.255 116.793 100.359 116.73 100.479C116.706 100.442 116.706 100.412 116.685 100.379C116.453 100.598 116.239 100.816 116.013 101.019C113.274 108.562 106.949 115.171 99.038 117.336C98.998 117.4 98.9313 117.459 98.8046 117.471C98.6046 117.492 98.3913 117.514 98.186 117.538C97.91 117.6 97.646 117.67 97.3766 117.719C92.6326 118.608 88.0993 118.274 84.0926 116.568V116.568ZM63.094 72.175C63.0473 72.2817 62.9833 72.4177 62.822 72.3644C62.822 72.3644 62.7953 72.2337 62.8113 72.1777C62.8593 72.0564 62.9193 71.9484 63.0753 71.9257C63.1766 72.0017 63.1433 72.0977 63.094 72.175V72.175ZM166.349 56.4484C165.742 53.7364 164.989 51.0764 163.983 48.4964C163.33 46.8124 162.482 45.2004 161.613 43.6164C161.197 42.8844 160.511 42.3177 160.134 41.5297C159.997 41.251 159.91 41.031 159.85 40.847C159.369 40.4004 158.879 39.9444 158.403 39.471C156.97 37.9924 155.654 36.4737 154.679 34.7337C154.519 34.6057 154.345 34.4004 154.079 34.1124C152.985 32.895 151.859 31.7017 150.581 30.6577C149.327 29.6337 147.97 28.7804 146.61 27.9217C145.373 27.1484 144.227 26.2164 142.735 25.887C141.793 25.695 140.907 25.3017 139.986 25.115C139.046 24.9257 138.059 24.807 137.126 25.0244C136.421 25.1817 135.793 25.1484 135.145 24.8537C133.675 24.187 132.195 23.567 130.551 23.4684C130.15 23.4524 129.733 23.3404 129.355 23.2057C126.007 21.9617 122.47 21.4564 119.027 20.5564C117.274 20.1004 115.517 19.655 113.823 19.0044C113.274 18.8004 112.738 18.5604 112.325 18.1364C112.031 17.8377 111.694 17.5724 111.278 17.5324C109.375 17.3337 107.594 16.431 105.642 16.5337C105.47 16.5444 105.293 16.483 105.141 16.4297C104.639 16.2537 104.126 16.2537 103.619 16.431C102.049 16.9604 100.427 17.0044 98.7806 17.0337C98.4393 17.039 98.0673 17.0337 97.7766 17.219C96.666 17.9977 95.3326 18.0724 94.0766 18.3364C92.906 18.579 91.986 19.1404 91.1326 19.8657C90.5646 20.3164 90.0686 20.8324 89.3526 21.047C89.23 21.0884 89.062 21.1537 89.0073 21.2617C88.5886 22.031 87.7553 22.2937 87.1526 22.8284C86.3926 23.507 85.5633 24.0657 84.902 24.9017C83.246 26.975 82.5366 29.407 82.0486 31.9337C81.998 32.2484 81.998 32.6217 81.7153 32.7564C81.0233 33.0604 80.4606 33.579 79.8126 33.911C79.2646 34.179 78.7953 34.4617 78.462 34.947C78.026 35.563 77.5606 36.1404 76.8473 36.4857C76.5433 36.635 76.1966 36.8844 76.2286 37.247C76.3073 38.183 75.7166 38.7857 75.2006 39.3937C74.6473 40.035 74.0713 40.783 73.2953 41.0817C71.474 41.7497 71.254 43.503 70.4793 44.8764C70.4726 46.1364 69.658 47.0964 69.2126 48.195C69.1153 48.4497 68.9113 48.603 68.5886 48.6497C67.6326 48.7564 67.5193 48.919 67.458 50.0217C67.6606 50.2177 67.8353 49.6457 68.0713 50.027C67.6993 50.919 67.354 51.835 66.7646 52.6644C66.082 53.619 65.2446 54.4924 64.822 55.6324C64.642 56.131 64.4486 56.5364 64.822 57.055C65.1206 57.4657 64.642 58.8977 64.198 58.9137C63.094 58.951 63.054 59.759 62.7953 60.5057C62.442 61.5804 62.3113 62.703 62.122 63.8084C62.0353 64.2817 61.8833 64.7204 61.7153 65.171C61.446 65.9044 61.0966 66.623 61.082 67.4257C61.046 69.319 60.7393 71.1524 59.9806 72.899C59.778 73.371 59.5833 73.8484 59.3753 74.3137C59.1286 74.8444 59.0686 75.3257 59.598 75.795C60.0446 76.175 60.1086 76.735 59.874 77.291C59.5433 78.083 59.6273 78.8164 60.2153 79.459C60.3553 79.6244 60.3913 79.823 60.47 80.0084C60.9833 81.199 60.7593 82.4577 60.8846 83.687C60.9086 83.9217 60.7846 84.123 60.5953 84.1964C59.7206 84.4897 59.778 85.0364 60.1366 85.707C60.2286 85.8777 60.198 86.1137 60.198 86.323C60.2153 86.5284 60.2353 86.7217 60.3553 86.9004C60.5633 87.2457 60.7393 87.239 61.0166 86.8644C61.086 86.7724 61.0646 86.583 61.382 86.711C61.3566 87.8937 61.702 89.0724 61.874 90.279C61.938 90.695 62.0446 91.283 61.29 91.3377C61.07 91.347 60.9966 91.6004 61.0073 91.8177C61.0246 92.2764 61.0966 92.7084 61.4046 93.063C61.6153 93.295 61.802 93.5364 61.8486 93.8564C62.0126 95.187 62.7913 96.251 63.3673 97.4044C64.082 98.839 64.822 100.27 65.4966 101.722C65.6526 102.054 65.7166 102.246 65.6926 102.395C66.1513 103.164 66.498 104.014 66.6726 104.95C67.07 105.64 67.4913 106.332 67.8686 107.035C68.5366 108.316 69.0646 109.514 69.4646 110.738C70.014 111.047 70.5393 111.383 71.0753 111.703C71.302 111.846 71.2193 112.059 71.1353 112.25C70.682 113.242 71.1393 114.06 71.646 114.844C71.9726 115.338 72.55 115.475 73.1153 115.379C73.4406 115.323 73.586 115.33 73.746 115.644C74.41 117.019 75.582 117.99 76.654 119.01C76.9606 119.314 77.2673 119.547 77.2673 120.01C77.258 120.559 77.6046 120.778 78.0673 120.938C78.4833 121.078 78.882 121.251 79.2833 121.423C79.3233 121.623 79.346 121.823 79.4113 122.016C79.7286 122.98 80.0193 123.924 80.118 124.944C80.198 125.804 80.3406 126.667 80.4153 127.527C80.4606 128.06 80.338 128.59 80.4313 129.104C80.6393 130.132 80.4833 131.156 80.5873 132.184C80.6246 132.503 80.4913 132.84 80.5433 133.148C80.7366 134.272 80.9326 135.411 81.2153 136.523C81.5006 137.679 81.8006 138.839 82.074 139.999C82.4486 141.558 83.3553 142.756 84.3353 143.942C84.7766 144.474 85.182 145.04 85.1006 145.779C85.0406 146.348 85.3353 146.748 85.7433 146.971C86.2873 147.267 86.8326 147.598 87.4206 147.784C88.434 148.127 89.5046 148.292 90.5806 148.315C92.3286 148.376 94.07 148.21 95.7833 148.074C97.1126 147.97 98.4153 147.647 99.658 147.159C100.043 147.006 100.441 146.868 100.855 146.831C102.975 146.684 104.885 145.794 106.83 145.048C107.823 144.678 108.655 143.995 109.641 143.59C110.654 143.17 111.619 142.624 112.527 142.032C112.815 141.839 113.131 141.671 113.469 141.602C113.97 141.507 114.383 141.25 114.749 140.956C115.802 140.118 117.062 139.643 118.178 138.924C118.583 138.671 119.049 138.458 119.362 138.116C119.699 137.754 120.158 137.624 120.518 137.31C121.399 136.584 122.349 135.887 123.343 135.359C124.043 134.999 124.723 134.578 125.431 134.214C126.243 131.451 128.059 129.48 130.15 127.706C130.147 127.695 130.125 127.687 130.114 127.682C129.783 127.516 129.746 127.502 130.017 127.143C130.189 126.684 130.801 126.624 131.177 126.242C131.402 125.995 131.65 125.764 131.897 125.526C132.442 125.019 133.03 124.56 133.589 124.067C133.721 123.958 133.834 123.858 133.938 123.727C134.262 123.331 134.651 123.056 135.161 122.906C135.566 122.783 135.935 122.516 136.29 122.251C136.938 121.783 137.555 121.275 138.191 120.791C138.299 120.702 138.413 120.627 138.539 120.564C138.679 120.496 138.811 120.504 138.915 120.567C140.649 119.18 142.426 117.895 144.249 116.668C144.223 116.644 144.198 116.616 144.166 116.582C144.418 116.251 144.718 116.012 145.023 115.832C145.905 115.29 146.599 114.506 147.467 113.968C148.067 113.603 148.605 113.174 149.143 112.743C150.009 111.928 150.881 111.123 151.743 110.286C154.161 107.93 155.981 105.399 157.457 102.519C157.875 101.276 158.055 99.9844 158.055 98.6617C158.055 97.727 158.163 96.7777 158.153 95.8404C158.137 94.1244 157.875 92.4897 156.958 90.9657C156.423 90.0817 155.875 89.211 155.27 88.3777C154.621 87.487 153.915 86.6377 152.97 86.043C152.65 85.851 152.351 85.6204 152.142 85.323C151.938 85.0364 151.729 84.783 151.419 84.6004C151.078 84.3897 151.078 84.0244 151.419 83.823C151.469 83.8044 151.506 83.7644 151.546 83.7297C151.291 83.5364 151.03 83.355 150.773 83.1484C148.986 82.1337 147.045 81.4577 145.033 80.9377C146.222 80.507 147.435 80.123 148.693 79.7937C149.287 79.631 149.914 79.5137 150.55 79.4324C150.581 79.3564 150.625 79.2764 150.663 79.1844C150.95 78.5897 151.451 78.1604 151.881 77.6764C152.142 77.3884 152.495 77.3884 152.834 77.483C153.213 77.575 153.607 77.463 153.945 77.535C155.286 77.811 156.195 77.195 157.074 76.311C157.81 75.5657 158.693 74.9644 159.341 74.1244C159.515 73.8964 159.779 73.7737 160.043 73.7244C160.654 73.607 161.014 73.2284 161.135 72.651C161.269 72.0764 161.63 71.7777 162.151 71.591C162.687 71.4057 163.087 71.0897 163.234 70.483C163.323 70.127 163.57 69.8057 163.758 69.491C164.149 68.799 164.473 68.0977 164.601 67.299C164.73 66.5217 164.989 65.767 165.519 65.1604C165.929 64.687 166.059 64.1124 166.071 63.5364C166.073 62.903 166.213 62.3257 166.349 61.7257C166.763 59.971 166.754 58.231 166.349 56.4484" fill="#9C9C9C"/>
<path d="M93.7005 4.35421C93.9672 4.29154 94.2459 4.23021 94.5192 4.21154C95.7712 4.08754 96.9752 4.23021 98.2312 4.84087C97.7352 5.19554 97.3285 5.40621 96.8285 5.41421C96.0899 5.42221 95.3925 5.63821 94.7285 5.93554C94.5045 6.03021 94.2352 6.12887 94.2992 6.41954C94.3552 6.69821 94.6365 6.74887 94.8792 6.74887C95.2739 6.76354 95.6405 6.79954 95.9685 7.02887C96.1819 7.17287 96.4005 7.22754 96.6445 7.09821C96.9992 6.91287 97.2925 7.05554 97.6392 7.16354C98.6112 7.46887 99.5979 7.89021 100.618 7.24754C100.902 7.07554 101.237 7.14621 101.526 7.27554C101.937 7.47687 102.39 7.52887 102.807 7.66487C103.589 7.92621 104.477 7.64221 105.157 7.95954C105.977 8.35687 106.647 8.19154 107.393 7.92621C107.578 7.86221 107.813 7.87954 107.849 7.60621C107.886 7.36354 107.709 7.23287 107.541 7.10487C107.398 7.00754 107.27 6.88887 107.103 6.81687C106.054 6.39021 105.046 5.84487 103.891 5.69554C103.353 5.63821 102.898 5.42221 102.387 5.06621C103.03 4.84087 103.555 4.79687 104.126 4.79687C105.839 4.81154 107.559 4.86354 109.282 4.95421C109.753 4.98354 110.253 4.93421 110.715 4.84621C111.678 4.65954 112.006 3.71954 111.398 2.95021C111.063 2.53421 110.606 2.29954 110.111 2.10754C108.087 1.29421 105.999 0.692875 103.854 0.323541C102.662 0.114208 101.473 -0.104458 100.25 0.0542086C98.1045 0.342209 96.0992 1.09154 94.0765 1.79288C93.6552 1.94088 93.2432 2.15421 92.8779 2.40754C92.4472 2.69421 92.3045 3.54087 92.5325 4.02487C92.7952 4.57287 93.2565 4.43954 93.7005 4.35421Z" fill="#9C9C9C"/>
</svg>
