<svg width="353" height="307" viewBox="0 0 353 307" fill="none" xmlns="http://www.w3.org/2000/svg">
<path d="M12.6813 226.143V180.002C12.6813 176.324 12.392 173.551 11.844 171.666C11.2933 169.794 10.3773 168.3 9.068 167.2C8.416 166.667 7.69733 166.234 6.92267 165.907C6.13733 165.579 4.96133 165.252 3.372 164.924C3.20667 164.9 3.016 164.848 2.78667 164.81C2.56667 164.768 2.16133 164.69 1.59733 164.559C1.17867 164.443 0.823999 164.14 0.491999 163.682C0.171999 163.211 0 162.7 0 162.178C0 161.404 0.301333 160.764 0.889333 160.282C1.48 159.782 2.29733 159.547 3.312 159.547C3.56 159.547 3.79467 159.547 4.004 159.575C4.24 159.587 4.48667 159.626 4.77733 159.666C7.512 159.951 10.104 160.163 12.5493 160.282C14.9973 160.398 17.5107 160.464 20.088 160.464C33.7493 160.464 47.084 160.059 60.0587 159.246L60.5493 159.179C61.2427 159.179 61.9613 159.168 62.7213 159.103C63.4667 159.076 63.9013 159.05 63.9787 159.05C65.6933 159.088 66.6467 160.123 66.844 162.124V162.178V162.728L67.7093 175.095C67.7533 175.211 67.7853 175.356 67.8 175.526C67.8107 175.683 67.8267 175.879 67.8267 176.126C67.8267 176.507 67.8493 176.912 67.892 177.358C67.9307 177.802 67.9573 178.09 67.9573 178.219C67.9573 179.319 67.7653 180.066 67.4067 180.46C67.0413 180.84 66.3467 181.034 65.3267 181.034C64.6707 181.034 64.176 180.84 63.848 180.46C63.5267 180.066 63.2187 179.15 62.9387 177.723V177.54C62.7747 176.4 62.5653 175.458 62.3173 174.726C61.308 171.547 59.384 169.322 56.5587 168.08C53.7573 166.835 48.7333 166.222 41.5093 166.222C37.0547 166.222 34.3373 166.707 33.3387 167.686C32.3347 168.668 31.8373 171.143 31.8373 175.095V191.806C31.8373 194.463 32.204 196.056 32.9373 196.606C33.6707 197.156 36.0387 197.431 40.0373 197.431C43.0947 197.431 45.5933 196.999 47.5027 196.123C49.4267 195.246 50.9707 193.846 52.1493 191.923C52.528 191.28 52.932 190.34 53.3787 189.122C53.468 188.912 53.5213 188.743 53.5613 188.626L53.628 188.442C54.2827 186.559 55.1707 185.63 56.324 185.63C57.18 185.63 57.788 185.85 58.1533 186.295C58.52 186.752 58.7027 187.484 58.7027 188.508C58.7027 189.184 58.652 190.378 58.52 192.052C58.488 192.38 58.4693 192.616 58.4693 192.784C58.3493 194.331 58.2733 195.691 58.2533 196.856C58.2347 198.02 58.2187 199.132 58.2187 200.192C58.2187 202.103 58.284 203.988 58.4307 205.82C58.5733 207.664 58.796 209.482 59.0707 211.276C59.1093 211.472 59.1347 211.722 59.1347 212.01C59.26 212.95 59.3187 213.512 59.3187 213.724C59.3187 214.692 59.176 215.383 58.8747 215.778C58.56 216.143 58.0373 216.351 57.304 216.351C56.48 216.351 55.892 216.182 55.5253 215.804C55.1587 215.438 54.9093 214.56 54.792 213.175C54.752 213.004 54.7 212.768 54.6747 212.442C54.4253 211.29 54.1827 210.438 53.928 209.863C52.8413 207.546 51.1853 205.911 49.0093 204.968C46.8213 204.028 43.4013 203.556 38.7493 203.556C35.888 203.556 34.024 204 33.1493 204.864C32.276 205.754 31.8373 208.188 31.8373 212.192V229.02C31.8373 234.204 32.3227 237.423 33.304 238.667C34.2867 239.92 36.264 240.523 39.2387 240.523C44.996 240.523 50.1 239.686 54.544 237.996C58.9933 236.31 62.82 233.72 65.992 230.25C66.6867 229.518 67.432 228.458 68.244 227.072C68.4 226.823 68.5187 226.612 68.5987 226.443C69.0533 225.436 69.4747 224.756 69.88 224.4C70.2853 224.048 70.768 223.879 71.332 223.879C72.0667 223.879 72.6413 224.152 73.072 224.704C73.4907 225.251 73.7 226.036 73.7 227.006C73.7 228.799 73.4013 230.723 72.784 232.79C72.176 234.844 71.292 236.898 70.1627 238.952C68.284 242.238 66.156 244.631 63.768 246.099C61.3853 247.578 58.4547 248.31 55.0013 248.31C54.0453 248.31 52.92 248.282 51.5987 248.219C50.2707 248.152 48.812 248.059 47.2227 247.944C46.496 247.892 45.3213 247.838 43.732 247.746C36.156 247.394 29.8493 247.21 24.836 247.21C20.8467 247.21 16.0893 247.512 10.5867 248.127C10.144 248.164 9.84 248.194 9.66933 248.194C8.768 248.31 7.94533 248.399 7.184 248.467C6.43867 248.531 5.79867 248.558 5.26133 248.558C4.568 248.558 3.96667 248.295 3.43067 247.746C2.89867 247.224 2.63067 246.62 2.63067 245.927C2.63067 245.314 2.85333 244.763 3.27733 244.266C3.704 243.782 4.632 243.206 6.07067 242.552C7.19733 242.015 8.10267 241.504 8.76133 241.02C9.396 240.523 9.96 239.999 10.404 239.438C11.2667 238.378 11.856 236.976 12.196 235.238C12.512 233.496 12.6813 230.475 12.6813 226.143Z" fill="#9C9C9C"/>
<path d="M107.999 211.811H123.296C124.922 211.811 126.076 211.707 126.751 211.484C127.418 211.264 127.766 210.883 127.766 210.346C127.766 209.992 127.627 209.407 127.367 208.607C127.106 207.822 126.738 206.879 126.294 205.82L117.606 186.595C117.395 186.112 117.159 185.731 116.864 185.43C116.582 185.155 116.296 185.012 115.995 185.012C115.76 185.012 115.511 185.155 115.248 185.47C114.974 185.771 114.672 186.255 114.344 186.91L104.742 207.415C104.506 207.992 104.296 208.514 104.158 209.014C104.02 209.496 103.943 209.902 103.943 210.228C103.943 210.807 104.256 211.211 104.858 211.46C105.48 211.695 106.522 211.811 107.999 211.811ZM86.1844 232.266L120.3 160.228C120.627 159.364 120.968 158.775 121.334 158.448C121.7 158.11 122.139 157.964 122.615 157.964C123.192 157.964 123.65 158.094 123.964 158.383C124.291 158.67 124.684 159.298 125.13 160.282L159.403 234.78C160.266 236.663 161.154 238.195 162.071 239.398C162.999 240.615 163.85 241.374 164.691 241.699C164.96 241.818 165.224 241.938 165.472 242.066C165.722 242.184 165.944 242.303 166.142 242.432C167.659 242.916 168.612 243.363 169.022 243.782C169.422 244.187 169.634 244.736 169.634 245.43C169.634 246.411 169.322 247.094 168.691 247.484C168.058 247.878 166.796 248.06 164.919 248.06C163.607 248.06 162.274 248.023 160.906 247.968C159.544 247.916 158.099 247.824 156.588 247.692C153.774 247.484 151.516 247.355 149.808 247.29C148.082 247.238 146.432 247.21 144.834 247.21C142.88 247.21 141.014 247.275 139.21 247.42C137.415 247.578 135.624 247.772 133.818 248.06C133.628 248.099 133.347 248.139 133.031 248.194C132.287 248.256 131.802 248.31 131.554 248.31C130.65 248.31 129.971 248.114 129.511 247.72C129.04 247.342 128.807 246.778 128.807 246.046C128.807 244.855 129.683 243.887 131.435 243.102L131.554 243.05C131.748 242.998 131.975 242.946 132.195 242.867C132.418 242.787 132.783 242.627 133.267 242.432C134.695 241.663 135.742 240.746 136.42 239.672C137.103 238.614 137.43 237.371 137.43 235.944C137.43 235.366 137.378 234.819 137.284 234.267C137.182 233.706 136.986 233.012 136.698 232.148L133.582 224.126C132.756 222.083 131.866 220.751 130.887 220.083C129.904 219.428 127.864 219.103 124.768 219.103H106.336C103.104 219.103 101.012 219.416 100.028 220.03C99.0484 220.631 98.183 221.81 97.4577 223.511L94.7044 229.884C94.3764 230.695 94.1217 231.532 93.9444 232.395C93.7564 233.247 93.659 234.123 93.659 235.027C93.659 236.859 94.1684 238.404 95.175 239.647C96.1644 240.89 97.6484 241.818 99.5977 242.432C100.174 242.591 100.867 242.787 101.679 242.97C102.504 243.194 102.947 243.296 103.027 243.296C104.7 243.571 105.748 243.912 106.187 244.306C106.611 244.698 106.822 245.274 106.822 246.046C106.822 246.935 106.639 247.578 106.247 247.916C105.859 248.256 105.134 248.426 104.059 248.426C103.379 248.426 102.595 248.399 101.719 248.336C100.83 248.282 99.899 248.194 98.9244 248.06C96.811 247.892 94.8857 247.772 93.1404 247.692C91.407 247.615 89.707 247.578 88.0297 247.578C86.4404 247.578 84.4244 247.668 81.971 247.878C81.487 247.916 81.1097 247.944 80.871 247.944C80.5044 247.944 79.9817 247.955 79.3404 247.996C78.687 248.048 78.243 248.06 77.9937 248.06C76.8937 248.06 76.1164 247.892 75.6644 247.578C75.219 247.248 74.9844 246.699 74.9844 245.927C74.9844 245.274 75.1537 244.711 75.4804 244.266C75.8217 243.823 76.4364 243.339 77.3777 242.799C77.4617 242.747 77.5417 242.724 77.5844 242.68C77.651 242.627 77.7444 242.552 77.8764 242.432C79.6217 241.451 81.0817 240.315 82.219 239.031C83.359 237.763 84.5764 235.655 85.8857 232.763C85.8857 232.726 85.9124 232.659 85.951 232.58C85.999 232.49 86.0804 232.395 86.1844 232.266" fill="#9C9C9C"/>
<path d="M171.964 206.8C171.964 200.964 172.824 195.414 174.567 190.156C176.294 184.881 178.898 179.91 182.366 175.212C186.604 169.545 191.624 165.304 197.388 162.518C203.16 159.716 209.782 158.317 217.255 158.317C220.814 158.317 224.307 158.697 227.763 159.416C231.202 160.162 234.974 161.417 239.055 163.225C240.686 163.825 241.815 164.232 242.416 164.416C243.02 164.585 243.536 164.689 243.95 164.689C244.523 164.689 245.05 164.546 245.534 164.26C246.028 163.968 246.579 163.394 247.194 162.542H247.248C248.148 161.482 248.92 160.946 249.591 160.946C250.236 160.946 250.687 161.262 250.948 161.902C251.224 162.53 251.342 163.814 251.342 165.724C251.342 168.51 251.479 171.27 251.715 174.02C251.971 176.782 252.378 179.802 252.952 183.116C253.071 183.886 253.147 184.541 253.227 185.04C253.292 185.548 253.319 185.966 253.319 186.294V186.909C253.319 187.841 253.187 188.453 252.911 188.742C252.65 189.032 252.166 189.174 251.479 189.174C250.911 189.174 250.386 188.95 249.916 188.508C249.447 188.048 248.831 187.054 248.046 185.497C247.518 184.397 247.09 183.522 246.722 182.905C246.383 182.265 246.051 181.689 245.727 181.152C241.85 175.29 237.576 170.918 232.896 168.08C228.219 165.252 222.974 163.825 217.135 163.825C209.263 163.825 203.06 166.834 198.552 172.854C194.043 178.877 191.787 187.145 191.787 197.678C191.787 202.953 192.507 208.096 193.934 213.146C195.362 218.185 197.363 222.556 199.927 226.273C203.044 230.841 206.411 234.164 210.071 236.216C213.72 238.272 218.03 239.306 223.012 239.306C226.652 239.306 230.255 238.509 233.847 236.886C237.431 235.276 241.175 232.776 245.05 229.386C245.534 228.944 246.051 228.458 246.579 227.933C247.116 227.398 247.783 226.677 248.602 225.789C249.668 224.505 250.471 223.693 251.028 223.292C251.57 222.921 252.131 222.712 252.703 222.712C253.147 222.712 253.514 222.91 253.8 223.261C254.094 223.642 254.227 224.126 254.227 224.744C254.227 225.918 253.471 227.698 251.931 230.029C250.416 232.384 248.464 234.648 246.094 236.805C241.28 241.204 236.164 244.488 230.758 246.621C225.343 248.766 219.426 249.842 212.975 249.842C207.179 249.842 201.982 248.924 197.388 247.12C192.798 245.3 188.622 242.538 184.88 238.822C180.547 234.505 177.316 229.676 175.17 224.376C173.038 219.076 171.964 213.198 171.964 206.8Z" fill="#9C9C9C"/>
<path d="M302.101 246.045L271.372 175.579C271.339 175.537 271.299 175.499 271.273 175.459C271.261 175.419 271.255 175.356 271.255 175.276C271.207 175.147 271.143 175.016 271.063 174.845C269.187 170.8 267.072 168.053 264.704 166.589C264.409 166.417 263.972 166.196 263.38 165.881C262.795 165.568 262.363 165.332 262.073 165.175C260.843 164.848 260.02 164.481 259.584 164.076C259.169 163.656 258.945 163.12 258.945 162.413C258.945 161.652 259.301 161.011 260.02 160.516C260.725 160.031 261.679 159.783 262.871 159.783C263.239 159.783 263.905 159.848 264.879 159.979C265.212 160.017 265.461 160.031 265.62 160.031C265.66 160.084 265.717 160.096 265.8 160.096C269.429 160.501 272.64 160.7 275.409 160.7C277.292 160.7 279.228 160.672 281.232 160.593C283.225 160.501 285.535 160.383 288.141 160.228C288.809 160.177 289.931 160.096 291.568 159.979C293.207 159.848 294.409 159.783 295.18 159.783C296.333 159.783 297.116 159.979 297.551 160.345C297.965 160.7 298.193 161.327 298.193 162.179C298.193 162.911 298.035 163.487 297.725 163.892C297.419 164.297 296.699 164.731 295.552 165.175C295.352 165.293 295.22 165.368 295.156 165.399C295.097 165.411 295.025 165.436 294.944 165.489H294.879C292.107 166.743 290.716 168.472 290.716 170.629C290.716 171.313 290.889 172.265 291.236 173.511C291.591 174.727 292.107 176.127 292.8 177.723L311.407 221.561C311.607 222.047 311.863 222.44 312.168 222.727C312.467 223.016 312.795 223.159 313.123 223.159C313.528 223.159 313.895 223.016 314.22 222.753C314.547 222.491 314.823 222.112 315.017 221.615L332.045 181.768C332.687 180.263 333.188 178.759 333.536 177.292C333.891 175.825 334.057 174.571 334.057 173.511C334.057 171.415 333.524 169.768 332.439 168.511C331.348 167.268 329.648 166.34 327.323 165.724C326.959 165.568 326.472 165.423 325.856 165.293C325.74 165.252 325.629 165.212 325.552 165.175H325.435C322.725 164.533 321.391 163.447 321.391 161.929C321.391 161.196 321.655 160.633 322.185 160.241C322.712 159.861 323.472 159.665 324.508 159.665C324.676 159.665 324.965 159.692 325.395 159.731C325.829 159.769 326.208 159.783 326.52 159.783C326.729 159.823 326.991 159.875 327.323 159.913C331.443 160.373 335.248 160.593 338.705 160.593C340.247 160.593 341.793 160.544 343.297 160.436C344.816 160.332 346.425 160.163 348.141 159.913C348.375 159.913 348.688 159.888 349.055 159.848C349.423 159.811 349.657 159.783 349.731 159.783C350.707 159.823 351.371 160.005 351.724 160.305C352.064 160.621 352.241 161.156 352.241 161.929C352.241 163.2 351.296 164.401 349.423 165.543L349.303 165.607C349.26 165.647 349.132 165.724 348.936 165.856C348.191 166.263 347.629 166.627 347.211 166.953C345.625 168.341 343.652 171.613 341.283 176.744C341.035 177.28 340.857 177.684 340.721 177.972C340.693 178.144 340.627 178.324 340.549 178.508C340.473 178.732 340.327 179.031 340.116 179.437L313.369 238.705C313.287 238.901 313.175 239.148 313.032 239.463C312.885 239.777 312.68 240.209 312.389 240.773C310.596 244.855 309.264 247.432 308.412 248.492C307.549 249.553 306.617 250.088 305.597 250.088C304.899 250.088 304.305 249.813 303.816 249.292C303.324 248.767 302.757 247.668 302.101 246.045Z" fill="#9C9C9C"/>
<path d="M211.182 95.7151C211.055 95.9218 210.951 96.0738 210.85 96.2058C210.278 99.9898 207.791 102.587 204.678 104.408C204.642 104.443 204.61 104.47 204.57 104.495C202.746 105.744 200.958 107.056 199.07 108.199C196.575 109.734 193.793 110.492 190.918 110.928C189.426 111.16 187.966 111.428 186.617 112.196C186.235 112.418 185.761 112.544 185.307 112.598C183.767 112.748 182.254 113.052 180.738 113.348C178.769 113.72 176.795 114.079 174.843 114.498C174.499 114.57 174.123 114.687 173.779 114.73C173.054 115.275 172.229 115.74 171.327 116.086C168.505 117.184 165.626 117.694 162.706 117.844C157.303 118.675 151.858 118.89 146.539 117.888C146.378 117.907 146.218 117.907 146.057 117.934C146.074 117.872 146.099 117.844 146.119 117.799C145.753 117.728 145.383 117.666 145.014 117.586C135.527 120.048 124.489 118.255 116.843 111.786C116.738 111.795 116.63 111.759 116.537 111.651C116.377 111.456 116.206 111.259 116.033 111.063C115.786 110.831 115.533 110.608 115.293 110.367C108.171 103.29 104.907 94.3778 107.783 84.6085C109.75 77.8898 114.087 72.1525 119.137 67.3871C119.306 65.0845 120.645 63.2471 121.773 61.3458C122.161 60.6871 122.885 60.2218 123.501 59.7231C124.186 59.1591 124.626 58.4645 125.089 57.5098C123.954 57.9298 123.321 58.7498 122.259 59.1871C122.374 58.2325 122.805 57.4578 122.737 56.5911C122.725 56.3871 122.931 56.1365 123.135 56.1618C124.313 56.3151 124.554 55.1818 125.17 54.6111C125.51 54.3151 125.821 53.8978 126.15 53.5925C126.069 53.3685 125.939 53.3685 125.821 53.3791C125.651 53.3885 125.462 53.3685 125.419 53.1751C125.367 52.9858 125.51 52.8605 125.675 52.8258C126.015 52.7911 126.337 52.7005 126.615 52.5045C126.99 52.2365 127.353 52.2085 127.775 52.4338C128.518 52.8165 129.211 52.6565 129.907 52.2085C130.031 52.1311 130.169 52.0725 130.295 51.9951C130.295 52.0178 130.298 52.0405 130.298 52.0658C133.975 56.2965 137.57 60.6045 141.543 64.5058C142.451 65.3898 143.165 66.5031 143.629 67.6911C144.155 68.3045 144.699 68.9138 145.255 69.5031C146.333 70.6431 147.466 71.7338 148.687 72.6498C151.079 74.4631 153.549 76.1311 156.015 77.7978C156.379 78.0498 156.649 78.4245 157.049 78.6098C157.853 78.9685 158.437 79.7805 159.243 80.1365C159.318 80.1831 159.385 80.2711 159.449 80.3525C159.822 80.7445 160.245 81.0031 160.722 81.1365C160.937 81.1911 161.154 81.2711 161.342 81.4858C162.054 82.3245 162.845 83.0485 163.855 83.3685C164.022 83.4311 164.153 83.5125 164.259 83.6271C164.286 83.6445 164.314 83.6538 164.341 83.6711C166.383 84.8671 168.434 85.7858 170.459 86.8218C170.414 86.4205 170.479 86.3298 170.878 86.4365C171.594 86.6245 172.281 86.9378 172.941 87.3111C173.235 87.4818 173.505 87.5711 173.833 87.5791C174.413 87.5898 175.027 87.5618 175.599 87.9885C175.651 88.0258 175.733 88.0431 175.797 88.0605C175.831 88.0698 175.877 88.0431 175.931 88.0258C175.925 87.7311 175.69 87.6791 175.518 87.5898C174.062 86.8898 172.643 86.0778 171.117 85.6951C171.078 85.6871 171.027 85.6791 170.987 85.6525C170.825 85.5805 170.561 85.5898 170.585 85.3298C170.614 85.0191 170.89 85.0898 171.11 85.1525C171.275 85.1898 171.407 85.3045 171.541 85.4205C171.967 85.7765 172.441 85.9725 172.941 86.0618C174.405 86.3391 175.797 87.0085 177.169 87.7311C177.606 87.9645 178.062 88.1858 178.506 88.3551C179.787 88.8445 180.906 89.8911 182.266 90.1298C182.481 90.1671 182.695 90.3005 182.894 90.5231C182.674 90.6751 182.457 90.5231 182.266 90.4511C181.311 90.0245 180.331 89.7818 179.362 89.4271C179.05 89.3191 178.754 89.1858 178.543 89.5231C178.419 89.7205 178.178 89.5871 177.999 89.6311C177.89 89.6485 177.774 89.6765 177.774 89.8271C177.774 89.9698 177.875 90.0525 177.982 90.0951C178.571 90.3618 179.158 90.5951 179.749 90.5151C179.999 90.4885 180.221 90.4618 180.469 90.5698C180.691 90.6658 180.906 90.7365 180.959 91.0498C181.025 91.4511 181.283 91.4778 181.525 91.3818C181.942 91.1925 182.31 91.2285 182.638 91.7285C182.763 91.9325 182.998 91.9511 183.197 91.9778C184.153 92.1551 185.11 92.1391 186.058 92.2191C186.289 92.2458 186.561 92.2645 186.643 91.9325C186.645 91.8805 186.725 91.8258 186.789 91.8258C187.537 91.8258 188.146 91.3978 188.922 91.4151C189.537 91.4325 190.199 91.4325 190.767 91.1658C190.785 91.1658 190.805 91.1498 190.805 91.1498C191.938 91.2285 192.678 90.4965 193.551 90.0605C193.59 90.0338 193.622 89.9991 193.622 89.9991C194.515 89.9991 195.369 89.9991 196.225 90.0138C196.351 90.0138 196.442 90.1298 196.438 90.2565C196.431 90.3991 196.333 90.4338 196.219 90.4618C195.634 90.5231 195.05 90.5951 194.457 90.5778C194.265 90.5778 193.97 90.4885 193.97 90.7471C193.97 91.0325 194.265 90.9885 194.457 91.0685C195.245 91.4325 195.941 91.2191 196.611 90.9605C197.138 90.7471 197.671 90.8178 198.227 90.9511C198.574 91.0231 198.778 91.4151 199.083 91.5591C199.295 91.2991 198.77 91.2191 198.955 90.9951C199.083 90.8445 199.186 90.6751 199.343 90.5778C199.619 90.3991 199.791 90.1671 199.894 89.8205C200.045 89.3191 200.761 89.0871 201.302 89.2565C201.914 89.4338 202.489 89.4338 203.047 89.2565C203.213 89.2031 203.375 89.1231 203.286 88.8645C203.185 88.5685 203.375 88.5245 203.543 88.5445C203.757 88.5685 203.777 88.7658 203.75 88.9351C203.741 89.0511 203.659 89.1498 203.722 89.3285C204.427 89.4071 204.89 88.7845 205.578 88.8911C205.567 88.5685 205.326 88.3738 205.266 88.0965C205.578 87.9178 205.898 87.7578 206.247 87.6858C206.495 87.6325 206.726 87.5351 206.977 87.8725C207.153 88.1045 207.434 88.0605 207.65 87.8991C207.722 87.8445 207.807 87.8645 207.869 87.9725C207.925 88.0778 207.914 88.1858 207.829 88.2205C207.425 88.4098 207.153 88.8191 206.718 88.9431C206.415 89.0431 206.211 89.2391 206.059 89.5151C206.242 89.7391 206.409 89.6578 206.553 89.5951C206.793 89.5058 207.025 89.3818 207.237 89.2645C207.682 89.0325 207.682 89.0325 207.885 89.5951C207.945 89.8005 208.067 89.8911 208.245 89.8911C208.497 89.8911 208.689 89.7458 208.665 89.4871C208.629 89.1231 208.514 88.7845 208.691 88.4618C208.757 88.3645 208.629 88.2045 208.514 88.0871C208.175 87.7311 208.183 87.6511 208.503 87.4365C208.526 87.4285 208.545 87.4191 208.567 87.4085C208.913 87.1871 208.913 87.1871 208.487 86.7591C208.949 86.6338 209.291 86.2871 209.838 86.2418C209.782 86.5085 209.678 86.6591 209.479 86.7045C209.263 86.7391 209.181 86.8818 209.299 87.1151C209.403 87.3565 209.619 87.3298 209.763 87.2485C210.023 87.0978 210.331 87.0778 210.601 86.9645C210.931 86.8125 211.281 86.8471 211.654 86.8125C211.626 87.6591 210.842 87.7738 210.45 88.4005C210.83 88.4271 211.055 88.3551 211.297 88.2858C211.443 88.2471 211.566 88.2125 211.743 88.2578C212.202 88.3818 212.359 88.3258 212.483 87.8991C212.563 87.6245 212.646 87.5351 212.922 87.6058C213.099 87.6405 213.274 87.5978 213.367 87.4085C213.397 87.3565 213.415 87.2765 213.475 87.2485C213.926 87.0525 214.245 86.7258 214.538 86.3338C214.138 89.7205 212.931 92.8205 211.182 95.7151ZM113.721 65.3898C113.749 66.7271 113.053 67.7005 112.686 69.0738C112.257 67.7631 112.739 66.2085 113.721 65.3898ZM116.183 68.0205C116.359 67.7898 116.622 67.5578 116.514 67.2551C116.059 65.9778 117.049 65.1471 117.442 64.1378C117.577 63.8085 117.861 63.5338 118.075 63.2378C117.861 64.4071 118.378 65.5845 117.911 66.7898C117.567 67.6631 116.853 68.2631 116.522 69.1178C116.438 69.3405 116.166 69.3045 115.979 69.1711C115.818 69.0551 115.667 68.8511 115.765 68.6365C115.866 68.4231 116.033 68.2258 116.183 68.0205V68.0205ZM117.074 59.3391C117.797 59.3658 118.199 58.9111 118.658 58.5098C118.842 58.3578 119.038 58.1271 119.302 58.3031C119.574 58.4645 119.645 58.7605 119.565 59.0538C119.431 59.5338 117.721 60.9178 117.199 60.9458C116.809 60.8911 116.255 61.0418 116.166 60.3925C116.086 59.8391 116.495 59.3138 117.074 59.3391ZM120.403 60.6871C120.543 60.6591 120.635 60.7218 120.69 60.8471C120.709 60.9805 120.662 61.0965 120.543 61.1418C120.361 61.2045 120.198 61.1418 120.181 60.9458C120.163 60.8111 120.281 60.7218 120.403 60.6871V60.6871ZM129.522 19.6338C131.391 16.4645 134.306 14.4151 137.418 12.8258C137.583 12.5765 137.839 12.4338 138.061 12.2551C138.711 11.7458 139.543 11.6471 140.329 11.4698C140.827 11.3551 141.13 11.0058 141.523 10.7551C141.947 10.4965 142.573 10.7898 142.997 10.4965C143.827 9.9178 144.859 10.0071 145.842 9.9178C146.145 9.8898 146.378 9.81914 146.405 9.45247C146.423 9.33647 146.441 9.21247 146.498 9.13247C146.678 8.87381 146.966 8.94447 147.091 9.30181C147.178 9.54314 147.305 9.59513 147.49 9.63113C147.806 9.68447 148.091 9.6138 148.358 9.51513C148.59 9.4258 148.817 9.3298 149.081 9.31113C149.225 9.29247 149.358 9.3018 149.474 9.3298C151.365 9.0978 153.338 9.21247 155.283 9.4898C157.713 9.81914 160.165 10.4271 162.557 11.3365C162.779 11.4325 163.01 11.5231 163.225 11.6125H163.241C163.786 11.7831 164.385 11.7111 164.883 12.1845C165.026 12.3178 165.193 12.3978 165.365 12.4525C166.295 12.7631 167.131 13.3698 168.015 13.8258C169.077 14.3685 170.005 15.3685 171.197 15.4938C171.262 15.5031 171.334 15.5551 171.386 15.6031C171.862 15.9925 172.402 16.2965 172.817 16.7978C172.959 16.9738 173.134 17.0725 173.315 17.1871C174.242 17.7885 175.181 18.3578 175.797 19.4285C175.945 19.7058 176.197 19.9818 176.49 19.9551C177.018 19.8951 177.297 20.2071 177.545 20.6778C177.801 21.1591 178.171 21.5445 178.61 21.8378C179.035 22.1138 179.542 22.2138 179.811 22.7578C179.829 22.8125 179.935 22.8725 179.979 22.8538C180.562 22.7191 180.849 23.2298 181.175 23.6391C181.611 24.1658 182.071 24.6551 182.702 24.8805C182.87 24.9431 183.038 25.0231 183.182 25.1578C183.509 25.4685 183.873 25.6738 184.282 25.6911C184.498 25.7018 184.679 25.8098 184.762 26.0311C184.889 26.2991 185.082 26.6111 185.061 26.8445C184.994 27.2725 185.226 27.4591 185.489 27.6751C185.707 27.8605 185.93 28.0471 186.154 28.2285C186.511 28.5125 186.765 28.8231 186.715 29.3151C186.689 29.5831 186.753 29.7711 187.093 29.6178C187.294 29.5285 187.614 29.6618 187.617 29.2525C187.629 29.1351 187.759 29.1991 187.837 29.2165C188.107 29.2805 188.355 29.3405 188.529 29.6445C188.679 29.9125 188.911 30.0898 189.163 30.2071C189.667 30.4391 190.065 30.7871 190.265 31.3658C190.349 31.5991 191.161 31.9925 191.241 31.8485C191.349 31.6258 191.627 31.5631 191.615 31.2231C191.591 30.9111 191.813 30.7325 192.069 30.6978C192.357 30.6618 192.639 30.7325 192.847 31.0378C193.194 31.5631 193.577 32.0365 194.071 32.4098C194.213 32.5178 194.389 32.6538 194.377 32.8671C194.314 32.9738 194.229 32.9378 194.139 32.9298C193.97 32.8938 193.739 32.7858 193.702 33.0178C193.658 33.2591 193.855 33.4191 194.041 33.5178C194.121 33.5605 194.219 33.6151 194.302 33.6151C194.613 33.6338 194.899 33.7405 195.183 33.8925C195.298 33.9551 195.423 33.9751 195.545 33.9751C194.011 34.3471 192.526 34.9098 191.053 35.5511C190.703 35.7045 190.318 35.9711 189.997 35.7738C189.202 35.3005 188.297 35.0885 187.509 34.6591C186.873 34.3031 186.263 34.0258 185.539 34.0071C184.602 33.9991 183.703 33.9378 182.87 33.4645C182.515 33.2591 182.023 33.0885 181.674 33.3658C180.793 34.0991 179.774 33.9098 178.803 33.8111C177.774 33.6951 176.625 33.6431 175.797 33.0631C173.861 31.7071 171.941 32.6885 170.014 32.8591C168.734 33.7231 167.21 33.5605 165.799 33.8831C165.477 33.9551 165.177 33.8658 164.911 33.5605C164.13 32.6791 163.891 32.6791 162.738 33.3831C162.685 33.7231 163.374 33.5005 163.159 33.9991C161.999 34.2498 160.851 34.5351 159.601 34.5165C158.165 34.4898 156.71 34.2498 155.261 34.6151C154.631 34.7751 154.086 34.8551 153.829 35.5951C153.623 36.1938 151.858 36.6925 151.525 36.2551C150.731 35.1671 149.894 35.6858 148.965 35.9551C147.627 36.3298 146.414 36.9791 145.165 37.5498C144.627 37.7925 144.075 37.9418 143.505 38.0951C142.587 38.3271 141.622 38.4591 140.797 39.0058C138.874 40.2898 136.821 41.2431 134.527 41.6898C133.914 41.8151 133.306 41.9591 132.685 42.0538C132.335 42.1245 132.029 42.2258 131.795 42.4125C131.762 42.3258 131.725 42.2351 131.717 42.1365C131.69 41.7258 131.513 41.3525 131.334 40.9765C130.991 40.2631 130.709 39.5498 130.611 38.7738C130.477 37.7471 130.31 36.7125 130.146 35.6858C129.951 35.4005 129.774 35.1045 129.629 34.7858C129.622 35.3818 129.702 35.9445 129.57 36.4791C129.269 36.1325 129.257 35.8005 129.247 35.4805C129.247 35.0618 129.139 34.6511 128.947 34.2391C128.711 33.7231 128.586 33.1871 128.533 32.6418C128.514 32.4205 128.518 32.2151 128.425 32.0085C128.211 31.5631 128.238 31.1271 128.282 30.6885C128.291 30.6365 128.301 30.5818 128.31 30.5391C127.453 26.6658 127.614 22.8725 129.522 19.6338V19.6338ZM130.419 7.28447C131.013 6.66047 131.869 6.4378 132.494 5.84847C132.593 5.75913 132.807 5.66181 133.039 5.78581C132.486 6.32181 128.675 9.0778 128.381 9.10447C129.015 8.43647 129.782 7.94581 130.419 7.28447V7.28447ZM135.938 5.03647C136.294 4.88447 136.67 4.77781 137.009 4.61781C137.214 4.53647 137.411 4.42981 137.179 4.10047C137.071 3.93914 137.133 3.8138 137.273 3.77114C137.366 3.73514 137.541 3.73514 137.57 3.85914C137.723 4.42981 138.053 4.22314 138.313 4.17114C138.817 4.06447 139.319 3.90313 139.811 3.77913C139.686 4.06447 139.462 4.17913 139.211 4.22313C138.554 4.3498 137.955 4.59114 137.35 4.84047C136.059 5.36714 134.731 5.78581 133.537 6.50847C132.629 7.05247 131.743 7.62447 130.755 8.23114C130.91 7.9098 131.093 7.8018 131.263 7.68713C132.763 6.68713 134.289 5.7418 135.938 5.03647ZM139.657 3.18047C139.363 3.60714 138.849 3.45781 138.422 3.52714C138.817 3.35781 139.158 3.0818 139.657 3.18047ZM191.549 30.3231C191.133 30.8591 191.009 30.7871 190.563 29.7351C190.911 30.0898 191.247 30.1165 191.549 30.3231ZM190.33 26.7978C190.395 26.6818 190.519 26.7191 190.621 26.7711C190.946 26.9605 191.258 27.1565 191.627 27.1831C191.749 27.1911 191.894 27.3965 192.001 27.5205C192.106 27.6365 192.175 27.7898 192.106 27.9231C192.027 28.0845 191.874 28.0658 191.598 27.9325C191.286 27.7365 190.918 27.3525 190.463 27.1565C190.349 27.1125 190.238 26.9405 190.33 26.7978V26.7978ZM193.222 28.6551C192.982 28.6458 192.795 28.5378 192.599 28.3778C192.927 28.3245 192.927 28.3245 193.222 28.6551ZM195.65 28.1365C196.297 28.1285 196.93 27.9685 197.598 28.1551C197.709 28.1911 197.825 28.2431 197.915 28.3058C198.055 28.3871 198.102 28.5285 198.055 28.6805C197.903 29.1191 196.95 29.5205 196.515 29.2605C196.237 29.0911 195.977 28.8711 195.689 28.7085C195.542 28.6365 195.469 28.4485 195.457 28.2791C195.486 28.1738 195.567 28.1365 195.65 28.1365V28.1365ZM200.217 28.9498C200.362 29.0205 200.518 28.9391 200.643 28.8511C200.811 28.7178 201.014 28.7271 201.205 28.8605C201.535 29.0751 201.821 29.1991 202.063 28.8418C202.143 28.7271 202.311 28.8418 202.445 28.8778C203.366 29.1098 204.214 29.5925 205.079 30.0551C205.222 30.1365 205.374 30.2151 205.541 30.5618C204.214 30.1365 202.975 30.0111 201.75 29.7778C200.531 29.5565 199.309 29.4231 198.102 29.2525C198.081 29.1991 198.081 29.1445 198.078 29.0911C198.815 29.1711 199.414 28.6018 200.217 28.9498ZM206.563 35.0618C206.621 35.1098 206.677 35.1631 206.735 35.2125C206.698 35.2045 206.658 35.1631 206.621 35.1671C205.558 35.2685 204.711 34.6151 203.757 34.3818C203.635 34.3511 203.517 34.3165 203.397 34.2831C203.75 34.2898 204.105 34.3338 204.471 34.4898C204.613 34.5431 204.774 34.6058 204.917 34.6151C205.131 34.6431 205.169 34.5245 205.069 34.3111C204.937 34.0258 204.711 33.9378 204.471 33.8551C204.186 33.7658 203.909 33.6951 203.635 33.5898C203.491 33.5351 203.321 33.4191 203.385 33.2138C203.443 33.0431 203.606 33.0431 203.767 33.1165C203.954 33.1951 204.186 33.2685 204.31 33.4191C204.579 33.7231 204.937 33.8285 205.222 34.0711C205.659 34.4191 206.361 34.2925 206.563 35.0618V35.0618ZM209.279 34.3031C209.61 34.5431 209.919 34.8378 210.181 35.1671C210.506 35.5605 210.789 35.9618 211.281 36.2031C211.133 36.3725 210.995 36.3378 210.925 36.2471C210.506 35.7378 209.949 35.4378 209.467 35.0258C209.318 34.8991 209.182 34.7405 209.047 34.5978C208.987 34.5165 208.941 34.4271 208.994 34.3378C209.067 34.2125 209.182 34.2298 209.279 34.3031V34.3031ZM211.859 37.3765C211.619 37.2298 211.386 37.0631 211.142 36.9498C211.174 36.8711 211.197 36.8071 211.254 36.6418C211.465 36.8978 211.658 37.1431 211.859 37.3765ZM196.823 30.5738C196.931 30.5005 196.975 30.4205 197.026 30.4205C197.735 30.4738 198.405 30.3685 199.127 30.4738C199.653 30.5551 200.19 30.5738 200.702 30.5911C201.302 30.6085 201.302 30.5111 201.786 30.7698C201.355 30.8951 197.358 30.7591 196.823 30.5738ZM197.245 31.8925C197.667 32.0458 198.078 32.0085 198.486 31.9925C199.431 31.9298 200.385 31.8378 201.377 32.3298C201.274 32.5618 201.367 32.9898 201.093 32.9538C200.142 32.8298 199.182 33.0525 198.227 32.3218C198.179 32.6538 197.974 32.9831 197.742 32.7778C197.289 32.3671 197.03 32.4911 196.629 32.6885C196.398 32.8031 196.003 32.7151 195.65 32.7231C195.621 32.4018 195.897 32.4018 195.879 32.2778C195.833 31.7151 196.219 31.8231 196.515 31.7951C196.755 31.7698 197.002 31.8138 197.245 31.8925V31.8925ZM202.074 32.4471C202.09 32.2058 202.171 32.1071 202.398 32.1711C202.774 32.2778 203.134 32.4205 203.375 32.9631C202.966 32.9378 202.65 32.9378 202.33 32.8845C202.099 32.8591 202.063 32.6685 202.074 32.4471ZM155.915 42.4125C155.163 43.1538 154.422 43.0285 153.71 42.9751C153.629 42.9671 153.525 42.8151 153.509 42.7071C153.489 42.5565 153.651 42.5111 153.757 42.4951C154.411 42.4045 155.046 42.3325 155.915 42.4125ZM175.543 39.3445C175.535 39.0925 175.733 39.0151 176.09 39.0151C176.185 39.0151 176.375 39.0858 176.369 39.3445C176.355 39.5671 176.186 39.6805 175.959 39.6805C175.733 39.6925 175.555 39.5578 175.543 39.3445ZM177.413 43.7258C176.778 43.6711 176.317 43.6165 175.706 43.3138C176.407 43.1191 176.874 43.1978 177.413 43.7258ZM178.587 40.5125C178.641 40.8591 178.526 41.0285 178.291 41.0645C177.971 41.1111 177.697 41.0125 177.615 40.6645C177.545 40.3698 177.697 40.1725 177.989 40.1378C178.346 40.0765 178.479 40.3431 178.587 40.5125ZM188.127 36.4445C188.162 36.3538 188.171 36.2925 188.189 36.2831C188.431 36.1391 188.677 35.8911 188.949 36.2031C188.991 36.2551 188.955 36.4711 188.895 36.5338C188.599 36.7845 188.377 36.5618 188.127 36.4445V36.4445ZM188.021 38.6125C187.19 39.0578 186.502 39.6485 185.862 40.2991C185.458 40.7005 185.129 40.6645 184.646 40.3965C183.993 40.0565 183.354 39.8338 183.555 38.8885C183.649 38.4338 183.246 38.2205 182.87 38.1218C182.474 38.0151 182.057 37.9071 181.639 37.8978C180.798 37.8898 179.979 37.8005 179.158 37.6391C178.803 37.5671 178.419 37.5498 178.09 37.8525C178.265 38.2458 178.598 38.2551 178.917 38.2911C179.409 38.3538 179.907 38.4045 180.417 38.4498C180.589 38.4591 180.754 38.5045 180.819 38.6831C180.894 38.9071 180.685 38.9231 180.562 39.0311C180.221 39.3338 180.301 39.9325 180.691 40.0845C180.927 40.1725 181.069 40.0205 181.203 39.8525C181.533 39.4071 181.911 39.5671 182.138 39.8791C182.747 40.7271 183.621 40.9058 184.549 41.0031C185.199 41.0645 185.519 41.3778 185.539 42.0298C185.598 43.4578 185.994 44.7965 186.538 46.1005C184.859 45.7058 183.167 45.3138 181.487 44.9031C181.237 44.8485 180.987 44.7778 180.783 44.6431C180.413 44.4125 180.441 44.0458 180.757 43.8231C181.169 43.5191 181.647 43.3671 182.138 43.7431C182.937 44.3298 183.703 44.3151 184.511 43.6991C184.985 43.3325 185.047 43.1631 184.511 42.8778C184.229 42.7151 183.878 42.5378 183.577 42.5565C182.103 42.6618 181.15 41.5551 180.003 40.9765C179.522 40.7271 178.965 39.9871 179.259 39.1565C179.349 38.8965 179.193 38.7645 178.99 38.6911C178.598 38.5685 178.186 38.3538 177.789 38.3698C176.726 38.4165 175.867 37.8711 174.978 37.4778C173.517 36.8618 172.121 37.0338 170.693 37.4431C169.859 37.6845 169.034 37.4885 168.23 37.4258C165.799 37.2458 163.421 37.3725 160.991 37.7218C159.173 37.9778 157.314 38.2551 155.435 38.1311C156.123 37.7018 156.918 37.6058 157.663 37.5325C159.065 37.3885 160.286 36.7205 161.617 36.3991C161.822 36.3538 162.011 36.2298 162.217 36.2031C164.723 35.8471 167.239 35.5791 169.773 35.4525C171.986 35.3378 174.19 35.4258 176.397 35.2578C176.698 35.2311 176.974 35.3005 177.257 35.3631C177.577 35.4525 177.907 35.5871 178.231 35.5791C180.389 35.4711 182.443 36.1391 184.549 36.4085C185.702 36.5618 186.805 36.9885 187.886 37.4618C188.626 37.7925 188.686 38.2458 188.021 38.6125V38.6125ZM147.191 38.1925C147.305 38.0311 147.423 37.8618 147.669 37.9151C147.831 38.1125 147.725 38.3005 147.627 38.4591C147.506 38.6645 147.331 38.9231 147.063 38.7098C146.887 38.5591 147.063 38.3445 147.191 38.1925V38.1925ZM137.037 44.1805C137.037 44.1511 137.143 44.0738 137.214 44.0551C137.366 44.0098 137.526 43.9831 137.651 44.1338C137.651 44.2791 137.526 44.3151 137.418 44.3231C137.273 44.3391 137.097 44.3845 137.037 44.1805V44.1805ZM187.083 85.5805C186.251 85.4285 185.411 85.5445 184.593 85.0285C185.418 85.1898 186.251 85.4205 187.083 85.5805ZM190.509 85.6525C190.349 85.7418 190.171 85.8325 189.877 85.6071C190.145 85.5631 190.33 85.6071 190.509 85.6525ZM207.451 80.1631C207.363 80.2098 207.246 80.2178 207.138 80.1831C206.773 80.3791 206.39 80.5311 205.951 80.6111C205.829 80.6271 205.747 80.7445 205.659 80.8338C205.195 81.3151 204.53 81.3698 203.919 81.4058C203.517 81.4231 203.234 81.5485 202.954 81.7445C202.841 81.8245 202.749 81.9498 202.607 81.9925C201.581 82.3591 200.491 82.4845 199.389 82.5565C198.598 82.6098 197.809 82.5818 197.026 82.6351C196.237 82.6898 195.486 82.9925 194.63 82.6991C193.938 82.4671 193.327 82.8578 192.633 82.8165C191.294 82.7258 189.957 82.6898 188.626 82.5911C185.689 82.3858 182.763 81.7711 179.907 80.4058C179.435 80.1831 178.953 79.9938 178.475 79.7351C177.615 79.2805 176.742 78.8538 175.857 78.4605C174.206 77.7285 172.521 77.1311 170.869 76.3818C167.21 75.5805 162.966 73.0631 160.126 69.9845C158.867 69.1351 157.619 68.2631 156.389 67.3685C155.39 66.6458 154.438 65.8351 153.367 65.2365C153.185 65.1378 153.009 64.9951 152.854 64.8538C151.938 63.9165 150.882 63.1578 149.894 62.3365C148.39 61.0791 147.091 59.5258 145.515 58.3658C145.182 58.1178 144.923 57.7258 144.602 57.4391C143.558 56.5098 142.603 55.4845 141.657 54.4338C141.489 54.2351 141.361 54.0298 141.377 53.7818C140.949 53.3791 140.523 52.9778 140.105 52.5685C140.025 52.6031 139.937 52.5685 139.805 52.4591C139.606 52.2805 139.415 52.0858 139.267 51.8605C139.17 51.7285 139.075 51.5858 138.971 51.4431C138.766 51.2285 138.554 51.0045 138.341 50.7911C138.313 50.7738 138.302 50.7471 138.266 50.7365C138.125 50.6485 138.034 50.5311 137.991 50.4151C137.666 50.0738 137.378 49.6885 137.062 49.3418C137.291 49.2698 137.53 49.2085 137.759 49.1325C139.015 48.7111 140.266 48.2925 141.543 47.9271C143.389 47.4005 145.246 46.8738 147.099 46.3925C147.642 46.2405 148.198 46.0711 148.919 46.3031C147.913 47.1778 146.637 47.0791 145.655 47.7578C148.262 47.9098 150.661 47.1525 153.097 46.5898C156.487 45.8031 159.922 45.4298 163.402 45.3831C166.411 45.3485 169.397 45.6165 172.397 45.7231C173.921 45.7765 175.474 46.1058 176.946 46.5338C179.259 47.2045 181.639 47.2938 183.979 47.7325C184.821 47.8831 185.385 47.3205 186.058 46.9911C186.413 46.8218 186.634 46.5698 186.591 46.1711C187.438 46.5698 187.919 47.1951 188.277 48.1311C188.759 49.4005 189.473 50.6311 190.481 51.6125C190.685 51.8191 190.97 51.9778 191.086 52.2365C192.119 54.3058 194.139 55.2978 195.879 56.6005C196.119 56.7858 196.375 56.9485 196.375 57.2698C196.378 58.3578 197.147 58.8298 197.986 59.1165C199.689 59.7045 201.198 60.6685 202.814 61.4365C203.865 61.9351 204.462 62.9711 205.122 63.8711C206.901 66.2551 208.351 68.8151 209.635 71.5098C210.45 73.2005 211.106 74.9671 212.063 76.5965C211.99 76.6805 211.899 76.7525 211.831 76.8431C211.395 77.4445 210.721 77.7018 210.273 78.2805C210.233 78.3351 210.126 78.3351 210.045 78.3711C209.977 78.3898 209.933 78.3898 209.878 78.4058C209.145 79.0938 208.334 79.7098 207.451 80.1631V80.1631ZM198.022 90.0525C197.833 90.2031 197.611 90.2285 197.358 90.1298C197.358 90.1298 197.333 90.0951 197.245 90.0071C197.466 89.8351 197.666 89.6938 197.958 89.8738C198.011 89.9165 198.066 90.0245 198.022 90.0525V90.0525ZM199.467 89.7738C199.211 90.0071 198.977 90.1298 198.61 89.8818C198.853 89.5698 199.117 89.5871 199.467 89.7738V89.7738ZM208.141 86.9831C207.942 87.2218 207.753 87.2765 207.469 87.2765C207.625 86.9991 207.779 86.9178 208.141 86.9831V86.9831ZM207.299 83.2431C207.057 83.5818 206.695 83.7698 206.523 84.1885C206.487 84.2778 206.373 84.3578 206.283 84.3778C205.829 84.4285 205.455 84.7071 204.971 84.6698C204.671 84.6365 204.419 84.6778 204.239 84.9565C204.133 85.1005 203.999 85.1445 203.803 84.9111C203.599 84.6525 203.314 84.6778 203.205 84.9298C203.047 85.2671 202.746 85.3391 202.482 85.4991C201.793 85.9111 200.973 85.8231 200.207 85.9365C199.949 85.9818 199.673 85.8471 199.538 85.5631C199.431 85.3298 199.321 85.3298 199.162 85.3485C198.439 85.4645 197.709 85.5631 196.993 85.6951C196.058 85.8845 195.086 85.8125 194.139 85.9018C193.453 85.9631 192.741 85.8471 192.042 85.8845C191.57 85.9111 191.053 85.9911 190.563 85.6605C190.703 85.5538 190.877 85.5631 191.047 85.5631C192.174 85.5191 193.313 85.4725 194.442 85.4645C195.621 85.4471 196.798 85.4005 197.958 85.2511C198.797 85.1445 199.591 84.9191 200.41 84.7685C201.979 84.4565 203.491 84.0018 204.989 83.5191C205.525 83.3405 206.114 83.2885 206.613 83.0018C207.186 82.6725 207.871 82.6178 208.422 82.2431C208.523 82.1711 208.665 82.0485 208.867 82.2245C208.706 82.4578 208.611 82.7765 208.274 82.7351C207.807 82.6725 207.535 82.9311 207.299 83.2431ZM126.363 14.2351C126.15 14.5205 125.918 14.8071 125.667 15.0658C125.263 15.4938 124.687 15.7525 124.509 16.4045C124.357 16.9125 124.071 17.2258 123.41 17.0378C123.455 16.4045 123.491 15.8071 124.231 15.7351C124.442 15.7151 124.562 15.5298 124.617 15.3231C124.705 14.9925 124.822 14.7085 125.134 14.5485C125.27 14.4778 125.321 14.2538 125.41 14.1018C125.498 13.9485 125.57 13.7818 125.659 13.6285C125.821 13.3698 126.069 13.4418 126.302 13.6191C126.561 13.8165 126.525 14.0298 126.363 14.2351V14.2351ZM122.135 17.8405C121.821 17.5365 121.935 17.3485 122.026 17.1525C122.225 16.7245 122.422 16.3151 122.591 15.8778C123.019 14.8165 123.697 13.9698 124.527 13.2645C123.697 14.7525 122.483 15.9671 122.135 17.8405V17.8405ZM239.794 97.7685C239.727 95.9925 239.869 94.1818 239.154 92.4685C238.707 91.3885 238.485 90.2178 238.031 89.1498C237.566 88.0778 237.011 87.0085 236.157 86.2151C235.497 85.6071 235.095 84.9565 234.954 84.0978C234.594 82.1631 234.197 80.2445 233.158 78.5311C232.899 78.1031 232.713 77.6125 232.595 77.1405C231.535 72.8925 229.594 68.9858 228.115 64.8978C227.409 62.9258 226.694 60.9525 226.173 58.9191C226.179 57.7645 226.183 56.6191 226.045 55.4485C226.011 55.1018 225.977 54.7711 225.795 54.4498C225.655 54.2071 225.583 53.9418 225.549 53.6645C225.451 53.0045 225.185 52.3991 224.789 51.8458C224.553 51.5138 224.389 51.1485 224.245 50.7738C223.771 49.5418 223.049 48.3898 222.741 47.1071C222.677 46.8671 222.543 46.6618 222.413 46.4378C221.987 45.7671 221.695 45.0458 221.39 44.3298C221.185 43.8405 220.938 43.3951 220.667 42.9405C219.771 41.4751 219.015 39.9511 218.265 38.4045C218.213 38.3005 218.177 38.1311 218.091 38.0858C217.506 37.7471 217.133 37.1138 216.579 36.7031C215.999 36.2738 215.33 35.9005 214.915 35.1951C215.285 36.5338 216.509 37.3191 217.119 38.7005C216.517 38.2911 216.179 37.8525 215.839 37.4085C215.378 36.8005 214.829 36.3085 214.278 35.8205C214.006 35.5698 213.765 35.3205 213.586 34.9631C213.322 34.4191 212.985 33.9178 212.743 33.3565C212.662 33.1871 212.501 33.0431 212.377 32.8845C212.171 32.6258 211.911 32.4471 211.654 32.2778C211.414 32.1071 211.458 31.7151 211.119 31.5191C211.075 31.8831 211.174 32.2058 211.287 32.5258C211.443 32.9738 211.599 33.4191 211.751 33.8658C211.801 33.9925 211.859 34.1231 211.771 34.2031C211.663 34.3111 211.491 34.2578 211.395 34.1685C211.147 33.9551 210.85 33.7591 210.753 33.3831C210.654 33.0178 210.431 32.7045 210.19 32.4205C209.838 32.0178 209.717 31.9725 209.451 32.3405C209.307 32.5258 209.21 32.5098 209.019 32.4205C208.431 32.1338 208.049 31.6791 207.966 31.0111C207.933 30.7418 207.887 30.5391 207.615 30.4111C207.542 30.3845 207.469 30.2698 207.442 30.1885C207.219 29.5378 206.669 29.2978 206.205 28.9658C205.631 28.5658 205.045 28.1738 204.427 27.8685C203.722 27.5111 202.99 27.3338 202.251 27.2445C202.037 27.2178 201.818 27.2098 201.594 27.1565C200.217 26.8525 198.842 26.5405 197.466 26.2991C196.357 26.1018 195.245 25.9058 194.139 25.7991C193.685 25.7538 193.211 25.5138 192.847 25.1045C192.679 24.8978 192.518 24.7098 192.265 24.7725C191.878 24.8538 191.542 24.6298 191.27 24.3538C190.999 24.0871 190.725 23.9258 190.41 23.8978C189.661 23.8551 189.046 23.3191 188.394 22.9445C186.865 22.0898 185.474 20.9551 184.195 19.6605C184.007 19.4645 183.77 19.2938 184.007 19.0005C184.127 18.8498 183.993 18.6338 183.926 18.4471C183.718 17.8685 183.326 17.4111 182.998 16.9031C182.763 16.5378 182.594 16.1898 182.519 15.7431C182.399 14.9685 181.855 14.3951 181.258 13.9765C180.598 13.5231 180.059 12.9591 179.57 12.3178C179.239 11.8885 178.835 11.6125 178.346 11.4605C177.881 11.3191 177.437 11.0951 176.979 11.2725C176.846 11.3191 176.731 11.2471 176.618 11.1298C175.963 10.5698 175.311 10.0071 174.654 9.45247C174.17 9.03381 173.622 8.70313 173.073 8.44447C172.449 8.1418 171.846 7.80181 171.262 7.40981C170.767 7.08981 170.255 6.88447 169.713 6.78447C169.013 6.66047 168.361 6.36447 167.702 5.99114C166.579 5.34047 165.403 4.89514 164.185 4.85781C163.797 4.84981 163.429 4.76047 163.095 4.44847C162.903 4.44847 162.685 4.44847 162.474 4.42981C161.574 4.34981 160.738 4.07914 159.922 3.73514C158.034 3.2258 156.147 2.71647 154.255 2.20847C154.106 2.22581 153.951 2.27113 153.81 2.35247C153.602 2.47513 153.417 2.33113 153.327 2.0738C153.319 2.0298 153.302 1.97647 153.293 1.93114C152.481 1.67381 151.625 1.30714 150.771 0.977802C150.29 0.959135 149.813 0.959135 149.349 0.941801V1.01247C149.349 1.6378 149.225 1.74447 148.67 1.54047C147.77 1.20047 146.854 1.05647 145.95 1.01247C145.27 0.977803 144.571 0.941808 143.969 1.22581C143.434 1.47514 142.835 1.66447 142.254 1.6818C141.113 1.7338 140.05 2.0818 138.937 2.1978C138.735 2.21647 138.577 2.33114 138.422 2.44047C137.867 2.82447 137.329 3.25247 136.519 2.93914C136.215 2.82447 135.91 2.97381 135.643 3.10047C134.957 3.43114 134.289 3.77914 133.611 4.1258C133.369 4.26047 133.194 4.52047 132.93 4.59113C132.318 4.7778 131.817 5.18847 131.245 5.44714C130.861 5.63381 130.433 5.80447 130.121 6.09914C129.71 6.49247 129.273 6.82181 128.827 7.13381C128.489 7.37381 128.185 7.67913 127.898 7.9978C127.481 8.47247 127.071 8.69381 126.589 8.63247C123.377 12.2551 120.774 17.4485 121.038 22.5525C121.105 24.0765 120.601 25.5405 119.709 26.5311C119.709 26.5405 119.718 26.5658 119.709 26.5845C119.59 27.4245 119.941 28.2538 120.091 29.0831C120.323 30.4111 120.662 31.7338 120.967 33.0525C121.063 33.4925 121.01 33.9378 121.185 34.3551C121.673 35.4978 121.885 36.6845 122.169 37.8525C122.314 38.4338 122.422 38.9965 122.449 39.5831C122.478 40.1858 122.667 40.7978 123.214 41.2178C123.447 41.3965 123.554 41.6298 123.606 41.9231C123.647 42.1978 123.794 42.4045 124.057 42.5378C124.489 42.7765 124.849 43.1978 125.321 43.3591C125.517 43.4218 125.625 43.6818 125.722 43.8845C126.31 45.0111 126.983 46.0831 127.678 47.1418C126.826 48.4418 125.431 49.1045 124.294 50.0605C124.079 50.2458 123.785 50.2725 123.59 50.1311C122.671 49.4525 122.161 49.8818 121.743 50.7205C121.635 50.9258 121.377 51.0485 121.173 51.2018C120.967 51.3538 120.789 51.5138 120.682 51.7631C120.494 52.2085 120.623 52.3871 121.185 52.4071C121.329 52.4071 121.493 52.2565 121.591 52.6658C120.395 53.4685 119.439 54.6178 118.343 55.6445C117.967 55.9858 117.45 56.5018 116.871 55.7618C116.711 55.5645 116.407 55.6645 116.194 55.8231C115.746 56.1538 115.353 56.5285 115.21 57.0831C115.122 57.4658 115.014 57.8138 114.722 58.0885C113.502 59.1698 112.961 60.6871 112.197 62.0711C111.241 63.7831 110.325 65.5125 109.33 67.1991C109.097 67.5925 108.959 67.7898 108.794 67.8671C108.331 68.8591 107.707 69.7965 106.891 70.6178C106.475 71.5098 106.071 72.3925 105.61 73.2578C104.791 74.8298 103.951 76.1858 103.003 77.4445C103.067 78.2098 103.095 78.9685 103.138 79.7271C103.15 80.0565 102.881 80.1218 102.621 80.1725C101.319 80.3978 100.807 81.4325 100.382 82.4751C100.114 83.1445 100.373 83.8311 100.85 84.3231C101.13 84.6178 101.234 84.7765 101.015 85.1445C100.098 86.7765 99.9272 88.6151 99.6419 90.4085C99.5605 90.9165 99.5339 91.3885 99.0539 91.7125C98.5085 92.0845 98.5165 92.5831 98.6859 93.1565C99.0979 94.6018 99.2565 96.0925 99.6952 97.5365C100.07 98.8125 99.8552 99.7311 99.0872 100.526C101.247 104.087 102.354 107.94 104.299 111.714C104.71 112.518 105.161 113.294 105.602 114.088C105.69 114.168 105.802 114.248 105.931 114.374C106.175 114.598 106.395 114.866 106.547 115.159C107.029 116.07 107.822 116.702 108.546 117.398C108.895 117.728 109.367 118.228 109.877 117.46C110.053 117.184 110.341 117.398 110.526 117.54C112.027 118.656 113.739 119.316 115.466 119.952C116.843 120.448 118.075 121.271 119.475 121.735C119.59 121.77 119.718 121.842 119.795 121.931C121.063 123.24 122.725 123.224 124.357 123.24C125.543 123.24 126.685 123.412 127.783 123.804C128.015 123.876 128.246 123.938 128.47 123.991C129.658 123.938 130.853 124.046 131.962 124.296C132.11 124.287 132.262 124.27 132.405 124.262C134.09 124.196 135.919 124.224 137.606 124.544C141.327 125.259 144.351 126.828 147.582 128.748C147.849 128.908 148.099 129.087 148.35 129.264C148.555 129.256 148.751 129.247 148.958 129.283C149.038 129.292 149.117 129.256 149.198 129.247C150.999 129.114 150.999 129.114 150.531 127.446C152.258 126.794 154.007 126.874 155.773 127.231C156.71 127.42 157.631 127.516 158.601 127.382C161.957 126.187 165.47 125.678 169.341 126.24C176.979 127.338 183.265 130.818 189.009 135.77C189.591 136.27 190.145 136.814 190.649 137.403C190.755 137.375 190.878 137.367 190.99 137.35C191.787 137.234 192.571 137.428 193.353 137.527C193.819 137.588 194.07 137.947 194.213 138.358C194.375 138.795 194.765 139.116 194.926 139.507C195.567 141.043 196.823 141.542 198.323 141.81C199.581 142.043 200.794 142.506 202.09 142.578C202.445 142.604 202.746 142.774 202.981 143.004C203.531 143.543 204.15 143.639 204.829 143.362C205.495 143.104 206.043 143.264 206.577 143.659C207.149 144.068 207.738 144.255 208.459 143.979C208.881 143.827 209.359 143.836 209.825 143.808C210.789 143.739 211.718 143.576 212.614 143.148C213.483 142.738 214.417 142.47 215.402 142.595C216.162 142.684 216.83 142.416 217.407 142.015C218.05 141.588 218.731 141.327 219.435 141.052C221.487 140.258 223.227 139.035 224.755 137.403C227.049 134.914 229.206 132.298 231.117 129.516C232.357 127.686 233.382 125.714 234.383 123.732C234.837 122.823 234.931 121.735 235.458 120.816C235.655 120.476 235.807 120.227 235.949 120.048C236.067 119.246 236.19 118.444 236.351 117.639C236.835 115.166 237.454 112.784 238.523 110.608C238.547 110.35 238.629 110.036 238.746 109.574C239.21 107.619 239.619 105.663 239.787 103.659C239.957 101.687 239.887 99.7218 239.794 97.7685" fill="#9C9C9C"/>
<path d="M222.906 36.4269C222.926 36.7376 223.067 36.9883 223.367 37.1149C223.799 37.2923 223.895 37.6843 224.054 38.0763C224.519 39.2296 224.89 40.4763 226.27 40.9416C226.645 41.0643 226.845 41.4309 226.933 41.7976C227.074 42.3323 227.37 42.7976 227.566 43.3069C227.922 44.2243 228.867 44.8323 229.081 45.7136C229.355 46.7843 230.021 47.2856 230.829 47.7763C231.042 47.8989 231.222 48.1323 231.498 47.9643C231.741 47.8109 231.729 47.5349 231.719 47.2856C231.711 47.0803 231.719 46.8563 231.653 46.6696C231.249 45.3589 230.974 43.9829 230.221 42.7976C229.875 42.2523 229.723 41.6643 229.651 40.8963C230.375 41.3323 230.813 41.7976 231.242 42.3256C232.561 43.9296 233.827 45.5723 235.057 47.2483C235.398 47.7229 235.827 48.1416 236.265 48.5069C237.183 49.2749 238.309 48.8549 238.557 47.6949C238.691 47.0616 238.557 46.4549 238.362 45.8469C237.566 43.3323 236.519 40.9229 235.21 38.6296C234.49 37.3629 233.785 36.0856 232.695 35.0696C230.785 33.2856 228.546 31.9816 226.335 30.6443C225.878 30.3589 225.358 30.1443 224.842 29.9936C224.245 29.8243 223.362 30.3229 223.077 30.9109C222.754 31.5816 223.227 31.9029 223.663 32.2509C223.925 32.4643 224.189 32.6696 224.425 32.9003C225.501 33.9723 226.287 35.2123 226.69 36.8629C225.965 36.6669 225.459 36.4443 225.077 35.9816C224.505 35.3016 223.763 34.8216 222.969 34.4269C222.71 34.2923 222.413 34.1149 222.185 34.4003C221.975 34.6683 222.146 34.9709 222.33 35.1949C222.63 35.5696 222.871 35.9443 222.906 36.4269Z" fill="#9C9C9C"/>
<path d="M82.2242 279.041L82.9122 284.307L82.9815 284.848L82.9122 285.075C82.8535 285.211 82.7375 285.275 82.5935 285.285C82.4122 285.315 82.1455 285.013 81.8109 284.369C79.0615 279.589 75.3629 277.205 70.6802 277.205C66.9349 277.205 64.0162 278.348 61.8469 280.641C59.7109 282.932 58.6269 286.059 58.6269 290.036C58.6269 294.601 59.8389 298.336 62.2042 301.225C64.6149 304.123 67.6869 305.563 71.4589 305.563C73.6375 305.563 75.8015 304.981 77.9175 303.817C80.0415 302.649 81.4949 301.219 82.3295 299.536C82.7069 298.771 82.9909 298.356 83.2122 298.356C83.4322 298.356 83.5535 298.492 83.5535 298.783L83.5295 299.015L83.4415 299.493L82.9269 302.199L82.8535 302.591C82.7989 302.972 82.4522 303.361 81.8189 303.776C78.4522 305.923 74.7215 307 70.6682 307C65.9642 307 62.1735 305.597 59.2869 302.809C56.4082 300.013 54.9775 296.36 54.9775 291.792C54.9775 287.229 56.4549 283.451 59.4442 280.435C62.4202 277.416 66.1589 275.905 70.6535 275.905C73.7429 275.905 76.5855 276.607 79.1589 277.993L80.0562 278.452L80.3975 278.615L80.7802 278.745C80.8509 278.745 80.9535 278.68 81.1082 278.559C81.4242 278.325 81.6335 278.208 81.7589 278.208C81.9962 278.208 82.1455 278.492 82.2242 279.041Z" fill="#9C9C9C"/>
<path d="M94.0754 282.901V299.337C94.0754 301.381 94.1967 302.744 94.4607 303.398C94.7447 304.153 95.1061 304.677 95.5381 304.972C95.9661 305.296 96.6434 305.513 97.5647 305.634C98.2994 305.737 98.6607 305.924 98.6607 306.172C98.6607 306.513 98.4287 306.689 97.9741 306.689C97.7621 306.689 97.4834 306.666 97.1447 306.622C96.7074 306.549 95.9261 306.513 94.8234 306.513L91.6527 306.476L89.0687 306.622C88.6207 306.676 88.2781 306.689 88.0047 306.689C87.6127 306.689 87.4127 306.534 87.4127 306.237C87.4127 305.98 87.6341 305.805 88.1021 305.753C89.2007 305.545 89.9221 305.184 90.2421 304.596C90.5567 304.021 90.7194 302.796 90.7194 300.937V282.141C90.7194 280.332 90.5247 279.106 90.1007 278.484C89.6767 277.854 88.7981 277.417 87.4314 277.206C86.9887 277.124 86.7567 276.946 86.7434 276.684C86.7354 276.373 86.9301 276.218 87.3621 276.218C87.4847 276.218 87.6247 276.218 87.7514 276.232C88.8407 276.373 90.2461 276.44 92.0221 276.44C93.0914 276.44 94.0301 276.409 94.8127 276.373L96.2767 276.232C96.5434 276.218 96.7327 276.218 96.8127 276.218C97.2127 276.218 97.4141 276.356 97.4141 276.634C97.4141 276.894 97.2221 277.074 96.8474 277.206L95.7047 277.649C94.6207 278.06 94.0754 279.808 94.0754 282.901Z" fill="#9C9C9C"/>
<path d="M108.81 279.992V302.549C108.81 303.444 109.258 304.048 110.138 304.395C110.922 304.691 111.913 304.932 113.11 305.159C114.31 305.373 115.328 305.479 116.164 305.479C118.658 305.479 120.916 304.853 122.914 303.599C126.298 301.491 127.998 297.939 127.998 292.881C127.998 290.129 127.464 287.613 126.401 285.299C125.345 283 123.882 281.187 122.042 279.872C119.761 278.26 117.02 277.443 113.788 277.443C111.464 277.443 110.008 277.687 109.381 278.204C109 278.483 108.81 279.08 108.81 279.992ZM105.456 281.732C105.456 280.243 105.2 279.177 104.702 278.483C104.21 277.788 103.393 277.389 102.238 277.272C101.749 277.236 101.508 277.075 101.508 276.813C101.508 276.543 101.696 276.397 102.08 276.397L103.809 276.476C103.986 276.497 104.504 276.515 105.34 276.515C106.837 276.515 107.966 276.464 108.793 276.397L110.824 276.195C111.694 276.131 112.661 276.081 113.721 276.081C119.714 276.081 124.204 277.593 127.214 280.601C129.944 283.347 131.304 286.861 131.304 291.147C131.304 293.919 130.7 296.435 129.505 298.756C128.31 301.064 126.638 302.884 124.509 304.221C121.82 305.897 118.881 306.729 115.694 306.729C115.318 306.729 114.641 306.705 113.67 306.623C111.721 306.487 110.017 306.427 108.562 306.427C106.996 306.427 105.642 306.497 104.486 306.676C103.965 306.736 103.55 306.781 103.245 306.793C102.732 306.844 102.476 306.667 102.476 306.297C102.476 306.052 102.682 305.897 103.086 305.804C104.082 305.597 104.716 305.237 105.014 304.724C105.306 304.191 105.456 303.117 105.456 301.479V281.732Z" fill="#9C9C9C"/>
<path d="M142.11 279.938V288.78C142.11 289.45 142.159 289.856 142.296 289.997C142.428 290.129 142.792 290.208 143.42 290.208H146.79C148.327 290.208 149.544 290.118 150.443 289.933C151.216 289.781 151.735 289.561 151.976 289.313C152.214 289.053 152.415 288.42 152.603 287.46C152.691 287.1 152.868 286.925 153.166 286.937C153.463 286.952 153.598 287.148 153.598 287.526C153.598 287.632 153.58 287.784 153.57 288.009C153.446 289.422 153.38 290.706 153.38 291.866C153.38 292.768 153.42 293.646 153.515 294.53C153.527 294.824 153.554 295.029 153.554 295.156C153.554 295.522 153.408 295.696 153.132 295.696C152.814 295.696 152.628 295.548 152.555 295.217L152.426 294.612C152.252 293.632 151.907 292.96 151.376 292.61C150.856 292.269 149.968 292.088 148.71 292.088H143.888C143.166 292.088 142.684 292.172 142.444 292.305C142.198 292.46 142.074 292.75 142.074 293.189L142.11 293.918V301.992C142.11 303.254 142.322 304.017 142.78 304.32C143.214 304.621 144.348 304.785 146.154 304.785C151.89 304.785 155.582 303.486 157.211 300.902C157.366 300.664 157.534 300.522 157.702 300.497C157.976 300.494 158.104 300.682 158.104 301.077C158.104 302.024 157.578 303.15 156.506 304.464C155.22 306.037 153.606 306.813 151.651 306.813C151.216 306.813 150.647 306.793 149.932 306.729C147.132 306.474 144.826 306.342 143.006 306.342C140.443 306.342 138.644 306.43 137.598 306.608C137.027 306.705 136.644 306.745 136.448 306.745C135.983 306.745 135.75 306.596 135.75 306.288C135.75 306.037 135.946 305.878 136.328 305.768L137.152 305.532C138.207 305.226 138.738 304.221 138.738 302.446L138.751 301.02V282.469C138.751 280.382 138.523 278.973 138.076 278.254C137.602 277.525 136.703 277.161 135.378 277.161C134.95 277.161 134.762 277.021 134.762 276.758C134.762 276.344 135.071 276.157 135.723 276.157C136.098 276.157 136.588 276.181 137.194 276.258C139.291 276.497 141.799 276.616 144.751 276.616C146.523 276.616 148.106 276.577 149.482 276.529L152.587 276.372C153.463 276.33 153.983 276.32 154.162 276.29C154.558 276.218 154.847 276.194 155.042 276.194C155.543 276.194 155.77 276.397 155.77 276.826C155.77 276.956 155.743 277.133 155.684 277.34C155.654 277.53 155.607 278.114 155.543 279.08L155.439 280.372C155.354 281.206 155.292 281.741 155.203 281.953C155.138 282.169 154.979 282.274 154.722 282.297C154.432 282.306 154.291 282.085 154.291 281.629V281.061C154.291 280.601 154.198 280.146 154.04 279.726C153.748 279.07 153.191 278.638 152.346 278.41C151.518 278.193 149.943 278.09 147.69 278.09H144.242C143.355 278.09 142.75 278.204 142.503 278.425C142.246 278.65 142.11 279.16 142.11 279.938Z" fill="#9C9C9C"/>
<path d="M177.576 291.456L174.14 282.769L173.954 282.314C173.78 281.842 173.593 281.606 173.384 281.59C173.284 281.58 173.176 281.706 173.046 281.997L168.768 291.497C168.574 291.91 168.465 292.178 168.465 292.306C168.465 292.692 168.818 292.884 169.496 292.884L170.078 292.901H176.704C177.429 292.901 177.797 292.716 177.797 292.358C177.797 292.248 177.749 292.081 177.688 291.846L177.576 291.456ZM177.318 294.989H169.382C168.301 294.989 167.62 295.07 167.352 295.246C167.094 295.43 166.749 296.013 166.305 297.006L164.874 300.236C164.224 301.716 163.904 302.81 163.904 303.534C163.904 304.221 164.078 304.724 164.413 305.022C164.757 305.325 165.428 305.586 166.442 305.805C166.886 305.897 167.094 306.062 167.121 306.329C167.136 306.572 166.933 306.689 166.513 306.689C166.345 306.689 166.105 306.689 165.769 306.666L163.673 306.534C162.964 306.497 162.16 306.486 161.233 306.486C160.812 306.486 160.478 306.497 160.257 306.513C159.508 306.608 159.105 306.644 159.032 306.644C158.644 306.644 158.442 306.497 158.442 306.237C158.442 306.004 158.565 305.841 158.813 305.768L159.621 305.533C159.91 305.456 160.304 305.085 160.812 304.464C161.298 303.836 161.7 303.194 162.028 302.526L162.668 301.078L173.925 276.04C174.14 275.605 174.344 275.393 174.565 275.393C174.81 275.393 175.004 275.597 175.17 276.03L184.585 300.17L185.08 301.357C185.769 303.128 186.329 304.225 186.792 304.661C187.226 305.088 188.153 305.442 189.549 305.688C189.99 305.768 190.22 305.953 190.209 306.217C190.182 306.468 189.99 306.585 189.601 306.585C189.457 306.585 189.17 306.572 188.77 306.534C188.005 306.468 186.648 306.43 184.692 306.43C182.669 306.43 181.405 306.476 180.878 306.553C180.573 306.622 180.352 306.644 180.208 306.644C179.821 306.644 179.641 306.486 179.641 306.197C179.641 305.974 179.812 305.805 180.182 305.753L180.866 305.586C181.592 305.456 181.974 304.954 181.974 304.1C181.974 303.328 181.517 301.778 180.626 299.472L179.538 296.569C179.22 295.764 178.985 295.296 178.794 295.165C178.632 295.052 178.141 294.989 177.318 294.989Z" fill="#9C9C9C"/>
<path d="M196.769 296.553C193.685 296.553 193.731 296.499 191.205 296.499C190.985 296.499 190.053 296.331 190.183 295.649C190.275 295.203 190.228 294.929 190.183 294.393C190.137 293.856 190.588 293.719 191.583 293.719C193.091 293.719 193.951 293.764 195.436 293.719C196.641 293.685 197.493 293.939 197.493 294.443C197.493 294.929 197.493 295.341 197.645 295.831C197.723 296.181 197.671 296.553 196.769 296.553Z" fill="#9C9C9C"/>
<path d="M227.144 293.793V282.448C227.144 280.61 226.89 279.277 226.356 278.466C225.824 277.64 224.924 277.161 223.674 277.052C223.25 277.016 223.035 276.852 223.035 276.578C223.035 276.27 223.198 276.114 223.462 276.13C223.786 276.145 224.27 276.202 224.882 276.308C225.438 276.397 226.096 276.44 226.871 276.44C228.499 276.44 229.511 276.409 229.884 276.373C230.39 276.326 230.712 276.308 230.835 276.308C231.099 276.308 231.252 276.44 231.252 276.698C231.252 276.91 231.099 277.074 230.792 277.206C229.904 277.565 229.328 278.092 229.066 278.73C228.791 279.401 228.676 280.642 228.676 282.47V293.313C228.676 297.308 227.876 300.374 226.283 302.526C225.275 303.882 223.823 304.972 221.963 305.773C220.08 306.597 218.078 307 215.928 307C213.447 307 211.208 306.513 209.238 305.545C207.236 304.58 205.788 303.27 204.863 301.632C203.83 299.722 203.288 297.253 203.288 294.193V283.05L203.252 281.814C203.252 280.244 203.05 279.177 202.619 278.57C202.19 277.981 201.318 277.594 200.019 277.397C199.627 277.345 199.43 277.198 199.43 276.946C199.43 276.606 199.715 276.44 200.243 276.44C200.636 276.44 201.128 276.454 201.775 276.477C202.439 276.53 202.928 276.542 203.239 276.542L204.928 276.53H206.592C206.768 276.53 207.182 276.497 207.836 276.44C208.364 276.397 208.74 276.373 208.954 276.373C209.29 276.373 209.438 276.484 209.438 276.709C209.438 276.994 209.226 277.161 208.755 277.249C207.896 277.426 207.343 277.802 207.042 278.357C206.752 278.901 206.62 279.886 206.62 281.302L206.664 282.753V293.793C206.664 297.554 207.236 300.236 208.42 301.842C210.072 304.122 212.84 305.266 216.719 305.266C220.21 305.266 222.818 304.308 224.554 302.404C226.268 300.497 227.144 297.629 227.144 293.793Z" fill="#9C9C9C"/>
<path d="M261.756 284.899V303.27C261.756 304.923 261.714 305.923 261.636 306.287C261.562 306.643 261.367 306.807 261.03 306.793C260.803 306.781 260.636 306.729 260.519 306.607L260.047 306.038L241.555 284.899L241.342 284.65C241.255 284.571 241.152 284.527 241.031 284.527C240.755 284.527 240.614 284.849 240.614 285.505V300.401L240.604 301.315L240.664 302.87C240.762 303.827 241.019 304.507 241.419 304.867C241.811 305.226 242.574 305.513 243.732 305.687C244.219 305.737 244.463 305.923 244.463 306.237C244.463 306.525 244.295 306.675 243.998 306.675C243.804 306.675 243.574 306.65 243.338 306.622C243.166 306.595 242.55 306.549 241.435 306.486L239.195 306.386L238.148 306.427C237.574 306.427 237.031 306.467 236.507 306.525C236.134 306.571 235.876 306.607 235.704 306.607C235.336 306.607 235.127 306.467 235.088 306.197C235.059 305.979 235.294 305.805 235.704 305.662C236.926 305.226 237.779 304.661 238.2 303.962C238.614 303.255 238.846 302.103 238.846 300.523V285.605C238.846 283.082 238.439 281.094 237.628 279.63C236.838 278.173 235.672 277.345 234.156 277.134C233.76 277.079 233.558 276.923 233.558 276.651C233.558 276.387 233.71 276.226 234.051 276.226C234.112 276.226 234.226 276.249 234.39 276.259L235.294 276.29L236.762 276.326L237.098 276.307C237.462 276.29 237.732 276.29 237.928 276.29C238.292 276.29 238.671 276.497 239.019 276.923L259.194 299.766C259.508 300.129 259.706 300.301 259.81 300.289C259.955 300.266 260.031 300.138 260.047 299.877V289.025L260.063 286.058L259.81 281.018C259.639 279.77 259.29 278.901 258.707 278.378C258.136 277.861 257.095 277.485 255.59 277.231C255.171 277.149 254.948 276.978 254.948 276.683C254.948 276.409 255.171 276.29 255.59 276.29C255.774 276.29 256.074 276.307 256.522 276.343C257.52 276.454 258.876 276.514 260.558 276.514C261.482 276.514 262.186 276.454 262.743 276.371C263.2 276.29 263.57 276.226 263.816 276.226C264.195 276.226 264.384 276.397 264.411 276.705C264.434 276.903 264.295 277.035 263.995 277.123C263.098 277.339 262.511 277.713 262.212 278.207C261.943 278.725 261.786 279.694 261.786 281.094V283.45L261.756 284.899Z" fill="#9C9C9C"/>
<path d="M284.629 291.456L281.188 282.769L281.013 282.314C280.85 281.842 280.66 281.606 280.45 281.59C280.341 281.58 280.22 281.706 280.101 281.997L275.818 291.497C275.629 291.91 275.541 292.178 275.541 292.306C275.541 292.692 275.865 292.884 276.546 292.884L277.132 292.901H283.752C284.489 292.901 284.852 292.716 284.852 292.358C284.852 292.248 284.817 292.081 284.742 291.846L284.629 291.456ZM284.376 294.989H276.44C275.357 294.989 274.677 295.07 274.422 295.246C274.153 295.43 273.808 296.013 273.373 297.006L271.928 300.236C271.289 301.716 270.962 302.81 270.962 303.534C270.962 304.221 271.137 304.724 271.472 305.022C271.808 305.325 272.49 305.586 273.498 305.805C273.933 305.897 274.153 306.062 274.185 306.329C274.188 306.572 273.993 306.689 273.572 306.689C273.409 306.689 273.153 306.689 272.829 306.666L270.722 306.534C270.02 306.497 269.214 306.486 268.301 306.486C267.861 306.486 267.537 306.497 267.322 306.513C266.574 306.608 266.169 306.644 266.1 306.644C265.709 306.644 265.502 306.497 265.502 306.237C265.502 306.004 265.624 305.841 265.87 305.768L266.689 305.533C266.978 305.456 267.365 305.085 267.861 304.464C268.354 303.836 268.776 303.194 269.094 302.526L269.733 301.078L280.986 276.04C281.188 275.605 281.402 275.393 281.632 275.393C281.864 275.393 282.069 275.597 282.238 276.03L291.644 300.17L292.133 301.357C292.834 303.128 293.389 304.225 293.845 304.661C294.296 305.088 295.221 305.442 296.605 305.688C297.064 305.768 297.281 305.953 297.264 306.217C297.241 306.468 297.053 306.585 296.646 306.585C296.518 306.585 296.238 306.572 295.816 306.534C295.064 306.468 293.701 306.43 291.768 306.43C289.734 306.43 288.462 306.476 287.936 306.553C287.645 306.622 287.416 306.644 287.269 306.644C286.882 306.644 286.71 306.486 286.71 306.197C286.71 305.974 286.877 305.805 287.238 305.753L287.926 305.586C288.656 305.456 289.018 304.954 289.018 304.1C289.018 303.328 288.569 301.778 287.689 299.472L286.585 296.569C286.29 295.764 286.032 295.296 285.854 295.165C285.696 295.052 285.194 294.989 284.376 294.989Z" fill="#9C9C9C"/>
</svg>
