<svg width="19" height="18" viewBox="0 0 19 18" fill="none" xmlns="http://www.w3.org/2000/svg">
<g clip-path="url(#clip0)">
<path d="M12.8937 8.15318H13.9781V12.817C13.9781 13.1018 13.7473 13.3326 13.4626 13.3326H5.60386C5.31913 13.3326 5.08827 13.1018 5.08827 12.817V8.15318H6.17269C6.12117 8.38996 6.09324 8.6355 6.09324 8.88767C6.09324 10.7875 7.63332 12.3276 9.53317 12.3276C11.433 12.3276 12.9731 10.7875 12.9731 8.88767C12.9731 8.6355 12.9452 8.38988 12.8937 8.15318ZM9.53317 11.2048C10.8128 11.2048 11.8502 10.1674 11.8502 8.88774C11.8502 7.60808 10.8128 6.57069 9.53317 6.57069C8.25352 6.57069 7.21613 7.60808 7.21613 8.88774C7.21613 10.1674 8.25352 11.2048 9.53317 11.2048ZM12.3092 6.50806H13.1917C13.4504 6.50806 13.6602 6.29829 13.6602 6.03957V5.15716C13.6602 4.89843 13.4505 4.68873 13.1917 4.68873H12.3092C12.0505 4.68873 11.8408 4.89843 11.8408 5.15716V6.03964C11.8408 6.29836 12.0505 6.50806 12.3092 6.50806ZM18.1787 0.242188V17.5332H0.887695V0.242188H18.1787ZM15.0404 4.7696C15.0404 4.00248 14.4185 3.38058 13.6514 3.38058H5.41511C4.64799 3.38058 4.02608 4.00248 4.02608 4.7696V13.0059C4.02608 13.773 4.64799 14.3949 5.41511 14.3949H13.6514C14.4185 14.3949 15.0404 13.773 15.0404 13.0059V4.7696Z" fill="white"/>
</g>
<defs>
<clipPath id="clip0">
<rect x="0.887695" y="0.242188" width="17.291" height="17.291" rx="5" fill="white"/>
</clipPath>
</defs>
</svg>
