<svg width="225" height="322" viewBox="0 0 225 322" fill="none" xmlns="http://www.w3.org/2000/svg">
<path d="M25.288 295.772L25.9267 300.66L25.9907 301.163L25.9267 301.374C25.8707 301.499 25.764 301.559 25.6307 301.57C25.4627 301.595 25.2147 301.316 24.904 300.718C22.3533 296.283 18.92 294.07 14.5733 294.07C11.0973 294.07 8.388 295.132 6.37467 297.259C4.392 299.384 3.38667 302.286 3.38667 305.978C3.38667 310.215 4.512 313.682 6.70667 316.363C8.944 319.051 11.796 320.387 15.296 320.387C17.3173 320.387 19.3267 319.848 21.2907 318.77C23.2613 317.684 24.6107 316.356 25.3853 314.796C25.736 314.084 25.9987 313.699 26.204 313.699C26.4093 313.699 26.5213 313.827 26.5213 314.095L26.4987 314.311L26.4173 314.754L25.94 317.267L25.8707 317.63C25.82 317.983 25.4987 318.346 24.912 318.731C21.7867 320.723 18.324 321.723 14.5627 321.723C10.1973 321.723 6.67867 320.42 3.99867 317.832C1.32667 315.239 0 311.848 0 307.608C0 303.371 1.372 299.866 4.14533 297.067C6.908 294.264 10.376 292.863 14.548 292.863C17.416 292.863 20.0547 293.515 22.4427 294.8L23.2747 295.226L23.5933 295.376L23.9467 295.499C24.0133 295.499 24.108 295.439 24.252 295.324C24.5453 295.108 24.74 294.999 24.856 294.999C25.076 294.999 25.2147 295.264 25.288 295.772Z" fill="#9C9C9C"/>
<path d="M36.287 299.356V314.611C36.287 316.507 36.4003 317.773 36.6456 318.38C36.9083 319.08 37.2443 319.567 37.6456 319.84C38.0416 320.14 38.671 320.343 39.5256 320.455C40.207 320.551 40.543 320.723 40.543 320.955C40.543 321.271 40.327 321.435 39.9056 321.435C39.7083 321.435 39.4496 321.413 39.1363 321.372C38.7296 321.304 38.0043 321.271 36.9816 321.271L34.0376 321.236L31.6403 321.372C31.2243 321.421 30.907 321.435 30.6523 321.435C30.2896 321.435 30.103 321.291 30.103 321.015C30.103 320.775 30.3096 320.613 30.743 320.564C31.7616 320.372 32.4323 320.036 32.7283 319.492C33.0216 318.957 33.1723 317.82 33.1723 316.096V298.651C33.1723 296.971 32.991 295.835 32.5976 295.255C32.2043 294.671 31.3896 294.265 30.1203 294.069C29.7096 293.995 29.4936 293.829 29.4816 293.585C29.475 293.296 29.655 293.153 30.0563 293.153C30.1696 293.153 30.3003 293.153 30.4176 293.165C31.4283 293.296 32.7336 293.359 34.3816 293.359C35.3736 293.359 36.2456 293.329 36.9723 293.296L38.3296 293.165C38.5776 293.153 38.7536 293.153 38.827 293.153C39.199 293.153 39.3856 293.28 39.3856 293.539C39.3856 293.78 39.207 293.947 38.8603 294.069L37.799 294.481C36.7936 294.864 36.287 296.484 36.287 299.356Z" fill="#9C9C9C"/>
<path d="M49.9629 296.655V317.592C49.9629 318.42 50.3789 318.983 51.1962 319.303C51.9242 319.579 52.8429 319.803 53.9535 320.015C55.0669 320.212 56.0122 320.311 56.7869 320.311C59.1029 320.311 61.1989 319.731 63.0522 318.567C66.1935 316.608 67.7709 313.311 67.7709 308.619C67.7709 306.064 67.2749 303.728 66.2895 301.582C65.3095 299.447 63.9509 297.764 62.2442 296.546C60.1269 295.048 57.5829 294.291 54.5829 294.291C52.4255 294.291 51.0749 294.515 50.4922 294.996C50.1389 295.254 49.9629 295.808 49.9629 296.655ZM46.8495 298.27C46.8495 296.89 46.6122 295.9 46.1509 295.254C45.6935 294.611 44.9349 294.24 43.8642 294.131C43.4095 294.098 43.1855 293.947 43.1855 293.704C43.1855 293.455 43.3602 293.319 43.7149 293.319L45.3215 293.392C45.4869 293.412 45.9655 293.428 46.7415 293.428C48.1309 293.428 49.1789 293.382 49.9469 293.319L51.8309 293.131C52.6402 293.071 53.5375 293.027 54.5202 293.027C60.0829 293.027 64.2509 294.428 67.0442 297.22C69.5775 299.77 70.8389 303.032 70.8389 307.01C70.8389 309.582 70.2789 311.915 69.1695 314.072C68.0602 316.212 66.5095 317.903 64.5335 319.142C62.0375 320.699 59.3095 321.47 56.3522 321.47C56.0029 321.47 55.3749 321.45 54.4735 321.371C52.6642 321.246 51.0829 321.191 49.7335 321.191C48.2789 321.191 47.0229 321.256 45.9495 321.42C45.4655 321.478 45.0815 321.519 44.7975 321.53C44.3215 321.576 44.0842 321.412 44.0842 321.071C44.0842 320.843 44.2749 320.699 44.6509 320.614C45.5749 320.42 46.1615 320.084 46.4389 319.611C46.7109 319.116 46.8495 318.119 46.8495 316.598V298.27Z" fill="#9C9C9C"/>
<path d="M80.8688 296.606V304.811C80.8688 305.434 80.9142 305.811 81.0422 305.942C81.1648 306.064 81.5022 306.136 82.0848 306.136H85.2128C86.6382 306.136 87.7688 306.054 88.6035 305.882C89.3208 305.742 89.8022 305.538 90.0262 305.306C90.2462 305.067 90.4342 304.478 90.6075 303.587C90.6888 303.254 90.8542 303.09 91.1302 303.103C91.4048 303.116 91.5302 303.299 91.5302 303.65C91.5302 303.746 91.5142 303.887 91.5048 304.095C91.3902 305.408 91.3288 306.6 91.3288 307.676C91.3288 308.515 91.3662 309.33 91.4528 310.15C91.4648 310.42 91.4902 310.614 91.4902 310.731C91.4902 311.072 91.3542 311.231 91.0995 311.231C90.8035 311.231 90.6302 311.092 90.5635 310.786L90.4435 310.226C90.2835 309.314 89.9608 308.691 89.4688 308.366C88.9862 308.051 88.1622 307.882 86.9942 307.882H82.5195C81.8488 307.882 81.4008 307.96 81.1795 308.084C80.9515 308.228 80.8355 308.499 80.8355 308.903L80.8688 309.582V317.075C80.8688 318.246 81.0648 318.955 81.4915 319.236C81.8942 319.515 82.9462 319.666 84.6208 319.666C89.9462 319.666 93.3715 318.463 94.8848 316.064C95.0275 315.843 95.1835 315.712 95.3408 315.687C95.5955 315.684 95.7142 315.858 95.7142 316.226C95.7142 317.106 95.2248 318.15 94.2302 319.368C93.0368 320.83 91.5382 321.548 89.7248 321.548C89.3208 321.548 88.7915 321.53 88.1288 321.47C85.5302 321.236 83.3902 321.111 81.7008 321.111C79.3222 321.111 77.6528 321.194 76.6808 321.358C76.1515 321.45 75.7955 321.486 75.6155 321.486C75.1822 321.486 74.9662 321.348 74.9662 321.062C74.9662 320.83 75.1475 320.682 75.5035 320.579L76.2675 320.36C77.2462 320.078 77.7382 319.142 77.7382 317.496L77.7515 316.171V298.955C77.7515 297.018 77.5395 295.71 77.1248 295.043C76.6835 294.366 75.8502 294.027 74.6195 294.027C74.2235 294.027 74.0488 293.898 74.0488 293.655C74.0488 293.27 74.3368 293.098 74.9422 293.098C75.2875 293.098 75.7435 293.119 76.3062 293.191C78.2528 293.412 80.5795 293.522 83.3208 293.522C84.9635 293.522 86.4342 293.486 87.7115 293.442L90.5928 293.296C91.4048 293.256 91.8888 293.248 92.0542 293.22C92.4222 293.152 92.6902 293.132 92.8715 293.132C93.3368 293.132 93.5462 293.319 93.5462 293.718C93.5462 293.838 93.5208 294.004 93.4675 294.194C93.4395 294.371 93.3955 294.912 93.3368 295.808L93.2395 297.01C93.1608 297.783 93.1035 298.278 93.0208 298.475C92.9595 298.676 92.8128 298.775 92.5742 298.796C92.3048 298.803 92.1742 298.598 92.1742 298.176V297.647C92.1742 297.22 92.0875 296.799 91.9422 296.411C91.6715 295.8 91.1528 295.4 90.3688 295.187C89.6008 294.986 88.1382 294.892 86.0475 294.892H82.8462C82.0235 294.892 81.4622 294.996 81.2328 295.202C80.9955 295.411 80.8688 295.884 80.8688 296.606Z" fill="#9C9C9C"/>
<path d="M113.786 307.296L110.596 299.233L110.424 298.812C110.262 298.375 110.09 298.156 109.895 298.14C109.803 298.129 109.702 298.247 109.582 298.517L105.61 307.335C105.431 307.717 105.33 307.965 105.33 308.085C105.33 308.441 105.658 308.621 106.287 308.621L106.827 308.637H112.976C113.648 308.637 113.99 308.465 113.99 308.132C113.99 308.031 113.947 307.877 113.89 307.657L113.786 307.296ZM113.546 310.575H106.182C105.178 310.575 104.544 310.651 104.296 310.815C104.058 310.987 103.738 311.525 103.324 312.447L101.996 315.444C101.394 316.82 101.095 317.832 101.095 318.504C101.095 319.143 101.258 319.611 101.57 319.887C101.888 320.168 102.511 320.411 103.452 320.613C103.866 320.7 104.058 320.853 104.083 321.101C104.095 321.324 103.908 321.435 103.518 321.435C103.363 321.435 103.14 321.435 102.827 321.413L100.882 321.291C100.223 321.257 99.479 321.247 98.6177 321.247C98.227 321.247 97.9177 321.257 97.711 321.269C97.0163 321.359 96.643 321.392 96.575 321.392C96.2137 321.392 96.0283 321.257 96.0283 321.015C96.0283 320.799 96.1417 320.648 96.371 320.58L97.1217 320.361C97.3897 320.288 97.7563 319.944 98.227 319.369C98.6777 318.785 99.051 318.189 99.355 317.569L99.9497 316.225L110.398 292.989C110.596 292.585 110.786 292.387 110.991 292.387C111.219 292.387 111.399 292.577 111.552 292.979L120.291 315.384L120.751 316.487C121.39 318.129 121.91 319.148 122.339 319.551C122.743 319.947 123.602 320.277 124.899 320.504C125.308 320.58 125.522 320.752 125.511 320.996C125.486 321.228 125.308 321.337 124.946 321.337C124.814 321.337 124.547 321.324 124.175 321.291C123.466 321.228 122.204 321.195 120.39 321.195C118.512 321.195 117.339 321.236 116.851 321.309C116.567 321.372 116.362 321.392 116.228 321.392C115.868 321.392 115.702 321.247 115.702 320.976C115.702 320.769 115.862 320.613 116.204 320.564L116.839 320.411C117.512 320.288 117.868 319.824 117.868 319.031C117.868 318.315 117.443 316.877 116.616 314.736L115.607 312.041C115.312 311.293 115.092 310.859 114.916 310.739C114.764 310.635 114.311 310.575 113.546 310.575Z" fill="#9C9C9C"/>
<path d="M131.599 312.028C128.737 312.028 128.779 311.976 126.435 311.976C126.231 311.976 125.366 311.82 125.486 311.189C125.571 310.773 125.527 310.52 125.486 310.022C125.445 309.522 125.862 309.394 126.786 309.394C128.185 309.394 128.983 309.44 130.361 309.394C131.481 309.364 132.271 309.601 132.271 310.066C132.271 310.52 132.271 310.902 132.411 311.356C132.483 311.681 132.435 312.028 131.599 312.028Z" fill="#9C9C9C"/>
<path d="M159.791 309.465V298.935C159.791 297.231 159.554 295.992 159.059 295.239C158.566 294.473 157.731 294.028 156.57 293.927C156.176 293.892 155.978 293.741 155.978 293.487C155.978 293.203 156.128 293.056 156.374 293.072C156.674 293.085 157.123 293.137 157.691 293.236C158.207 293.32 158.819 293.359 159.538 293.359C161.047 293.359 161.987 293.329 162.334 293.296C162.803 293.255 163.102 293.236 163.215 293.236C163.462 293.236 163.603 293.359 163.603 293.599C163.603 293.796 163.462 293.947 163.176 294.069C162.352 294.403 161.819 294.892 161.575 295.487C161.319 296.108 161.212 297.26 161.212 298.955V309.02C161.212 312.725 160.471 315.572 158.991 317.569C158.055 318.829 156.708 319.84 154.983 320.585C153.235 321.348 151.375 321.723 149.38 321.723C147.078 321.723 145 321.271 143.171 320.372C141.315 319.476 139.971 318.263 139.111 316.739C138.152 314.968 137.651 312.676 137.651 309.835V299.493L137.616 298.345C137.616 296.889 137.428 295.9 137.03 295.335C136.63 294.788 135.82 294.429 134.615 294.247C134.252 294.2 134.068 294.061 134.068 293.829C134.068 293.515 134.332 293.359 134.823 293.359C135.188 293.359 135.646 293.372 136.246 293.392C136.862 293.441 137.316 293.455 137.603 293.455L139.172 293.441H140.716C140.879 293.441 141.263 293.413 141.871 293.359C142.36 293.32 142.71 293.296 142.908 293.296C143.219 293.296 143.358 293.4 143.358 293.608C143.358 293.875 143.159 294.028 142.723 294.108C141.927 294.275 141.414 294.624 141.134 295.137C140.864 295.643 140.743 296.559 140.743 297.872L140.783 299.217V309.465C140.783 312.955 141.315 315.444 142.412 316.937C143.946 319.051 146.515 320.113 150.115 320.113C153.355 320.113 155.775 319.223 157.386 317.457C158.979 315.687 159.791 313.025 159.791 309.465Z" fill="#9C9C9C"/>
<path d="M191.914 301.21V318.262C191.914 319.795 191.876 320.723 191.804 321.062C191.734 321.393 191.553 321.543 191.24 321.53C191.03 321.519 190.876 321.47 190.766 321.358L190.329 320.83L173.165 301.21L172.968 300.981C172.886 300.905 172.792 300.866 172.678 300.866C172.422 300.866 172.292 301.163 172.292 301.773V315.598L172.282 316.447L172.338 317.89C172.429 318.778 172.668 319.41 173.04 319.743C173.402 320.077 174.11 320.343 175.186 320.505C175.638 320.551 175.865 320.723 175.865 321.015C175.865 321.281 175.709 321.421 175.433 321.421C175.253 321.421 175.04 321.398 174.82 321.371C174.661 321.349 174.089 321.303 173.053 321.246L170.974 321.153L170.004 321.191C169.47 321.191 168.966 321.229 168.481 321.281C168.133 321.325 167.894 321.358 167.736 321.358C167.393 321.358 167.2 321.229 167.164 320.975C167.136 320.775 167.354 320.614 167.736 320.481C168.869 320.077 169.661 319.551 170.052 318.903C170.436 318.246 170.652 317.179 170.652 315.713V301.866C170.652 299.522 170.274 297.679 169.521 296.319C168.786 294.967 167.705 294.199 166.298 294.005C165.932 293.953 165.742 293.806 165.742 293.557C165.742 293.311 165.885 293.161 166.201 293.161C166.258 293.161 166.362 293.182 166.514 293.191L167.354 293.221L168.717 293.254L169.029 293.237C169.366 293.221 169.617 293.221 169.8 293.221C170.137 293.221 170.489 293.413 170.812 293.806L189.536 315.01C189.829 315.346 190.012 315.505 190.108 315.494C190.242 315.473 190.313 315.353 190.329 315.111V305.038L190.342 302.286L190.108 297.609C189.949 296.45 189.625 295.642 189.085 295.158C188.554 294.679 187.589 294.33 186.19 294.093C185.802 294.017 185.596 293.858 185.596 293.585C185.596 293.33 185.802 293.221 186.19 293.221C186.362 293.221 186.641 293.237 187.056 293.27C187.984 293.371 189.241 293.429 190.802 293.429C191.661 293.429 192.313 293.371 192.83 293.295C193.254 293.221 193.598 293.161 193.828 293.161C194.177 293.161 194.353 293.319 194.378 293.606C194.4 293.789 194.272 293.91 193.993 293.994C193.16 294.194 192.614 294.541 192.337 294.999C192.088 295.481 191.942 296.379 191.942 297.679V299.866L191.914 301.21Z" fill="#9C9C9C"/>
<path d="M213.143 307.296L209.949 299.233L209.786 298.812C209.635 298.375 209.459 298.156 209.265 298.14C209.163 298.129 209.051 298.247 208.941 298.517L204.966 307.335C204.79 307.717 204.709 307.965 204.709 308.085C204.709 308.441 205.009 308.621 205.641 308.621L206.185 308.637H212.33C213.013 308.637 213.35 308.465 213.35 308.132C213.35 308.031 213.318 307.877 213.249 307.657L213.143 307.296ZM212.907 310.575H205.543C204.538 310.575 203.906 310.651 203.671 310.815C203.421 310.987 203.101 311.525 202.697 312.447L201.354 315.444C200.762 316.82 200.458 317.832 200.458 318.504C200.458 319.143 200.621 319.611 200.933 319.887C201.243 320.168 201.878 320.411 202.813 320.613C203.217 320.7 203.421 320.853 203.449 321.101C203.453 321.324 203.273 321.435 202.881 321.435C202.73 321.435 202.493 321.435 202.191 321.413L200.235 321.291C199.585 321.257 198.838 321.247 197.99 321.247C197.581 321.247 197.281 321.257 197.081 321.269C196.387 321.359 196.01 321.392 195.946 321.392C195.583 321.392 195.393 321.257 195.393 321.015C195.393 320.799 195.505 320.648 195.733 320.58L196.494 320.361C196.762 320.288 197.119 319.944 197.581 319.369C198.039 318.785 198.43 318.189 198.726 317.569L199.318 316.225L209.762 292.989C209.949 292.585 210.149 292.387 210.362 292.387C210.577 292.387 210.767 292.577 210.925 292.979L219.654 315.384L220.109 316.487C220.759 318.129 221.274 319.148 221.697 319.551C222.115 319.947 222.974 320.277 224.259 320.504C224.683 320.58 224.886 320.752 224.87 320.996C224.849 321.228 224.674 321.337 224.297 321.337C224.177 321.337 223.918 321.324 223.526 321.291C222.829 321.228 221.562 321.195 219.769 321.195C217.882 321.195 216.702 321.236 216.213 321.309C215.943 321.372 215.729 321.392 215.594 321.392C215.234 321.392 215.074 321.247 215.074 320.976C215.074 320.769 215.229 320.613 215.565 320.564L216.203 320.411C216.881 320.288 217.217 319.824 217.217 319.031C217.217 318.315 216.799 316.877 215.983 314.736L214.958 312.041C214.685 311.293 214.446 310.859 214.282 310.739C214.133 310.635 213.669 310.575 212.907 310.575" fill="#9C9C9C"/>
<path d="M33.8243 240.161V189.602C33.8243 185.59 33.519 182.558 32.9257 180.486C32.3217 178.43 31.299 176.815 29.8643 175.606C29.1563 175.023 28.3737 174.547 27.5137 174.19C26.6697 173.83 25.363 173.471 23.6417 173.115C23.4563 173.069 23.2243 173.034 22.9857 172.978C22.7403 172.929 22.3137 172.853 21.6723 172.725C21.2497 172.575 20.827 172.263 20.467 171.743C20.1243 171.223 19.9443 170.683 19.9443 170.097C19.9443 169.245 20.263 168.565 20.9057 168.005C21.551 167.49 22.4403 167.213 23.567 167.213C23.831 167.213 24.0843 167.227 24.3243 167.247C24.5697 167.259 24.8577 167.31 25.1763 167.361C28.163 167.65 31.0017 167.879 33.691 168.005C36.351 168.159 39.1417 168.221 41.9337 168.221C56.9123 168.221 71.5097 167.779 85.7097 166.871L86.251 166.817C87.0017 166.817 87.799 166.779 88.6283 166.742C89.4617 166.707 89.923 166.667 90.0137 166.667C91.8737 166.721 92.9457 167.841 93.1643 170.031V170.097V170.701L94.0897 184.251C94.1377 184.382 94.1737 184.542 94.2043 184.727C94.2283 184.885 94.2283 185.131 94.2283 185.397C94.2283 185.783 94.2417 186.241 94.2977 186.711C94.3377 187.219 94.3523 187.529 94.3523 187.658C94.3523 188.87 94.1497 189.678 93.763 190.121C93.359 190.547 92.5897 190.763 91.483 190.763C90.767 190.763 90.2243 190.547 89.871 190.121C89.5057 189.678 89.1843 188.705 88.8617 187.118V186.942C88.699 185.667 88.4577 184.655 88.1897 183.846C87.091 180.35 84.967 177.937 81.911 176.571C78.8137 175.217 73.3043 174.53 65.403 174.53C60.5283 174.53 57.5497 175.05 56.4403 176.13C55.347 177.209 54.8057 179.91 54.8057 184.251V202.55C54.8057 205.462 55.1977 207.207 56.019 207.815C56.8163 208.437 59.4083 208.71 63.7937 208.71C67.147 208.71 69.8523 208.245 71.9723 207.298C74.0723 206.313 75.7723 204.782 77.063 202.691C77.455 201.973 77.919 200.947 78.4003 199.611C78.4937 199.383 78.5643 199.203 78.615 199.054L78.6817 198.863C79.3937 196.806 80.379 195.778 81.6217 195.778C82.5683 195.778 83.2403 196.009 83.6377 196.513C84.0457 196.997 84.2617 197.805 84.2617 198.942C84.2617 199.697 84.179 200.983 84.0457 202.826C83.9777 203.178 83.9643 203.446 83.9643 203.626C83.835 205.334 83.7683 206.817 83.7337 208.075C83.7003 209.363 83.7003 210.57 83.7003 211.743C83.7003 213.847 83.7683 215.881 83.931 217.91C84.095 219.914 84.335 221.902 84.647 223.857C84.6937 224.087 84.6937 224.361 84.6937 224.674C84.851 225.718 84.9123 226.319 84.9123 226.549C84.9123 227.627 84.7417 228.374 84.4057 228.803C84.0617 229.221 83.5137 229.437 82.6937 229.437C81.7937 229.437 81.1403 229.243 80.7443 228.83C80.347 228.439 80.0723 227.475 79.9523 225.95C79.903 225.786 79.847 225.507 79.819 225.147C79.559 223.893 79.2843 222.946 79.0097 222.327C77.8017 219.779 75.991 217.999 73.6137 216.963C71.2217 215.931 67.467 215.411 62.3923 215.411C59.243 215.411 57.207 215.903 56.2603 216.862C55.2803 217.823 54.8057 220.498 54.8057 224.89V243.317C54.8057 249.005 55.347 252.507 56.4097 253.879C57.4963 255.246 59.655 255.915 62.9243 255.915C69.2257 255.915 74.811 255.005 79.6763 253.153C84.547 251.283 88.7217 248.453 92.2177 244.655C92.963 243.846 93.795 242.689 94.6577 241.174C94.8523 240.921 94.983 240.689 95.0737 240.502C95.567 239.379 96.035 238.633 96.4803 238.257C96.931 237.877 97.4497 237.687 98.075 237.687C98.8723 237.687 99.5017 237.991 99.979 238.587C100.436 239.199 100.658 240.021 100.658 241.111C100.658 243.067 100.328 245.187 99.659 247.437C98.9817 249.702 98.019 251.939 96.7817 254.187C94.719 257.809 92.3977 260.415 89.783 262.015C87.1577 263.627 83.9523 264.431 80.183 264.431C79.1457 264.431 77.899 264.409 76.4443 264.335C74.999 264.267 73.4137 264.169 71.6657 264.035C70.8523 263.989 69.5817 263.923 67.835 263.83C59.5297 263.421 52.639 263.237 47.1497 263.237C42.767 263.237 37.559 263.565 31.551 264.234C31.0417 264.283 30.6977 264.299 30.527 264.299C29.551 264.431 28.6563 264.543 27.819 264.603C26.983 264.658 26.2857 264.685 25.7043 264.685C24.9483 264.685 24.2683 264.409 23.6977 263.83C23.111 263.254 22.8137 262.585 22.8137 261.819C22.8137 261.15 23.059 260.546 23.5177 260.015C24.0017 259.473 25.019 258.841 26.575 258.122C27.8417 257.543 28.819 256.975 29.535 256.458C30.235 255.915 30.8377 255.343 31.3457 254.713C32.2723 253.565 32.9257 252.013 33.2737 250.133C33.6297 248.215 33.8243 244.895 33.8243 240.161Z" fill="#9C9C9C"/>
<path d="M116.211 242.512V187.528C116.211 184.235 115.822 181.612 115.014 179.68C114.217 177.764 112.879 176.226 110.991 175.051C110.182 174.48 108.811 173.976 106.911 173.588H106.639C106.601 173.538 106.553 173.522 106.522 173.522C103.909 173.028 102.622 171.971 102.622 170.379C102.622 169.572 102.953 168.903 103.629 168.388C104.282 167.879 105.193 167.615 106.357 167.615C106.765 167.615 107.134 167.638 107.463 167.68C107.813 167.732 108.105 167.767 108.374 167.767C108.783 167.794 109.413 167.842 110.255 167.879C115.671 168.208 120.573 168.348 125.001 168.348C127.149 168.348 129.381 168.307 131.677 168.188C133.973 168.071 136.505 167.879 139.225 167.615H139.554C145.505 167.262 149.939 167.098 152.91 167.098C169.433 167.098 182.245 170.946 191.306 178.644C200.378 186.355 204.926 197.248 204.926 211.332C204.926 218.118 203.726 224.611 201.309 230.772C198.889 236.955 195.377 242.444 190.791 247.255C185.329 253.075 179.115 257.403 172.131 260.206C165.177 263.043 157.235 264.431 148.343 264.431C147.134 264.431 145.494 264.395 143.402 264.267C141.334 264.152 139.967 264.067 139.294 264.036C136.426 263.815 134.291 263.66 132.882 263.598C131.483 263.531 130.137 263.502 128.887 263.502C124.509 263.502 119.495 263.83 113.871 264.494C113.559 264.543 113.363 264.572 113.274 264.572C112.379 264.684 111.593 264.802 110.923 264.884C110.255 264.936 109.697 264.968 109.262 264.968C108.181 264.968 107.389 264.72 106.865 264.234C106.357 263.739 106.095 262.982 106.095 261.944C106.095 261.278 106.302 260.698 106.709 260.168C107.103 259.666 107.982 259.028 109.385 258.263C110.09 257.958 110.751 257.611 111.327 257.223C111.903 256.846 112.395 256.458 112.789 256.051C114.053 254.763 114.931 253.152 115.449 251.218C115.957 249.299 116.211 246.395 116.211 242.512ZM137.075 239.884C137.075 247.094 138.161 251.84 140.351 254.138C142.549 256.458 146.462 257.594 152.089 257.594C161.385 257.594 168.831 254.01 174.415 246.835C180.014 239.658 182.801 230.067 182.801 218.039C182.801 204.71 179.698 194.03 173.477 185.963C167.251 177.891 159.033 173.859 148.817 173.859C144.327 173.859 141.273 174.82 139.583 176.768C137.918 178.723 137.075 182.775 137.075 188.948V239.884Z" fill="#9C9C9C"/>
<path d="M159.276 135.302C159.159 133.938 159.808 132.514 159.374 131.196C159.192 130.642 158.826 130.136 158.791 129.56C158.767 129.198 158.884 128.84 158.978 128.486C159.335 127.13 159.276 125.702 159.215 124.303C159.111 121.772 159.01 119.222 158.479 116.74C157.698 113.147 156.218 109.518 154.228 106.438C151.999 102.984 150.814 98.9858 148.304 95.7231C144.371 90.6231 139.319 86.4818 134.31 82.3751C132.235 80.6724 130.154 78.9738 127.964 77.4191C126.095 76.0844 124.136 74.8244 122.194 73.5458C122.208 73.4978 122.216 73.4591 122.24 73.4178C122.544 71.1924 122.435 68.9164 122.135 66.6364C122.098 66.5538 122.082 66.4644 122.075 66.3511C122.068 66.2524 122.051 66.1698 122.051 66.0698C121.77 64.1338 121.352 62.2058 120.935 60.2978C120.895 60.2071 120.879 60.1378 120.879 60.0791C120.651 59.0111 120.418 57.9484 120.199 56.9084C119.566 53.7618 118.308 51.0898 116.691 48.4831C116.756 48.4671 116.828 48.4698 116.898 48.4391C117.172 48.2911 117.43 48.3444 117.703 48.5044C117.975 48.6658 118.244 48.7204 118.563 48.5684C118.744 48.4831 118.963 48.4698 119.166 48.4391C119.612 48.3684 120.018 48.2604 120.41 48.0444C120.778 47.8324 121.194 47.6804 121.652 47.6884C121.98 47.6964 122.295 47.5484 122.544 47.3631C122.81 47.1538 123.099 46.9991 123.412 46.8551C124.315 46.4258 125.062 45.8244 125.676 45.0444C126.619 43.8604 127.478 42.6271 128.239 41.3298C128.731 40.4791 129.114 39.5671 129.488 38.6724C129.656 38.2511 129.656 37.7644 129.86 37.3484C129.935 37.1884 129.996 37.0764 130.052 36.9951C130.067 36.6271 130.09 36.2711 130.134 35.9111C130.255 34.8164 130.434 33.7431 130.843 32.7391C130.843 32.6218 130.86 32.4831 130.906 32.2778C131.026 31.3978 131.135 30.5311 131.127 29.6404C131.127 28.7671 131.014 27.9018 130.906 27.0511C130.803 26.2764 130.788 25.4791 130.396 24.7431C130.154 24.2978 130.008 23.7884 129.754 23.3418C129.5 22.8898 129.204 22.4338 128.784 22.1204C128.47 21.8738 128.252 21.6071 128.16 21.2404C127.916 20.3991 127.659 19.5751 127.119 18.8551C126.986 18.6871 126.884 18.4711 126.808 18.2658C126.162 16.4538 125.126 14.8031 124.292 13.0711C123.866 12.1858 123.428 11.3004 123.114 10.3738C122.996 10.0858 122.92 9.76844 122.96 9.45644C122.982 9.22844 122.972 9.00978 122.836 8.81778C122.248 7.95778 122.004 6.90978 121.284 6.13511C121.206 6.06844 121.18 5.97244 121.144 5.88444C121.035 5.61911 120.851 5.39911 120.604 5.25645C119.824 4.78578 119.222 4.12311 118.638 3.45644C118.506 3.31377 118.384 3.15645 118.192 3.10978C117.475 2.90445 116.958 2.37378 116.414 1.95111C115.89 1.54978 115.328 1.36311 114.718 1.24844C114.316 1.16978 113.927 1.13511 113.574 0.912444C113.518 0.877777 113.434 0.836441 113.363 0.844441C112.887 0.936441 112.483 0.677774 112.034 0.621774C111.475 0.536441 110.943 0.380445 110.355 0.392445C108.875 0.411111 106.718 0.067107 105.447 0.75244C105.29 0.833774 105.135 0.964445 104.976 0.892445C104.602 0.712445 104.176 0.651111 103.804 0.485778C103.491 0.349778 103.206 0.245778 102.876 0.281778C102.459 0.311111 102.04 0.317781 101.642 0.128447C101.466 0.0511141 101.234 0.000442307 101.098 0.137776C100.726 0.504442 100.248 0.457776 99.8031 0.45111C99.3324 0.445776 98.8031 0.471106 98.4124 0.235106C97.4697 -0.296894 96.6377 0.217775 95.7644 0.380441C95.2284 0.813775 94.5177 0.81111 93.8897 1.00578C93.7484 1.04978 93.6057 1.01777 93.4697 0.90044C93.0884 0.529774 92.9751 0.54444 92.4777 0.90044C92.4724 1.05244 92.7764 0.923108 92.6937 1.15777C92.1777 1.31911 91.6711 1.49111 91.1031 1.52578C90.4511 1.58178 89.7737 1.52577 89.1297 1.75377C88.8551 1.84711 88.6177 1.90578 88.5124 2.24978C88.4444 2.52711 87.6551 2.82044 87.4951 2.64044C87.0977 2.18577 86.7444 2.45111 86.3204 2.59911C85.7191 2.82844 85.1964 3.17245 84.6471 3.48045C84.4204 3.59778 84.1711 3.69111 83.9257 3.78045C83.5137 3.91511 83.0697 4.02444 82.7244 4.30711C81.9044 4.95377 81.0044 5.46578 79.9724 5.75645C79.7044 5.83111 79.4351 5.92045 79.1537 6.00045C78.8457 6.08045 78.6151 6.21511 78.6111 6.61111C78.5937 6.92578 78.3764 7.15244 78.0564 7.25377C77.5977 7.39644 77.3111 7.68711 77.2431 8.16445C77.2191 8.28578 77.1391 8.35645 77.1017 8.46311C76.7657 9.09245 76.1471 9.44844 75.6617 9.92844C75.5684 10.0191 75.4444 10.0458 75.3431 9.98844C74.9044 9.71911 74.6857 9.92844 74.5231 10.3284C74.4897 10.4191 74.3724 10.4911 74.2911 10.5658C74.2071 10.6431 74.1271 10.7151 74.0897 10.8311C74.0217 11.0431 74.0831 11.1138 74.3497 11.1018C74.4111 11.1018 74.4817 11.0231 74.5364 11.1991C74.0217 11.6124 73.6337 12.1684 73.1857 12.6698C73.0204 12.8364 72.8164 13.0911 72.5191 12.7924C72.4417 12.6991 72.2871 12.7511 72.2151 12.8364C72.0191 13.0084 71.8564 13.1924 71.8231 13.4498C71.7911 13.6164 71.7564 13.7831 71.6271 13.9098C71.5257 14.0111 71.4871 14.1431 71.4124 14.2618C70.7284 14.2538 70.0404 14.2884 69.3591 14.3124C67.6924 14.3818 66.0351 14.5778 64.3617 14.6124C63.2751 14.6324 62.1737 14.6151 61.1231 14.9298C59.3271 15.4764 57.4564 15.8684 55.7417 16.6591C54.9471 17.0204 54.1177 17.3858 53.4511 17.9378C52.6004 18.6284 51.7457 19.2938 50.7404 19.7978C49.8924 20.2244 49.0777 20.6884 48.2137 21.1098C47.6977 21.3578 47.1004 21.4431 46.6111 21.7564C45.6497 22.3578 44.5244 22.6191 43.5297 23.1258C43.2257 23.2764 42.8177 23.2738 42.5204 23.4498C41.4457 24.0898 40.3604 24.7351 39.3457 25.4431C38.2697 26.1978 37.2071 26.9458 36.1404 27.6711C34.6871 28.6551 33.8417 30.0458 33.0271 31.4804C32.6591 32.1231 32.2484 32.7564 31.4551 32.9551C30.8524 33.1151 30.5484 33.5591 30.4857 34.0658C30.4111 34.7218 30.2991 35.3858 30.3351 36.0431C30.4031 37.1964 30.6737 38.3164 31.0711 39.4018C31.7351 41.1551 32.6137 42.8084 33.4591 44.4711C34.1017 45.7484 34.9511 46.9018 35.9604 47.9471C36.2777 48.2604 36.5724 48.5951 36.7804 49.0044C37.7911 51.0498 39.4871 52.5924 41.0377 54.2298C41.8164 55.0618 42.8417 55.6298 43.6631 56.4418C44.4991 57.2858 45.4497 58.0218 46.4431 58.6938C46.7511 58.8938 47.0577 59.1444 47.2537 59.4578C47.4524 59.7591 47.7631 59.9364 48.0457 60.1351C48.0257 60.1351 48.0111 60.1458 47.9857 60.1458C47.8551 60.1458 47.8057 60.3404 47.7484 60.4618C47.5537 60.9124 47.3684 61.3658 47.1351 61.7751C46.5084 62.9538 46.3604 64.2271 46.1497 65.4831C46.1177 65.6471 46.1044 65.8031 46.0751 65.9591C46.0311 66.1004 45.9617 66.1698 45.8791 66.1818C46.0484 68.5338 46.4764 70.8351 46.5724 73.2124C46.6031 74.0644 46.5831 74.9178 46.5484 75.7738C46.6351 75.8684 46.7204 75.9591 46.8231 76.0231C46.9151 76.0791 46.9231 76.2738 46.9457 76.4124C47.0017 76.8178 47.0257 77.2351 47.1004 77.6444C47.2204 78.4524 47.3217 79.2458 47.7177 80.0364C48.1911 80.9738 48.4951 82.0058 49.0111 82.9231C49.4031 83.6071 49.4417 84.4698 50.1697 84.9831C50.2591 85.0444 50.2591 85.1431 50.2591 85.2391C50.2004 85.8044 50.5804 86.2324 50.7964 86.7031C50.8484 86.8058 50.9191 86.9191 51.0364 86.9418C51.6871 87.0511 51.9604 87.5391 52.2524 87.9991C52.5084 88.3884 52.8431 88.5991 53.2977 88.7044C53.3271 88.4018 52.9484 88.1751 53.2097 87.9498C53.6577 87.5738 53.4124 87.2351 53.2737 86.8284C53.1111 86.3044 52.8871 85.8151 52.6711 85.3191C52.5004 84.9458 52.3671 84.5524 52.2031 84.1724C52.1044 83.9458 51.9604 83.7564 51.6724 83.9658C51.5604 84.0271 51.4511 84.0951 51.3511 83.9924C51.2377 83.8991 51.2377 83.7498 51.2804 83.6138C51.3577 83.4618 51.4977 83.3391 51.3417 83.1298C50.9137 82.5671 50.6711 81.9338 50.6457 81.2178C50.6377 81.0324 50.5804 80.8618 50.4231 80.7311C50.1617 80.4938 50.2004 80.2684 50.4017 80.0124C51.0137 80.4671 51.2724 81.1551 51.4911 81.7684C51.6724 82.2791 51.8511 82.8098 52.0617 83.3004C52.5004 84.3844 53.1191 85.3858 53.7031 86.3964C54.1577 87.1764 54.7604 87.8911 55.0804 88.7564C54.9044 88.7911 54.7484 88.6738 54.5871 88.7511C54.4511 88.8031 54.2937 88.8178 54.2471 88.9698C54.1951 89.1431 54.2591 89.2938 54.4044 89.4084C54.4857 89.4751 54.5871 89.5431 54.6964 89.5884C55.0084 89.7404 55.1311 89.9804 55.0871 90.3631C54.8911 90.1791 54.7217 90.0151 54.4591 90.0738C54.3217 90.0924 54.2537 90.1658 54.2937 90.3084C54.4044 90.6351 54.7951 90.8591 55.1111 90.7378C55.3471 90.6404 55.5684 90.5938 55.7604 90.7764C55.9951 90.9991 55.8777 91.2538 55.7724 91.4804C55.7057 91.6098 55.6271 91.7191 55.5404 91.8298C55.3764 92.0404 55.2631 92.2738 55.3057 92.5244V92.5631C57.4044 93.2791 59.1871 94.4684 60.4911 96.1178C60.5591 96.0084 60.6164 95.9071 60.6711 95.8018C60.8017 95.5271 61.1804 95.5044 61.4937 95.6244C62.0004 95.8298 62.3017 96.1791 62.4031 96.6991C62.4857 97.2084 62.8364 97.4124 63.2924 97.5138C63.3297 97.4431 63.3684 97.4124 63.3684 97.3658C63.3684 97.2018 63.0417 97.0884 63.2511 96.8951C63.3857 96.7671 63.5777 96.9044 63.7044 96.9671C64.2057 97.1898 64.6591 97.3911 64.9257 97.9471C65.0751 98.2618 65.4111 98.5084 65.5271 98.8871C65.5831 99.0591 65.7831 99.1711 65.9697 99.1911C66.4044 99.2578 66.7484 99.4698 67.0831 99.7151C66.0604 99.4338 65.0511 99.0391 64.1831 98.5618C62.5017 97.6271 60.6804 96.9244 58.8937 96.1684C58.1604 95.8604 57.4271 95.5524 56.7724 95.1218C56.1364 94.7044 55.4644 94.1471 54.7217 94.3044C54.9631 93.9364 54.9471 93.3658 54.5764 93.1351C54.2044 92.9071 53.5937 93.2884 53.7604 93.6938C53.8284 93.8578 53.9764 93.9684 54.1137 94.0698C55.0644 94.7111 56.0017 95.3591 56.9457 96.0004C58.0284 96.7471 59.1537 97.5138 60.4417 97.7578C60.4417 98.5898 61.1377 99.2711 61.8951 99.6324C62.6497 99.9898 63.4937 100.126 64.2484 100.475C65.6604 101.131 66.6617 102.492 68.0737 103.152C68.9911 103.571 70.0244 103.675 70.8937 104.18C71.5097 104.546 72.0097 105.076 72.4951 105.595C74.0377 107.258 75.7484 108.92 77.9337 109.518C79.0911 109.838 80.4377 109.896 81.2497 110.786C81.5444 111.115 81.7377 111.536 82.0911 111.828C82.4297 112.11 82.9444 112.552 82.6204 112.832C81.7937 112.044 80.7057 111.511 79.5844 111.351C79.4204 111.822 79.7217 112.336 80.1164 112.64C80.5204 112.944 80.9964 113.099 81.4337 113.354C81.7617 113.534 82.0831 113.794 82.3804 114.035C84.0537 115.438 85.7431 116.822 87.4311 118.21C88.2937 118.926 89.1604 119.64 90.0231 120.36C91.7964 121.82 93.6964 123.192 95.0577 125.08C95.4004 125.546 95.6964 126.043 96.0351 126.515C97.3951 128.384 99.3871 129.759 101.579 130.527C102.712 130.947 104.167 131.499 104.155 132.724C104.466 132.33 105.09 132.718 105.395 133.119C105.687 133.515 106.163 134.006 106.591 133.77C106.708 134.28 106.831 134.776 106.947 135.28C108.242 135.864 109.58 136.524 110.564 137.572C110.714 137.718 111.064 138.363 111.23 138.406C111.73 138.574 111.252 137.976 111.162 137.854C110.704 137.135 110.146 136.47 109.64 135.786C108.523 134.258 107.35 132.688 105.708 131.742C105.958 130.956 106.208 130.151 106.467 129.354C106.639 129.496 106.814 129.639 107.084 129.618C107.31 129.59 107.467 129.775 107.57 129.972C107.826 130.484 108.1 130.988 108.702 131.222C108.859 131.28 108.952 131.44 109.004 131.582C109.244 132.184 109.668 132.627 110.162 133.03C110.474 133.315 110.54 133.77 110.884 134.034C110.952 134.084 110.923 134.182 110.892 134.28C111.159 133.396 116.456 139.2 118.416 141.299C120.403 142.026 122.036 143.314 123.623 144.684C126.056 146.422 128.379 148.327 131.052 149.764C133.602 151.146 136.119 151.198 138.928 151.587C140.782 151.855 142.502 152.552 144.276 153.01C144.736 152.995 145.194 152.975 145.656 152.954C145.747 152.924 145.847 152.888 145.943 152.866C149.1 151.872 152.262 150.902 155.084 149.127C156.535 148.21 157.954 147.003 158.375 145.354C158.806 143.696 158.166 141.855 158.806 140.274C159.075 139.658 159.51 139.116 159.666 138.462C159.9 137.416 159.36 136.367 159.276 135.302ZM132.624 96.9538C134.056 99.8018 135.139 102.879 136.811 105.586C140.624 111.732 144.848 117.756 146.951 124.678C147.468 126.296 147.835 127.944 148.21 129.584L150.002 137.402C150.275 138.631 150.55 139.919 150.319 141.159C150.186 141.823 149.864 142.426 149.476 142.972C147.368 145.187 142.148 144.811 139.036 144.052C138.115 143.687 137.304 143.548 136.534 143.331C136.207 143.25 135.926 143.103 135.606 143C134.767 142.507 133.923 142.026 133.139 141.443C130.858 139.703 128.798 137.623 126.916 135.446C126.33 134.77 125.751 134.143 125.164 133.496C124.774 131.923 124.315 130.383 123.428 129.034C122.31 127.331 120.628 126.08 119.247 124.576C115.272 120.256 113.791 113.888 109.203 110.226C106.748 108.26 103.498 107.175 101.711 104.584C102.154 104.791 102.69 104.83 103.158 104.69C102.354 103.734 100.859 103.808 99.7551 103.215C98.6857 102.624 98.0764 101.455 97.2231 100.567C96.3791 99.6631 94.9084 99.0484 93.9657 99.8298L94.5404 100.076C93.6804 99.9631 92.7764 100.192 92.0844 100.718C94.1497 101.264 95.9177 102.843 96.6924 104.836C95.8017 103.962 94.6964 103.322 93.4964 102.978C93.5097 103.832 94.2431 104.458 94.9351 104.946C95.6284 105.431 96.4084 105.98 96.5497 106.814C96.6564 107.435 96.0924 108.075 95.5497 108.13C95.2991 107.923 95.0577 107.727 94.8071 107.516C94.7671 107.394 94.6964 107.28 94.6417 107.16C94.1737 105.996 92.8911 105.412 91.8311 104.735C90.7764 104.048 89.7737 102.776 90.2804 101.631C89.3097 101.418 88.3324 101.18 87.3617 100.959C88.0657 101.455 88.6764 102.078 89.1631 102.776C88.6377 102.876 88.1084 102.966 87.5884 103.047C87.0831 102.315 86.1724 101.932 85.2924 102.034C85.1324 101.926 84.9631 101.812 84.7964 101.702C83.8417 100.908 82.8884 100.13 81.9391 99.3391C81.7937 99.2151 81.6377 99.1018 81.4897 98.9804C80.7217 98.2658 79.9524 97.5471 79.1671 96.8484C75.8897 93.9684 72.1671 91.5791 68.1711 89.8151C67.2804 89.4284 66.3991 89.0284 65.5511 88.5511C65.5631 88.5191 65.5591 88.4938 65.5751 88.4671C65.4897 88.4498 65.4151 88.4311 65.3257 88.4151C65.1097 88.2871 64.8711 88.1898 64.6751 88.0404C62.3844 86.3831 61.2191 83.6324 59.9204 81.1231C59.2551 79.8431 58.5271 78.5884 57.7497 77.3738C57.9724 77.5391 58.2004 77.7018 58.4191 77.8671C58.6857 78.0764 58.9324 78.2871 59.1937 78.5004C58.6324 77.3818 57.7791 75.8684 57.0617 75.1871C55.5257 73.7231 54.2391 72.6004 54.6564 70.6511C54.2537 70.3164 53.8364 69.9884 53.3537 69.7538L52.7337 68.8364C52.7977 68.5244 52.9017 68.1884 53.0631 67.8218C53.2391 67.4484 53.3537 67.0658 53.2577 66.6284C53.1884 66.2671 53.2737 65.9031 53.4577 65.5644C53.6577 65.1884 53.8684 64.8231 54.1217 64.4871C54.2511 64.5804 54.3764 64.6858 54.5177 64.7604C55.6191 65.3484 56.7137 66.0151 57.6617 66.7924C58.3177 67.3444 59.0217 67.8484 59.6871 68.4071C62.8364 68.1258 65.5977 69.1378 68.2657 70.5258V70.4844C68.3071 70.0844 68.3071 70.0578 68.7751 70.1791C69.3217 70.1604 69.6231 70.7538 70.1631 70.9604C70.5097 71.0991 70.8537 71.2511 71.1964 71.4071C71.9431 71.7471 72.6524 72.1378 73.3791 72.5084C73.5351 72.5911 73.6924 72.6658 73.8644 72.7191C74.4111 72.8844 74.8497 73.1551 75.2097 73.6044C75.4977 73.9604 75.9297 74.2244 76.3431 74.4684C77.0751 74.9258 77.8444 75.3404 78.6111 75.7738C78.7351 75.8524 78.8591 75.9418 78.9711 76.0311C79.1004 76.1551 79.1537 76.2858 79.1191 76.4124C81.2497 77.5858 83.2871 78.8364 85.2857 80.1631C85.3017 80.1338 85.3164 80.0951 85.3364 80.0511C85.7817 80.1631 86.1417 80.3724 86.4471 80.5951C87.3697 81.2564 88.4577 81.6431 89.3484 82.2951C89.9711 82.7458 90.6244 83.1071 91.2871 83.4698C92.4657 84.0084 93.6444 84.5524 94.8591 85.0791C98.2537 86.5551 101.586 87.3631 105.126 87.6884C106.583 87.6138 107.956 87.2844 109.312 86.7618C110.294 86.3964 111.279 86.1244 112.247 85.7538C113.988 85.0631 115.568 84.1498 116.75 82.6444C117.391 81.8111 118.012 80.9738 118.595 80.0991C119.827 81.1844 121.098 82.2244 122.395 83.1991C127.082 86.7031 130.016 91.8471 132.624 96.9538V96.9538ZM73.6924 98.3618C73.3791 98.3938 73.1857 98.2244 72.9177 97.9004C73.1444 97.9084 73.3711 97.9004 73.5871 97.8978C73.6417 97.9991 73.7151 98.1044 73.7951 98.2204C73.8324 98.2791 73.7657 98.3511 73.6924 98.3618V98.3618ZM63.2711 58.6711C63.4444 58.6204 63.5871 58.4804 63.7484 58.3791C63.7484 58.3791 65.6684 58.5071 65.6764 58.4978C70.6657 59.4031 69.0897 55.0538 74.0377 53.9444C77.3844 53.1898 83.4164 53.8204 87.0111 54.3004C87.0564 54.3298 87.1284 54.3498 87.1831 54.3831C87.5497 54.6604 88.0257 54.6991 88.4657 54.7578C88.6671 54.7844 88.8617 54.8351 89.0671 54.8764C89.6844 55.1578 90.2804 55.5284 90.8351 56.0244C90.8231 56.0324 90.8231 56.0364 90.8351 56.0604C91.0537 56.2444 91.2604 56.4311 91.4671 56.6178C91.5004 56.6031 91.5457 56.6031 91.5871 56.6004L91.5537 56.6391C92.0964 57.0498 92.6124 57.4698 93.1471 57.8884C93.6604 58.2684 94.2351 58.5818 94.7751 58.9511C94.9351 59.0578 95.0871 59.1871 95.2364 59.3044C95.8764 59.5551 96.4871 59.8284 97.0671 60.1378C98.0617 60.8884 98.9724 61.7204 99.7884 62.6471C100.046 62.5298 100.374 62.5471 100.608 62.8284C101.518 63.9831 102.598 64.9578 103.739 65.8818C103.768 65.9244 103.807 65.9591 103.835 66.0058C104.108 66.1991 104.37 66.4004 104.638 66.5898C105.098 66.9484 105.56 67.2938 106.012 67.6484C106.476 68.0271 106.919 68.4231 107.42 68.7604C107.604 68.8951 107.788 69.0378 107.968 69.1778C108.038 69.2311 108.104 69.2751 108.172 69.3378C110.316 71.1338 112.16 73.2178 113.903 75.3684C113.732 75.4524 113.598 75.5858 113.411 75.6364C113.09 75.7298 112.747 75.7738 112.491 76.0084C112.27 76.2298 112.199 76.5724 112.112 76.8844C111.879 77.7658 111.424 78.5618 110.824 79.2418C110.251 79.4018 109.686 79.5404 109.094 79.6018C108.466 79.6604 107.859 79.8831 107.234 79.9964C106.124 80.2004 105.027 80.1098 103.932 79.8684C103.384 79.7538 102.908 79.5164 102.48 79.1164C101.452 78.1551 100.144 77.5764 98.9271 76.8924C97.9577 76.3471 96.9831 75.8298 96.0031 75.3218C94.9831 74.7964 93.9071 74.3791 92.8111 73.9604C92.1324 73.7018 91.4391 73.4311 90.7231 73.2204C88.0191 72.3564 85.5324 70.9938 83.0377 69.6778C83.0377 69.7138 83.0231 69.7458 83.0151 69.7831C82.9231 70.3831 82.7404 70.4844 82.1297 70.2564C81.1177 69.9058 80.1164 69.5271 79.1191 69.1378C78.9097 69.0631 78.7351 68.9164 78.5404 68.7938C78.3297 68.6618 78.1471 68.4751 77.9191 68.4031C76.6511 67.9458 75.7004 67.0231 74.6231 66.3191C74.1684 66.0418 73.7991 65.6471 73.4297 65.2591C72.2577 64.8111 71.0871 64.3684 69.8924 63.9738C66.8897 63.0231 67.3977 63.6138 65.0271 61.6071C65.0057 61.6071 64.9884 61.6151 64.9524 61.6071C64.1657 61.5098 63.4511 61.2138 62.8137 60.7818C62.2577 60.4031 61.7311 59.9778 61.1871 59.5791C61.8751 59.2671 62.5484 58.9018 63.2711 58.6711V58.6711ZM61.7471 52.3818C61.8751 52.1218 62.0751 51.9484 62.4031 51.9938C62.2204 52.2124 62.0164 52.3578 61.7471 52.3818ZM88.9644 38.8164C84.9417 40.2084 80.0817 39.8618 76.5244 37.4204C76.4711 37.4404 76.4324 37.4204 76.3911 37.3818C76.3071 37.3031 76.2257 37.2258 76.1471 37.1511C76.0231 37.0644 75.9071 36.9871 75.7937 36.8924C72.4337 34.1778 70.6724 30.5391 71.5324 26.3284C71.8924 24.6351 72.6337 23.0698 73.5577 21.6124C75.8737 21.4404 78.2124 21.3551 80.2377 21.4244C81.2071 22.2578 82.1697 23.0871 83.3737 23.3871C83.8351 23.5111 84.2964 23.5404 84.7564 23.6684C85.3737 23.8604 85.9351 24.2204 86.4711 24.5671C88.7937 26.0964 91.1244 27.6178 93.4484 29.1551C94.3297 29.7324 95.2364 30.3204 96.2391 30.6404C96.7817 30.8124 97.3324 30.9111 97.8364 31.1538C98.0444 31.2498 98.1857 31.4178 98.3564 31.5551C98.8804 33.2564 99.5364 34.9058 100.547 36.3738C100.655 36.5284 100.792 36.6738 100.907 36.8298C100.711 36.9578 100.547 37.1044 100.319 37.2098C99.1391 37.7724 97.9111 38.0924 96.6564 38.2738C94.8217 38.9178 93.5564 39.4351 89.6377 38.8911C89.5671 38.8978 89.5057 38.9071 89.4297 38.9178C89.4377 38.8978 89.4497 38.8911 89.4497 38.8711C89.2897 38.8511 89.1297 38.8391 88.9644 38.8164V38.8164ZM104.176 1.18978C104.282 1.11111 104.386 0.996448 104.508 1.12711C104.543 1.14978 104.535 1.23911 104.494 1.27911C104.386 1.39645 104.272 1.31111 104.155 1.26045C104.164 1.21911 104.164 1.18978 104.176 1.18978V1.18978ZM91.2964 3.78977C91.9231 3.67244 92.4497 3.33644 93.0391 3.14044C93.1217 3.10977 93.2111 3.05378 93.2857 3.03645C94.4151 2.78445 95.5497 2.56577 96.6924 2.40177C97.6857 2.26577 98.6857 2.22178 99.6791 2.05778C99.8164 2.03778 99.9471 2.05778 100.078 2.08178C100.227 2.10578 100.374 2.15778 100.53 2.13111C101.491 2.00178 102.459 2.22178 103.415 2.24978C103.944 2.27644 104.466 2.41777 104.976 2.58577C105.312 2.69911 105.363 2.89911 105.076 3.08178C104.73 3.31378 104.442 3.59778 104.164 3.91244C104.007 4.10978 103.863 4.09911 103.624 4.00578C103.314 3.87244 103.019 3.80044 103.064 3.37511C103.099 3.17644 102.899 3.09778 102.72 3.07111C102.539 3.04311 102.354 3.01245 102.16 3.01911C101.778 3.05378 101.407 3.04311 101.031 3.00311C100.859 2.98844 100.688 2.99644 100.547 3.14044C100.639 3.30444 100.804 3.28978 100.946 3.29645C101.167 3.30445 101.407 3.31378 101.635 3.31378C101.711 3.31378 101.778 3.32044 101.811 3.39511C101.867 3.49244 101.778 3.51245 101.719 3.55778C101.579 3.70445 101.638 3.97378 101.82 4.01645C101.928 4.04311 101.984 3.98311 102.04 3.89111C102.168 3.69111 102.354 3.73778 102.475 3.87245C102.779 4.21778 103.182 4.26711 103.606 4.26711C103.902 4.26711 104.059 4.39911 104.1 4.68044C104.176 5.30311 104.402 5.88445 104.716 6.42578C103.932 6.32845 103.144 6.21511 102.368 6.10044C102.267 6.08978 102.135 6.06845 102.04 6.01511C101.876 5.92845 101.876 5.76711 102 5.64978C102.168 5.50578 102.376 5.42044 102.622 5.56444C103.002 5.80311 103.36 5.75645 103.691 5.46311C103.902 5.28178 103.915 5.20178 103.667 5.09511C103.532 5.04045 103.37 4.96978 103.23 4.98978C102.563 5.09511 102.086 4.64311 101.54 4.42978C101.316 4.34844 101.031 4.03511 101.138 3.66711C101.167 3.54845 101.092 3.49644 100.98 3.47377C100.804 3.43111 100.616 3.35511 100.432 3.37511C99.9631 3.43778 99.5444 3.22978 99.1311 3.09778C98.4511 2.87911 97.8164 3.01244 97.1924 3.24578C96.8164 3.37911 96.4404 3.33644 96.0737 3.33644C94.9564 3.34711 93.8897 3.49645 92.8017 3.74178C91.9911 3.93111 91.1551 4.12311 90.3031 4.13778C90.6004 3.91778 90.9511 3.85111 91.2964 3.78977V3.78977ZM100.474 5.74444C100.194 5.74444 99.9791 5.74045 99.6857 5.62711C99.9977 5.51378 100.211 5.53778 100.474 5.74444ZM99.6657 4.02444C99.5617 4.03511 99.4751 3.98978 99.4591 3.89111C99.4484 3.78045 99.5297 3.74178 99.6937 3.73111C99.7417 3.72178 99.8164 3.75111 99.8217 3.86311C99.8271 3.95777 99.7551 4.01644 99.6657 4.02444ZM100.452 4.38444C100.406 4.26444 100.466 4.17244 100.603 4.13778C100.766 4.10978 100.828 4.21377 100.883 4.28977C100.93 4.44311 100.874 4.52045 100.778 4.53645C100.632 4.57111 100.504 4.53644 100.452 4.38444ZM89.7311 6.12577C90.0057 6.05644 90.2937 6.00044 90.6937 6.00578C90.3804 6.36311 90.0457 6.33111 89.7244 6.33111C89.6844 6.33111 89.6311 6.26978 89.6164 6.22445C89.6031 6.16311 89.6697 6.13511 89.7311 6.12577ZM85.5977 3.68044C85.6404 3.60844 85.6951 3.52311 85.8044 3.53911C85.9004 3.62578 85.8511 3.70444 85.8044 3.78977C85.7657 3.88044 85.6951 4.00578 85.5644 3.91244C85.4764 3.86311 85.5564 3.75111 85.5977 3.68044ZM81.2977 6.71111C81.3724 6.68711 81.4417 6.66977 81.5044 6.73377C81.5044 6.80444 81.4511 6.81645 81.4031 6.83511C81.3404 6.83911 81.2577 6.85911 81.2231 6.77645C81.2231 6.77645 81.2697 6.72578 81.2977 6.71111V6.71111ZM76.9551 13.9791C76.9457 13.8964 77.0231 13.7831 77.1097 13.7831C77.6337 13.8071 77.6884 13.3231 77.9391 13.0551C78.0631 12.9191 78.1897 12.7311 78.3217 12.5884C78.2817 12.4964 78.2204 12.5058 78.1644 12.5124C78.0977 12.5151 78.0164 12.5151 77.9924 12.4391C77.9711 12.3698 78.0164 12.3084 78.0911 12.2858C78.2471 12.2551 78.3684 12.2084 78.4857 12.1178C78.6351 12.0004 78.7911 11.9671 78.9857 12.0391C79.3297 12.1791 79.6164 12.0791 79.8951 11.8684C80.4164 11.4844 80.9751 11.1671 81.5751 10.9084C82.1111 10.6751 82.6697 10.5058 83.1871 10.2804C83.7177 10.0618 84.2524 9.84311 84.7844 9.63244C85.5644 9.34978 86.3537 9.05244 87.1364 8.77377C87.3697 8.69777 87.6004 8.60977 87.9217 8.67644C87.5177 9.07644 86.9577 9.09245 86.5631 9.40845C87.6964 9.37778 88.7071 8.97244 89.7391 8.64177C91.1857 8.18311 92.6631 7.89378 94.1737 7.74311C95.4751 7.62178 96.7911 7.62178 98.0844 7.55378C98.7484 7.52311 99.4324 7.59911 100.096 7.72311C101.122 7.91911 102.154 7.88045 103.191 7.96445C103.55 8.00445 103.784 7.74311 104.066 7.57911C104.207 7.49644 104.307 7.38044 104.26 7.21111C104.64 7.35111 104.879 7.58978 105.067 7.98578C105.33 8.50044 105.68 8.99111 106.163 9.35778C106.254 9.43644 106.379 9.50311 106.451 9.59644C106.971 10.4298 107.89 10.7684 108.688 11.2591C108.811 11.3244 108.914 11.3858 108.928 11.5271C108.97 11.9858 109.328 12.1498 109.704 12.2378C110.471 12.4284 111.159 12.7791 111.886 13.0324C112.37 13.2084 112.656 13.6231 112.984 13.9631C113.84 14.9058 114.583 15.9311 115.242 17.0204C115.679 17.7458 116.044 18.5191 116.562 19.1991C116.684 19.3524 116.742 19.5204 116.82 19.6671C116.93 19.9151 117.006 20.1804 117.168 20.3764C117.799 21.1724 117.962 22.0738 117.938 23.0244C117.891 24.4871 117.49 25.8591 116.828 27.1484C116.798 27.2418 116.75 27.3084 116.711 27.3671C116.599 28.9831 115.632 30.1698 114.351 31.0511C114.33 31.0578 114.316 31.0818 114.304 31.0898C113.551 31.6818 112.832 32.3071 112.066 32.8538C111.032 33.5964 109.852 34.0098 108.634 34.3084C108.504 34.3391 108.374 34.3778 108.25 34.4124C107.847 33.9258 107.42 33.4604 106.89 33.0938C106.411 32.7564 106.036 32.3418 105.708 31.8684C105.33 31.3218 104.962 30.7804 104.307 30.4804C103.964 30.3204 103.723 30.0018 103.491 29.7124C103.331 29.5258 103.174 29.3231 102.974 29.1778C101.452 27.9804 99.9977 26.6751 98.1377 25.9444C98.1004 25.9204 98.0444 25.8924 98.0124 25.8631C97.6991 25.5511 97.2777 25.4618 96.8471 25.3658C96.6084 25.3018 96.3471 25.2524 96.1244 25.1618C95.2951 24.8231 94.5017 24.3818 93.5857 24.2311C93.4697 24.2204 93.3524 24.1458 93.2497 24.0804C92.7337 23.7231 92.1724 23.4271 91.6324 23.1258C91.2964 22.9271 90.8737 22.8418 90.5911 22.5524C90.0951 22.0418 89.3097 22.0178 88.8084 21.5058C87.9271 21.4658 87.3057 20.7124 86.4151 20.7124C86.3044 20.7124 86.1804 20.6098 86.0951 20.5284C85.3431 19.7978 84.2617 19.6671 83.4164 19.0738C82.8644 18.6871 82.2177 18.4711 81.6297 18.1484C80.3564 17.3964 79.0737 16.6804 77.7471 16.0204C77.5071 15.8938 77.2644 15.7644 77.0084 15.6418C77.1377 15.5151 77.2777 15.3898 77.4151 15.2631C77.6884 15.0071 77.8444 14.7044 78.0164 14.2844C77.5391 14.4964 77.2977 14.8631 76.8524 15.0951C76.8671 14.6818 77.0177 14.3431 76.9551 13.9791V13.9791ZM74.7484 14.4018C74.8737 14.4724 74.9231 14.5938 74.9044 14.7298C74.8897 14.7711 74.8497 14.8524 74.7791 14.9231C74.6391 14.8791 74.4991 14.8444 74.3591 14.7964C74.3084 14.7791 74.2711 14.7711 74.2151 14.7564C74.3084 14.6871 74.3884 14.6018 74.4671 14.5218C74.5444 14.4484 74.6311 14.3431 74.7484 14.4018V14.4018ZM42.6017 41.9364C43.7857 40.4538 43.6791 38.1164 42.3897 36.7324C44.3204 35.2031 44.4057 32.0244 46.4697 30.6738C47.0871 30.2644 47.8297 30.0778 48.5404 29.8938C49.7591 29.5924 50.9737 29.2858 52.2031 28.9831C54.4151 28.4231 56.6764 27.8524 58.5857 26.5978C58.2004 24.5591 60.7097 23.3098 62.7444 22.9098C63.4684 22.7738 65.2577 22.4951 67.5231 22.2151C67.3737 22.4991 67.2484 22.8124 67.0831 23.0778C67.1377 23.4231 67.1844 23.7631 67.2244 24.1071C67.2631 24.2498 67.1324 24.2951 67.0217 24.3218C66.4391 24.4791 66.2444 24.9511 66.0951 25.4431C65.9964 25.7644 66.1377 26.0498 66.3804 26.2618C66.5124 26.3831 66.5724 26.4444 66.4884 26.6124C66.1377 27.3911 66.1297 28.2218 66.0711 29.0418C66.0511 29.2738 66.0644 29.4871 65.8711 29.6551C65.6191 29.8418 65.6444 30.0604 65.7537 30.3124C65.9964 30.9484 66.1297 31.6084 66.3884 32.2484C66.6057 32.8031 66.5444 33.2231 66.2311 33.6124C67.3417 35.1164 68.0151 36.8111 69.0537 38.4311C69.2684 38.7764 69.5004 39.1124 69.7257 39.4498C69.7777 39.4804 69.8364 39.5124 69.9004 39.5631C70.0244 39.6538 70.1351 39.7684 70.2111 39.8871C70.4617 40.2818 71.9017 40.4978 72.2577 40.7711C72.4284 40.9071 72.6591 41.1151 72.8564 40.7604C72.9271 40.6258 73.0684 40.7124 73.1484 40.7644C73.8804 41.1964 74.6777 41.4164 75.4831 41.6284C76.1324 41.8004 76.7177 42.1058 77.3671 42.2538C77.4377 42.2698 77.4844 42.2911 77.5244 42.3311C78.1537 42.8644 78.9097 42.7844 79.6511 42.7298C80.1897 42.6858 80.7057 42.7098 81.2231 42.8404C81.3244 42.8644 81.4337 42.8898 81.5351 42.8991C82.0831 42.8404 82.6204 42.8404 83.1231 42.8898C83.2004 42.8831 83.2671 42.8698 83.3337 42.8644C84.0951 42.7658 84.9217 42.7098 85.7031 42.7844C87.4204 42.9604 88.8391 43.5271 90.3804 44.2484C90.5137 44.3018 90.6311 44.3778 90.7484 44.4391C90.8404 44.4311 90.9311 44.4191 91.0217 44.4284C91.0684 44.4311 91.1031 44.4124 91.1364 44.4031C91.9431 44.2738 91.9431 44.2738 91.6711 43.5551C92.4257 43.2111 93.2111 43.1791 94.0324 43.2618C94.4551 43.3111 94.8844 43.3178 95.3111 43.2151C96.7977 42.5564 98.3644 42.2018 100.144 42.2991C102.955 42.4484 105.426 43.3311 107.742 44.6724C108.735 46.0738 109.466 47.6378 108.952 49.2084C110.299 51.7391 111.636 54.2764 112.976 56.8071C113.635 58.0498 114.343 59.3484 115.507 60.1178C115.8 60.2978 116.1 60.4538 116.306 60.7044C116.538 61.0164 116.62 61.4244 116.663 61.8111C116.798 63.0471 116.684 64.3031 116.374 65.5018C116.152 65.0804 115.92 64.6644 115.687 64.2471C115.718 65.9364 116.155 67.5898 116.339 69.2644C114.999 68.1178 113.732 66.8938 112.644 65.5018C111.064 63.4804 109.58 61.5458 107.42 60.1218C105.814 59.0898 103.924 58.5511 102.295 57.5524C98.6857 55.3604 96.4697 51.0138 92.3324 50.0071C91.2244 49.7298 90.0591 49.7298 88.9257 49.7298L85.5817 49.7378C85.2857 49.6844 84.9844 49.6391 84.6791 49.5924C83.6044 49.4404 82.5684 49.1591 81.4804 49.0378C80.3711 48.9044 79.2564 48.8564 78.1564 49.1004C76.7337 48.8524 75.3271 48.7204 74.0604 49.0044C73.9431 48.9871 73.8124 48.9698 73.6924 48.9978C73.2977 49.0631 72.8951 49.0218 72.5124 49.0831C71.4711 49.2538 70.4097 49.2671 69.3831 49.5218C68.4284 49.7604 67.4684 49.9644 66.5057 50.1938C66.4191 50.2058 66.3191 50.2058 66.2311 50.2364C65.6071 50.4711 64.9884 50.6111 64.3151 50.6524C63.4604 50.7071 62.6897 51.0978 61.9031 51.4031C60.5897 51.9231 59.3671 52.5951 58.1057 53.2311C57.1177 53.7378 56.2497 54.4151 55.2911 54.9404C52.4684 52.6511 50.1271 50.4204 48.0111 46.6058C46.8231 44.4471 45.0297 42.3444 42.6017 41.9364V41.9364ZM50.0044 78.5231C50.2737 78.8564 50.3257 79.1244 50.2897 79.4231C50.1031 79.1871 49.9431 78.9444 50.0044 78.5231ZM53.6644 83.6578C53.5244 83.6071 53.4124 83.5044 53.4831 83.3524C53.5511 83.2124 53.7111 83.1764 53.8524 83.2298C54.0097 83.2711 54.0591 83.3991 54.0164 83.5511C53.9377 83.7204 53.8044 83.7204 53.6644 83.6578V83.6578ZM102.854 126.246C101.399 125.135 99.9337 124.016 98.4711 122.894C97.6737 122.288 96.8631 121.678 96.1217 121.012C94.8217 119.856 93.6604 118.511 92.7697 117.018C92.5164 116.6 92.3111 116.158 92.1324 115.708C92.1671 115.638 92.1777 115.551 92.1777 115.446C92.1871 115.144 92.3817 114.879 92.6564 114.831C92.9417 114.787 93.2111 114.954 93.3204 115.247C93.4137 115.48 93.6524 115.638 93.7031 115.888C93.5804 116.103 93.3897 115.963 93.2497 115.976C93.0631 115.99 92.9057 116.024 92.8351 116.192C92.7431 116.4 92.8511 116.55 93.0017 116.675C93.0631 116.748 93.1337 116.819 93.2111 116.862C93.5564 117.052 93.8337 117.26 93.9071 117.695C93.9417 117.916 94.2351 117.983 94.4417 118.112C94.6911 118.284 94.9351 118.476 95.1817 118.642C95.5337 118.851 95.6084 118.812 95.7364 118.375C95.7457 118.311 95.7644 118.25 95.8617 118.226C96.0737 118.392 96.0351 118.607 96.0271 118.847C96.0111 119.222 96.5751 119.704 96.9577 119.696C96.9577 119.696 96.9964 119.696 97.0257 119.691C97.1684 119.64 97.1097 119.239 97.4017 119.478C97.6297 119.683 97.3777 119.856 97.3497 120.038C97.4697 120.188 97.5431 120.014 97.6457 119.996C97.8364 119.962 97.9711 120.004 97.9177 120.251C97.7471 121.066 97.7471 121.071 98.5217 121.37C98.6857 121.428 98.8191 121.519 98.9191 121.647C99.0831 121.834 99.2244 121.968 99.5217 121.834C99.8164 121.711 100.046 121.922 100.296 122.078C100.859 122.44 101.143 123.043 101.626 123.494C101.859 123.708 102.063 123.962 102.342 124.146C102.452 124.231 102.598 124.323 102.638 124.44C102.818 125.08 103.4 125.272 103.915 125.502C104.543 125.812 104.73 126.446 105.147 126.883C105.239 126.992 105.239 127.158 105.118 127.276C105.035 127.367 105.035 127.472 105.043 127.591C105.043 127.634 105.035 127.676 105.035 127.718C104.282 127.284 103.556 126.788 102.854 126.246V126.246ZM105.33 127.871C105.363 127.852 105.412 127.863 105.447 127.828C105.52 127.754 105.59 127.703 105.692 127.754C105.791 127.852 105.755 127.978 105.748 128.095C105.607 128.027 105.464 127.954 105.33 127.871Z" fill="#9C9C9C"/>
</svg>
