<svg width="260" height="321" viewBox="0 0 260 321" fill="none" xmlns="http://www.w3.org/2000/svg">
<path d="M78.1039 50.6255C77.8586 50.5109 77.6506 50.6429 77.4626 50.7735C77.3119 50.8749 77.1332 50.9815 77.0186 51.1175C76.1732 52.0629 75.2239 52.9269 74.6586 54.0775C74.3906 54.6149 74.0052 55.0122 73.4346 55.4309C73.4346 54.6642 73.5852 54.0949 73.7959 53.5082C74.4332 51.7082 75.1252 49.9309 75.8559 48.1655C76.0532 47.6749 76.1879 47.1415 76.2639 46.6202C76.4212 45.5349 75.5572 44.8455 74.5292 45.2055C73.9679 45.4029 73.5546 45.8029 73.1692 46.2415C71.5759 48.0669 70.1866 50.0269 69.0092 52.1455C68.3546 53.3215 67.6879 54.4829 67.4132 55.8282C66.9159 58.1749 66.9652 60.5469 66.9652 62.9309C66.9652 63.4175 67.0386 63.9295 67.1679 64.4082C67.3159 64.9535 68.1319 65.4162 68.7292 65.3495C69.4012 65.2829 69.4439 64.7562 69.5026 64.2509C69.5439 63.9495 69.5759 63.6402 69.6452 63.3482C69.9826 61.9882 70.5786 60.7842 71.6799 59.6855C71.8719 60.3389 71.9412 60.8402 71.7652 61.3669C71.4999 62.1455 71.4786 62.9469 71.5332 63.7602C71.5586 64.0282 71.5652 64.3429 71.8866 64.3922C72.2052 64.4335 72.3586 64.1522 72.4479 63.8962C72.5946 63.4922 72.7812 63.1202 73.1412 62.8562C73.3679 62.6949 73.5119 62.4722 73.4612 62.1709C73.3932 61.7415 73.6572 61.4802 73.8906 61.1642C74.5666 60.2549 75.3746 59.3709 75.0732 58.0682C74.9959 57.7109 75.1919 57.3895 75.4452 57.1335C75.7999 56.7749 76.0119 56.3175 76.3252 55.9269C76.8679 55.2095 76.8972 54.1775 77.4866 53.5829C78.1986 52.8642 78.2719 52.1082 78.2719 51.2335C78.2652 51.0069 78.3626 50.7575 78.1039 50.6255Z" fill="#9C9C9C"/>
<path d="M150.221 107.84C150.268 107.757 150.304 107.667 150.409 107.699C150.409 107.699 150.429 107.78 150.427 107.821C150.397 107.905 150.355 107.996 150.24 108.004C150.172 107.953 150.2 107.888 150.221 107.84ZM149.951 114.205C150.077 114.165 150.12 114.32 150.161 114.428C150.193 114.528 150.24 114.636 150.144 114.743C149.997 114.759 149.94 114.643 149.881 114.553C149.825 114.428 149.753 114.264 149.951 114.205V114.205ZM184.048 98.7652C183.969 98.9866 183.895 99.2186 183.819 99.4412C183.749 99.7466 183.707 100.051 183.633 100.357C181.469 109.316 176.029 116.131 166.987 118.524C161.175 120.061 155.068 119.54 149.279 118.087C149.291 117.688 149.517 117.124 149.743 117.112C150.512 117.064 150.52 116.493 150.68 115.973C150.913 115.213 150.976 114.428 151.095 113.645C151.141 113.315 151.231 112.999 151.341 112.687C151.509 112.173 151.756 111.671 151.735 111.1C151.717 109.779 151.9 108.5 152.388 107.26C152.521 106.923 152.643 106.591 152.784 106.261C152.933 105.891 152.969 105.551 152.589 105.237C152.276 104.983 152.219 104.585 152.365 104.197C152.571 103.636 152.504 103.124 152.084 102.687C151.977 102.58 151.953 102.439 151.893 102.315C151.509 101.497 151.637 100.605 151.524 99.7546C151.495 99.5972 151.581 99.4479 151.717 99.3999C152.321 99.1679 152.264 98.7866 151.993 98.3239C151.932 98.2079 151.953 98.0426 151.943 97.9106C151.932 97.7586 151.907 97.6212 151.825 97.4972C151.66 97.2706 151.549 97.2746 151.369 97.5386C151.316 97.6039 151.339 97.7372 151.105 97.6546C151.095 96.8319 150.835 96.0119 150.691 95.1772C150.637 94.8892 150.537 94.4759 151.076 94.4252C151.224 94.4132 151.271 94.2359 151.265 94.0826C151.243 93.7652 151.188 93.4679 150.948 93.2212C150.807 93.0626 150.669 92.9066 150.633 92.6759C150.487 91.7572 149.923 91.0239 149.493 90.2386C148.964 89.2479 148.42 88.2732 147.916 87.2746C147.797 87.0399 147.751 86.9079 147.761 86.8039C147.429 86.2759 147.172 85.6972 147.023 85.0506C146.729 84.5666 146.432 84.1039 146.155 83.6159C145.652 82.7319 145.255 81.9146 144.948 81.0639C144.557 80.8652 144.188 80.6452 143.808 80.4212C143.647 80.3359 143.703 80.1812 143.76 80.0412C144.047 79.3506 143.711 78.7866 143.336 78.2546C143.107 77.9146 142.693 77.8279 142.308 77.9106C142.077 77.9506 141.971 77.9506 141.859 77.7372C141.361 76.7879 140.527 76.1439 139.756 75.4532C139.536 75.2519 139.317 75.0932 139.311 74.7639C139.297 74.3852 139.059 74.2359 138.733 74.1412C137.911 73.8892 137.141 73.5079 136.311 73.2692C135.584 73.0546 135.215 72.6666 135.065 72.0599C132.692 71.9972 130.501 71.3372 128.087 71.1052C127.567 71.0572 127.061 71.0239 126.539 70.9986C126.479 71.0199 126.399 71.0386 126.292 71.0706C126.109 71.1146 125.919 71.1386 125.731 71.1239C125.147 71.0706 124.591 71.2586 124.047 71.3852C123.773 71.4492 123.388 71.5266 123.6 72.0106C123.672 72.1799 123.489 72.2532 123.36 72.2946C122.359 72.6666 121.511 73.2866 120.671 73.9266C120.008 74.4252 119.237 74.7732 118.583 75.3026C118.525 75.3466 118.453 75.3839 118.388 75.3959C117.367 75.5986 116.859 76.3999 116.355 77.1852C115.979 77.7466 115.551 78.2452 115.021 78.6572C114.904 78.7399 114.805 78.8306 114.723 78.9252C114.377 79.5119 113.956 80.0492 113.493 80.5119C113.453 80.5852 113.416 80.6639 113.369 80.7359C112.877 81.5652 112.303 82.4359 111.627 83.1452C110.145 84.7066 108.447 85.6812 106.521 86.6332C106.371 86.7132 106.197 86.7879 106.033 86.8452C106.024 86.8652 106.009 86.8786 106.001 86.8959C105.9 86.7066 105.799 86.5159 105.691 86.3252C105.016 85.0972 104.532 83.7239 104.159 82.3666C103.581 80.2306 102.529 78.3132 101.749 76.2746C101.469 75.5452 100.76 75.3599 100.18 74.9959C99.8801 74.7972 99.5761 74.7399 99.2761 74.9706C99.1908 74.1039 99.4588 73.4359 100.027 72.7079C100.789 71.7266 94.8628 74.4506 95.1988 72.5932C95.2708 72.2119 95.2734 71.7666 95.4308 71.4492C96.7534 68.7972 96.5294 65.7719 96.7534 62.8519C96.7814 62.4386 96.8028 62.0386 97.1014 61.8119C98.0681 61.0386 98.0774 59.8346 97.8761 58.6532C97.4841 56.2706 97.5214 53.8426 97.3281 51.4359C97.1948 49.8746 97.8201 48.4626 98.2588 47.0679C99.4414 43.3506 100.96 39.8666 102.692 36.5012C103.86 34.2426 105.219 32.1332 106.184 29.7106C106.385 29.1972 106.689 28.7892 106.979 28.3546C107.396 27.7119 107.9 27.0906 108.184 26.3492C109.289 23.4919 111.151 21.7852 113.325 20.4986C116.647 18.5372 120.151 17.7519 123.779 17.7492C124.029 17.7519 124.236 17.7599 124.417 17.7932C128.144 15.7946 131.871 16.8439 135.232 19.1639C135.275 19.1839 135.323 19.1972 135.367 19.2226C137.499 20.4679 139.667 21.6132 141.751 22.9786C144.501 24.7879 146.723 27.4866 148.699 30.4866C149.733 32.0599 150.777 33.5586 152.204 34.5692C152.619 34.8639 152.997 35.3239 153.292 35.8119C154.281 37.4799 155.383 39.0106 156.484 40.5599C157.911 42.5666 159.308 44.6012 160.761 46.5759C161.015 46.9106 161.329 47.2732 161.561 47.6372C162.464 48.0906 163.336 48.7079 164.153 49.5199C166.677 52.0132 165.416 57.3652 166.924 59.5786C170.144 63.4266 172.897 67.6039 174.652 72.2532C174.748 72.3692 174.817 72.4932 174.916 72.6132C174.861 72.6252 174.832 72.6159 174.789 72.6159C174.897 72.9399 175.028 73.2652 175.147 73.5959C181.591 79.8639 185.439 89.3892 184.004 98.4692C184.057 98.5466 184.093 98.6412 184.048 98.7652V98.7652ZM149.075 123.017C150.12 122.347 151.209 122.431 152.453 122.075C151.628 123.033 150.184 123.396 149.075 123.017V123.017ZM144.501 126.121C143.864 127.22 143.149 128.253 142.552 129.367C142.459 129.515 142.344 129.623 142.227 129.739C142.08 129.871 141.916 129.987 141.825 130.143C141.204 131.217 140.249 132.003 139.471 132.927C139.048 133.431 138.493 133.835 137.935 134.197C137.552 134.453 137.313 134.347 137.347 133.908C137.385 133.372 137.313 132.861 137.195 132.349C137.128 132.035 137.249 131.895 137.524 131.739C137.888 131.531 138.193 131.291 138.587 131.679C138.776 131.869 139.001 131.739 139.164 131.589C139.345 131.431 139.521 131.265 139.652 131.069C139.916 130.663 140.209 130.3 140.549 129.953C140.689 129.805 140.817 129.623 140.771 129.375C140.527 129.335 140.419 129.499 140.305 129.641C140.124 129.855 139.945 130.085 139.771 130.3C139.712 130.381 139.637 130.457 139.533 130.423C139.401 130.4 139.459 130.293 139.448 130.201C139.401 129.947 139.087 129.796 138.897 129.937C138.785 130.029 138.807 130.143 138.847 130.259C138.959 130.548 138.769 130.689 138.547 130.697C137.955 130.723 137.591 131.085 137.275 131.505C137.035 131.795 136.788 131.852 136.463 131.663C135.757 131.257 134.996 131.028 134.193 130.896C134.915 130.201 135.615 129.515 136.336 128.821C136.433 128.732 136.547 128.632 136.677 128.575C136.903 128.468 137.065 128.591 137.084 128.813C137.103 129.101 137.024 129.375 136.692 129.508C136.165 129.697 135.936 130.085 135.983 130.656C136.004 130.993 136.073 131.076 136.373 130.912C136.54 130.82 136.735 130.713 136.812 130.556C137.224 129.812 138.055 129.697 138.687 129.325C138.952 129.177 139.484 129.136 139.784 129.533C139.877 129.656 139.992 129.623 140.091 129.549C140.271 129.4 140.503 129.259 140.623 129.069C140.924 128.549 141.455 128.301 141.912 127.988C142.661 127.484 143.011 126.757 143.253 125.948C143.271 125.893 143.309 125.851 143.332 125.797C143.753 125.881 144.176 125.927 144.601 125.928C144.561 125.989 144.536 126.057 144.501 126.121V126.121ZM138.209 135.099C138.175 135.105 138.079 135.024 138.076 134.973C138.041 134.752 138.221 134.719 138.355 134.636C138.383 134.677 138.411 134.693 138.411 134.709C138.397 134.875 138.447 135.064 138.209 135.099ZM138.887 126.544C138.764 126.948 138.583 127.137 138.157 127.237C138.383 126.948 138.553 126.741 138.887 126.544ZM132.692 131.093C131.924 130.936 131.119 130.903 130.336 131.076C130.175 131.117 130.008 131.201 129.849 131.183C128.529 131.035 127.433 131.703 126.269 132.132C126.105 132.192 125.953 132.257 125.795 132.168C125.269 131.836 124.815 132.051 124.417 132.365C123.6 133 122.667 133.431 121.805 133.975C121.24 134.321 120.552 134.288 119.916 134.331C118.232 134.447 116.544 134.355 114.86 134.14C113.723 133.992 112.607 133.728 111.456 133.711C111.212 133.701 110.988 133.636 110.751 133.579C110.408 133.488 110.056 133.356 109.704 133.356C108.356 133.356 107.264 132.769 106.272 131.952C104.744 130.713 103.611 129.152 102.752 127.401C102.693 127.279 102.644 127.177 102.62 127.089C100.98 125.643 100.495 123.652 100.584 121.589C100.584 121.589 100.571 121.539 100.571 121.513C100.533 120.251 100.464 118.987 100.492 117.723C100.527 116.056 101.025 114.479 101.693 112.968C102.047 112.173 102.369 111.391 102.417 110.507C102.439 110.249 102.511 109.987 102.637 109.755C103.033 108.969 103.356 108.145 103.685 107.327C104.049 106.411 104.421 105.501 104.779 104.587C104.905 104.74 104.987 104.921 105.129 105.064C105.556 105.477 105.887 105.867 106.592 105.717C107.155 105.601 108.388 106.748 108.197 107.203C107.733 108.351 108.539 108.773 109.185 109.367C110.115 110.243 111.208 110.879 112.252 111.589C112.7 111.893 113.081 112.257 113.459 112.637C114.081 113.248 114.652 113.941 115.479 114.32C117.392 115.223 119.133 116.385 120.569 117.972C120.949 118.392 121.355 118.805 121.735 119.233C122.161 119.729 122.62 120.009 123.353 119.681C123.94 119.417 124.54 119.605 125.005 120.085C125.671 120.795 126.449 121.044 127.384 120.753C127.619 120.68 127.825 120.737 128.063 120.737C129.507 120.771 130.7 121.571 132.011 122.009C132.252 122.091 132.417 122.315 132.393 122.537C132.311 123.579 132.883 123.759 133.749 123.711C133.955 123.687 134.181 123.835 134.391 123.917C134.615 123.999 134.817 124.065 135.06 124.033C135.507 123.967 135.571 123.793 135.324 123.347C135.263 123.232 135.06 123.157 135.339 122.893C136.452 123.413 137.699 123.627 138.925 123.959C138.868 124.045 138.807 124.129 138.748 124.213C138.249 124.925 137.62 125.569 136.956 126.147C135.925 127.045 135.14 128.171 134.212 129.152C133.872 129.508 133.964 129.961 133.931 130.381C133.899 130.605 133.94 130.788 134.152 130.896C133.695 131.176 133.248 131.208 132.692 131.093V131.093ZM105.78 100.265C106.521 101.207 107.247 102.173 107.811 103.255C107.155 102.917 106.689 102.34 106.272 101.785C106.063 101.503 105.792 101.289 105.541 101.052C105.613 100.789 105.689 100.524 105.78 100.265ZM112.252 109.54C112.217 109.755 111.964 109.723 111.773 109.697C111.605 109.68 111.416 109.672 111.347 109.449C111.416 109.217 111.62 109.217 111.795 109.217C112.007 109.217 112.3 109.235 112.252 109.54V109.54ZM112.039 102.479C111.656 102.025 111.287 101.555 110.94 100.829C111.884 101.075 112.141 101.712 112.435 102.299C112.469 102.365 112.393 102.52 112.32 102.58C112.217 102.677 112.111 102.58 112.039 102.479ZM121.321 114.809C121.307 114.825 121.188 114.775 121.139 114.733C121.032 114.636 120.935 114.519 120.996 114.355C121.115 114.28 121.195 114.355 121.256 114.437C121.336 114.553 121.461 114.668 121.321 114.809ZM149.383 119.408C149.421 119.28 149.451 119.163 149.479 119.043C149.875 119.071 150.268 119.105 150.669 119.035C150.876 118.995 150.991 119.227 150.969 119.432C150.948 119.623 150.865 119.837 150.652 119.863C150.429 119.887 150.193 119.855 149.972 119.829C149.699 119.804 149.393 119.697 149.203 119.937C149.152 119.997 149.092 120.015 149.039 120.065C149.159 119.849 149.304 119.647 149.383 119.408V119.408ZM146.367 120.684C146.527 120.337 146.695 119.991 146.877 119.652C147.044 119.536 147.208 119.423 147.391 119.329C147.337 119.441 147.291 119.56 147.236 119.665C147.075 119.98 146.985 120.312 146.905 120.645C146.723 120.649 146.541 120.656 146.367 120.684V120.684ZM145.431 117.319C145.308 116.717 145.599 116.401 145.845 116.08C145.871 116.048 145.979 116.039 146.027 116.064C146.113 116.105 146.085 116.188 146.053 116.255C145.904 116.591 145.739 116.923 145.431 117.319ZM139.712 128.624C139.62 128.813 139.459 128.799 139.345 128.789C139.157 128.715 139.115 128.607 139.164 128.483C139.241 128.319 139.38 128.212 139.567 128.277C139.735 128.344 139.78 128.475 139.712 128.624V128.624ZM140.847 127.692C140.964 127.764 140.943 127.889 140.835 128.055C140.811 128.104 140.703 128.171 140.595 128.087C140.488 128.013 140.477 127.896 140.553 127.783C140.625 127.673 140.736 127.632 140.847 127.692ZM149.203 94.4386C149.228 94.5799 149.275 94.7399 149.115 94.8132C148.947 94.8892 148.785 94.8399 148.667 94.7066C148.464 94.4919 148.343 93.2452 148.48 92.9852C148.639 92.8146 148.729 92.5052 149.079 92.6626C149.363 92.7919 149.493 93.1492 149.3 93.4226C149.064 93.7612 149.157 94.0946 149.203 94.4386V94.4386ZM144.799 91.9239C145.845 92.7212 146.316 93.9306 146.877 95.0626C147.075 95.4506 147.075 95.9452 147.137 96.3906C147.187 96.8866 147.383 97.3199 147.708 97.8439C147.845 97.1679 147.655 96.6026 147.769 95.9612C148.197 96.3119 148.433 96.7546 148.875 96.9906C148.968 97.0479 149.025 97.2266 148.953 97.3172C148.517 97.8372 148.984 98.3026 149.075 98.7772C149.115 99.0186 149.211 99.3092 149.26 99.5559C149.393 99.5892 149.432 99.5332 149.464 99.4666C149.515 99.3826 149.58 99.2919 149.679 99.3346C149.795 99.3666 149.812 99.4812 149.768 99.5639C149.685 99.7466 149.621 99.9266 149.636 100.117C149.645 100.381 149.545 100.564 149.307 100.696C148.903 100.936 148.759 101.315 148.759 101.785C148.759 102.645 148.648 103.495 148.445 104.329C148.267 105.064 147.993 105.789 147.811 106.519C147.629 107.244 147.439 107.979 147.227 108.707C146.907 109.755 146.585 110.804 146.245 111.851C146.141 112.157 146.053 112.479 145.732 112.753C145.62 112.003 146.053 111.416 146.027 110.737C145.151 111.935 144.777 113.321 144.295 114.668C143.808 116.043 143.167 117.345 142.459 118.616C142.329 118.616 142.197 118.615 142.065 118.616C141.365 118.624 140.656 118.277 139.967 118.029C139.216 117.764 138.447 117.748 137.464 117.84C138.341 118.524 139.295 118.641 140.136 119.259C139.331 119.623 138.515 119.672 137.875 120.127C137.724 120.233 137.423 120.192 137.349 120.019C136.903 119.02 135.901 119.376 135.161 119.152C134.768 119.035 134.296 118.995 133.899 118.88C133.755 119.053 133.823 119.136 133.884 119.233C133.976 119.367 134.047 119.515 133.923 119.647C133.791 119.779 133.62 119.739 133.52 119.605C133.323 119.36 133.104 119.143 132.817 119.029C132.428 118.856 132.243 118.581 132.213 118.145C132.164 117.385 131.695 116.923 131.023 116.591C129.775 115.988 128.639 115.223 127.581 114.337C126.641 113.561 125.788 112.671 124.868 111.893C123.94 111.1 123.017 110.315 122.121 109.481C120.823 108.293 119.541 107.08 118.264 105.867C117.903 105.509 117.491 105.155 117.327 104.469C118.493 104.851 119.028 105.897 120.023 106.344C118.907 104.223 117.165 102.693 115.568 101.059C113.325 98.7692 111.403 96.2519 109.704 93.5386C109.588 93.3586 109.495 93.1692 109.388 92.9866C110.176 91.7452 111.051 90.5639 112.068 89.4919C112.111 89.4092 112.152 89.3306 112.199 89.2479C112.217 89.2719 112.224 89.2892 112.239 89.3199C112.388 89.1626 112.525 89.0012 112.687 88.8532C114.431 83.5332 118.703 78.7866 124.176 77.1092C124.204 77.0586 124.248 77.0106 124.328 77.0026C124.475 76.9852 124.615 76.9639 124.767 76.9452C124.959 76.8946 125.144 76.8386 125.327 76.8026C130.933 75.5692 136.221 76.7546 140.037 81.1519C142.64 84.1732 144.069 88.0266 144.799 91.9239V91.9239ZM146.877 92.1172C147.004 92.2839 147.039 92.5052 147.119 92.7012C146.621 92.2372 145.893 92.1172 145.467 91.5279C145.148 91.0826 145.077 90.5626 144.769 90.1359C144.693 90.0292 144.792 89.8999 144.909 89.8599C145.029 89.8146 145.165 89.8066 145.241 89.9212C145.312 90.0359 145.355 90.1812 145.405 90.3119C145.463 90.4679 145.487 90.6692 145.671 90.7092C146.432 90.8839 146.513 91.6132 146.877 92.1172V92.1172ZM147.565 94.4226C147.635 94.4506 147.651 94.5332 147.62 94.6079C147.585 94.6826 147.529 94.7066 147.459 94.6946C147.383 94.6652 147.34 94.6079 147.359 94.5332C147.385 94.4252 147.469 94.3679 147.565 94.4226V94.4226ZM145.979 88.3079C146.744 88.5066 147.337 89.2159 147.429 89.9412C146.779 89.5412 146.513 88.9106 145.979 88.3079ZM101.732 83.3346C102 83.8652 102.18 84.2532 102.229 84.8759C101.732 84.4092 101.58 84.0132 101.732 83.3346ZM99.2614 86.4079C99.3721 86.5866 99.3521 86.7786 99.1868 86.8959C99.0001 87.0106 98.8361 86.8959 98.6681 86.6146C98.6254 86.5479 98.5841 86.3626 98.7934 86.2452C98.9788 86.1466 99.1481 86.2172 99.2614 86.4079ZM99.2374 84.6319C99.0414 84.8266 98.8108 84.8066 98.6374 84.5999C98.4348 84.3439 98.5681 84.1079 98.6561 83.9506C98.9041 83.7412 99.0894 83.7479 99.2241 83.9159C99.4134 84.1452 99.4694 84.3999 99.2374 84.6319ZM98.8801 93.2706C97.7454 91.5932 96.7614 89.8186 95.5721 88.1719C95.4081 87.9426 95.3428 87.6959 95.2574 87.4399C95.1668 87.1426 95.1241 86.8186 94.9441 86.5732C93.8401 84.9346 93.3841 83.0066 92.5948 81.2186C92.1708 80.2439 91.9761 79.1652 91.8308 78.0999C91.7414 77.3652 92.0641 77.0932 92.6694 77.4466C93.4068 77.8759 94.2081 78.1466 95.0308 78.3399C95.5361 78.4559 95.6574 78.7359 95.6868 79.2439C95.7188 79.9172 95.8548 80.5252 95.0174 80.8212C94.6068 80.9666 94.6401 81.3732 94.7414 81.7159C94.8414 82.0852 94.9574 82.4639 95.1561 82.7919C95.5388 83.4546 95.8694 84.1452 96.1294 84.8639C96.2481 85.1759 96.4161 85.4919 96.8108 85.5986C97.0281 85.2772 96.8694 85.0039 96.7614 84.7386C96.5694 84.3186 96.3641 83.9052 96.1721 83.4932C96.0974 83.3479 96.0508 83.2039 96.1574 83.0666C96.3041 82.9026 96.4161 83.0546 96.5468 83.0959C96.9561 83.2279 97.3868 82.8732 97.3148 82.4932C97.2801 82.2719 97.1014 82.2212 96.8881 82.2039C96.3828 82.1639 96.3254 81.7839 96.4721 81.4519C96.8468 80.5786 96.5788 79.8026 96.2001 79.0332C95.9388 78.4959 96.0374 78.0919 96.5388 77.7586C97.6268 77.0346 98.4934 76.0906 99.2468 75.0399C99.7508 76.5572 100.243 78.0586 100.732 79.5786C100.797 79.7932 100.867 80.0292 100.857 80.2519C100.845 80.6559 100.549 80.8092 100.212 80.6692C99.7854 80.4866 99.4414 80.1812 99.4988 79.6159C99.5894 78.7106 99.2001 78.1159 98.3401 77.7786C97.8201 77.5719 97.6641 77.6146 97.6894 78.1666C97.7068 78.4692 97.7241 78.8279 97.8761 79.0586C98.6681 80.1652 98.2494 81.4359 98.3468 82.6186C98.3814 83.1039 98.0628 83.8959 97.2801 84.0626C97.0281 84.1172 96.9868 84.3026 97.0348 84.4959C97.1308 84.8706 97.1521 85.2892 97.3574 85.5906C97.9041 86.3999 97.8761 87.3399 98.0028 88.2292C98.1988 89.6532 99.0001 90.6759 100.005 91.5932C100.592 92.1346 100.831 92.8799 101.168 93.5466C101.549 94.3039 101.997 95.0092 102.445 95.7172C102.212 96.1332 101.919 96.5346 101.629 96.9359C100.695 95.7292 99.7454 94.5399 98.8801 93.2706V93.2706ZM90.7654 78.4212C90.5401 78.3012 90.2254 78.2319 90.3361 77.8692C90.3548 77.8039 90.5428 77.7279 90.6188 77.7532C90.9574 77.8599 90.8934 78.1492 90.9148 78.3986C90.8268 78.4186 90.7828 78.4399 90.7654 78.4212V78.4212ZM191.775 101.233C191.481 101.224 191.507 100.895 191.535 100.679C191.699 98.9786 191.396 97.3199 191.067 95.6559C190.803 94.3439 190.863 92.9719 190.556 91.6599C190.533 91.5519 190.52 91.4292 190.556 91.3212C190.984 89.6986 190.185 88.3986 189.421 87.1186C188.86 86.1852 188.437 85.2066 188.217 84.1532C188.169 83.9372 188.124 83.7292 188.049 83.5266C187.447 82.6186 186.957 81.6346 186.623 80.6386C186.541 80.5279 186.459 80.4212 186.383 80.3039C185.524 79.0132 184.684 77.5719 184.136 76.0932C182.925 72.8319 182.716 69.7106 182.681 66.2586C182.681 65.9746 182.695 65.6892 182.724 65.4079C182.619 65.2586 182.511 65.0972 182.449 64.9332C182.416 64.8639 182.344 64.8132 182.303 64.7479C181.337 63.4066 181.337 63.4066 180.256 64.5652C178.919 63.5172 178.151 62.1052 177.584 60.5559C177.289 59.7306 176.927 58.9546 176.356 58.2559C173.816 56.2012 171.756 53.6826 170.349 50.3706C167.573 43.8559 167.311 37.2612 168.463 30.3959C168.581 29.7039 168.747 29.0106 168.952 28.3292C168.889 28.2639 168.82 28.1692 168.763 28.0986C168.284 27.5212 168.071 26.8119 167.769 26.1492C167.601 25.7586 167.763 25.3906 168.009 25.0852C168.289 24.7466 168.349 24.2839 168.572 23.9746C169.472 22.7346 169.263 21.5172 168.763 20.2052C168.345 19.1146 168.139 17.9386 167.581 16.8852C167.429 16.6012 167.416 16.2786 167.492 15.9852C167.653 15.2986 167.429 14.7626 166.897 14.3626C166.367 13.9746 166.236 13.4572 166.285 12.8479C166.343 12.2119 166.203 11.6559 165.641 11.2199C165.316 10.9626 165.112 10.5746 164.86 10.2372C164.345 9.51191 163.775 8.85858 163.017 8.35858C162.288 7.87458 161.625 7.26391 161.248 6.43324C160.959 5.79991 160.436 5.39857 159.849 5.12524C159.196 4.83857 158.672 4.42391 158.125 4.00258C156.52 2.76391 154.731 1.97991 152.723 1.57458C149.676 0.946581 146.596 0.497248 143.5 0.331915C141.469 0.221248 139.429 0.353246 137.416 0.521246C136.472 0.595913 135.571 1.04124 134.6 1.06391C134.244 1.07191 133.976 1.06658 133.769 1.03458C133.08 1.33458 132.389 1.62525 131.685 1.87325C129.521 2.67458 127.355 3.31725 125.131 3.51592C124.921 3.61858 124.633 3.70658 124.213 3.84124C122.472 4.39991 120.739 5.01058 119.076 5.83192C117.449 6.63725 115.94 7.62791 114.445 8.62657C113.087 9.53191 111.603 10.2866 110.587 11.6652C109.957 12.5239 109.141 13.2519 108.519 14.1266C107.9 14.9932 107.332 15.9439 107.115 16.9919C106.945 17.8026 106.632 18.4212 106.031 18.9506C104.683 20.1466 103.356 21.3692 102.501 23.0079C102.291 23.4092 102 23.7879 101.683 24.1159C98.8668 26.9639 96.7148 30.3532 94.2081 33.4506C92.9348 35.0279 91.6654 36.6292 90.2268 38.0666C89.7601 38.5292 89.2708 38.9666 88.6534 39.1972C88.2001 39.3546 87.7761 39.5852 87.5454 39.9906C86.4641 41.8492 84.7308 43.2439 83.9361 45.2999C83.8628 45.4732 83.7254 45.6146 83.5948 45.7586C83.1854 46.1972 82.9481 46.7279 82.8881 47.3079C82.7228 49.1652 82.0134 50.8586 81.2828 52.5466C81.1321 52.8959 80.9494 53.2679 81.0254 53.6519C81.2974 55.1506 80.7508 56.5546 80.4454 57.9519C80.1588 59.2639 80.3121 60.4612 80.6441 61.6746C80.8601 62.4599 81.1494 63.2066 81.0521 64.0372C81.0308 64.1866 81.0308 64.3812 81.1108 64.4906C81.6934 65.2679 81.5828 66.2466 81.8601 67.1092C82.2001 68.1946 82.3988 69.3052 82.9374 70.3639C84.3041 73.0212 86.4601 74.8546 88.8268 76.5226C89.1201 76.7212 89.5068 76.8946 89.5108 77.2412C89.5108 78.0919 89.7694 78.9066 89.8134 79.7239C89.8414 80.4052 89.9081 81.0159 90.2428 81.5852C90.6761 82.3199 91.0548 83.0546 91.0828 83.9372C91.1028 84.3279 91.1921 84.7892 91.5774 84.9212C92.5774 85.2719 92.9148 86.1506 93.2934 86.9706C93.6961 87.8359 94.2041 88.7532 94.1361 89.6826C93.9868 91.8586 95.6721 92.8906 96.7334 94.3279C98.0214 94.9092 98.6254 96.1852 99.5428 97.1439C99.7508 97.3586 99.8268 97.6386 99.7081 97.9852C99.5334 98.5652 99.5161 98.8759 99.7041 99.1412C97.0588 101.676 93.9228 103.321 90.3508 104.379C89.9348 104.493 89.5068 104.593 89.0668 104.66C89.0454 104.719 89.0094 104.775 88.9868 104.835C88.7974 105.263 88.4588 105.568 88.1668 105.915C87.9974 106.121 87.7481 106.131 87.5081 106.08C87.2494 106.013 86.9681 106.105 86.7281 106.064C85.7948 105.897 85.1721 106.352 84.5721 106.98C84.0828 107.517 83.4734 107.953 83.0401 108.559C82.9254 108.723 82.7414 108.813 82.5588 108.845C82.1361 108.947 81.8961 109.217 81.8174 109.631C81.7481 110.028 81.4961 110.243 81.1374 110.383C80.7588 110.524 80.4908 110.755 80.4014 111.183C80.3441 111.432 80.1961 111.661 80.0668 111.893C79.8041 112.381 79.5908 112.876 79.5228 113.428C79.4521 113.975 79.2788 114.512 78.9214 114.948C78.6428 115.288 78.5641 115.683 78.5788 116.089C78.5841 116.525 78.5028 116.931 78.4161 117.361C78.1708 118.591 78.2134 119.804 78.5308 121.044C79.0228 122.917 79.6001 124.759 80.3588 126.535C80.8454 127.699 81.4668 128.805 82.1294 129.887C82.4214 130.391 82.9121 130.769 83.1934 131.308C83.3001 131.505 83.3668 131.663 83.4108 131.787C83.7561 132.084 84.1054 132.397 84.4428 132.719C85.4801 133.719 86.4374 134.744 87.1534 135.941C87.2641 136.031 87.3921 136.163 87.5854 136.361C88.3721 137.187 89.1814 137.988 90.0961 138.691C90.9908 139.376 91.9601 139.945 92.9201 140.515C93.7988 141.028 94.6201 141.655 95.6668 141.845C96.3188 141.961 96.9561 142.217 97.6134 142.331C98.2668 142.439 98.9548 142.499 99.6028 142.331C100.099 142.208 100.527 142.217 100.988 142.407C102.027 142.836 103.072 143.239 104.217 143.273C104.509 143.281 104.795 143.34 105.061 143.431C107.424 144.223 109.908 144.495 112.32 145.059C113.555 145.337 114.788 145.611 115.985 146.023C116.38 146.156 116.755 146.312 117.052 146.601C117.26 146.808 117.505 146.981 117.799 146.997C119.133 147.096 120.387 147.683 121.749 147.568C121.868 147.568 121.991 147.601 122.1 147.632C122.456 147.749 122.823 147.732 123.152 147.601C124.248 147.187 125.388 147.131 126.532 147.071C126.764 147.064 127.027 147.064 127.223 146.916C127.976 146.363 128.915 146.28 129.775 146.064C130.591 145.875 131.224 145.452 131.817 144.941C132.185 144.601 132.523 144.239 133.015 144.065C133.104 144.04 133.211 143.992 133.253 143.917C133.529 143.372 134.107 143.168 134.511 142.779C135.028 142.3 135.591 141.877 136.036 141.291C137.141 139.797 137.584 138.087 137.875 136.32C137.911 136.096 137.903 135.835 138.092 135.733C138.568 135.509 138.952 135.132 139.387 134.892C139.771 134.685 140.091 134.479 140.317 134.14C140.608 133.701 140.917 133.289 141.408 133.033C141.62 132.917 141.852 132.737 141.823 132.488C141.745 131.836 142.137 131.397 142.495 130.963C142.869 130.508 143.248 129.969 143.779 129.755C145.037 129.244 145.151 128.013 145.673 127.039C145.656 126.613 145.784 126.239 145.945 125.871C146.364 125.837 146.779 125.801 147.193 125.784C148.984 125.717 150.784 125.617 152.585 125.601C153.001 125.593 153.232 125.611 153.372 125.701C154.365 125.593 155.397 125.635 156.435 125.875C157.324 125.784 158.221 125.684 159.117 125.627C160.736 125.528 162.197 125.535 163.645 125.684C164.211 125.269 164.795 124.881 165.372 124.495C165.617 124.329 165.807 124.504 165.964 124.685C166.761 125.593 167.815 125.509 168.835 125.345C169.489 125.247 169.908 124.708 170.065 124.099C170.161 123.735 170.24 123.579 170.633 123.569C172.351 123.52 173.871 122.779 175.416 122.151C175.856 121.968 176.245 121.763 176.713 121.984C177.271 122.249 177.661 121.993 178.032 121.589C178.973 120.581 180.06 119.739 180.997 118.707C181.803 117.807 182.639 117.54 183.619 117.757C185.389 114.371 187.876 111.671 189.916 108.351C190.348 107.641 190.76 106.913 191.173 106.196C191.183 106.08 191.199 105.957 191.232 105.799C191.304 105.503 191.396 105.203 191.552 104.941C192.039 104.132 192.147 103.207 192.355 102.305C192.459 101.868 192.621 101.265 191.775 101.233" fill="#9C9C9C"/>
<path d="M136.284 150.466C136.101 150.523 135.928 150.589 135.74 150.631C134.896 150.821 134.06 150.814 133.137 150.498C133.456 150.209 133.708 150.035 134.06 149.987C134.566 149.921 135.014 149.722 135.453 149.466C135.597 149.375 135.776 149.294 135.708 149.095C135.646 148.906 135.453 148.897 135.274 148.913C135.014 148.946 134.756 148.946 134.51 148.814C134.356 148.733 134.194 148.715 134.045 148.823C133.822 148.978 133.604 148.897 133.365 148.855C132.67 148.723 131.961 148.517 131.309 149.038C131.134 149.177 130.894 149.153 130.692 149.086C130.389 148.987 130.076 148.987 129.772 148.931C129.224 148.814 128.638 149.086 128.145 148.913C127.546 148.715 127.1 148.871 126.613 149.121C126.494 149.177 126.328 149.193 126.317 149.375C126.317 149.539 126.449 149.623 126.572 149.689C126.669 149.754 126.778 149.821 126.897 149.855C127.654 150.059 128.388 150.359 129.196 150.359C129.568 150.359 129.897 150.473 130.278 150.671C129.849 150.879 129.497 150.953 129.112 150.994C127.925 151.126 126.746 151.233 125.561 151.299C125.226 151.325 124.901 151.398 124.584 151.498C123.94 151.703 123.785 152.374 124.265 152.851C124.533 153.109 124.862 153.239 125.209 153.33C126.669 153.727 128.148 153.967 129.652 154.05C130.486 154.09 131.312 154.149 132.145 153.934C133.589 153.57 134.906 152.893 136.236 152.249C136.518 152.117 136.78 151.937 137.016 151.729C137.274 151.506 137.313 150.911 137.109 150.597C136.888 150.243 136.59 150.359 136.284 150.466Z" fill="#9C9C9C"/>
<path d="M15.4373 192.683C15.4373 188.104 15.1693 184.912 14.6453 183.117C14.112 181.324 13.168 179.776 11.7947 178.472C10.9533 177.707 9.99733 177.095 8.904 176.649C7.83067 176.201 6.284 175.844 4.312 175.575H4.16533C1.39467 175.073 0 174.065 0 172.543C0 171.649 0.304 170.933 0.925334 170.419C1.54667 169.904 2.408 169.639 3.516 169.639C3.68667 169.639 4.312 169.688 5.372 169.777C12.2933 170.449 19.4933 170.783 26.968 170.783C34.6973 170.783 42.8333 170.625 51.3573 170.287C59.872 169.949 64.5547 169.777 65.3933 169.777C67.9107 169.777 69.4493 170.068 69.9973 170.657C70.5573 171.233 70.84 172.563 70.84 174.631V177.527C70.84 180.8 70.8733 184.243 70.9587 187.825V189.243C70.9587 190.407 70.8253 191.161 70.536 191.501C70.2453 191.839 69.656 192.016 68.776 192.016C67.316 192.016 66.48 190.936 66.2947 188.805C66.1013 186.68 65.7507 185.073 65.2613 183.992C63.896 181.117 61.504 179.087 58.1053 177.935C54.708 176.761 49.5373 176.172 42.604 176.172C38.5 176.172 35.6333 176.761 34.024 177.935C32.4027 179.087 31.604 181.164 31.604 184.12V205.684C31.604 207.748 32.0587 209.216 32.976 210.125C33.8707 211.027 35.3587 211.469 37.4413 211.469H41.8067C44.8893 211.469 47.3507 211.112 49.124 210.389C50.9173 209.675 52.46 208.463 53.736 206.759C54.3573 205.913 55.0453 204.597 55.7973 202.852C56.9427 200.207 58.1947 198.868 59.5613 198.868C60.3173 198.868 60.8707 199.097 61.2133 199.552C61.5773 199.989 61.7493 200.743 61.7493 201.779C61.7493 201.959 61.7147 202.383 61.6173 203.06C61.356 206.1 61.2133 209.185 61.2133 212.284C61.2133 217.224 61.504 222.38 62.0853 227.768C62.22 229.077 62.2867 229.891 62.2867 230.192C62.2867 231.093 62.0853 231.76 61.6813 232.184C61.2813 232.612 60.7173 232.825 59.9733 232.825C58.5173 232.825 57.6013 231.609 57.244 229.189C56.976 227.432 56.6747 226.039 56.324 225.008C55.2987 222.313 53.8227 220.443 51.8733 219.38C49.936 218.336 46.8493 217.8 42.604 217.8H37.2973C35.0907 217.8 33.5813 218.297 32.7987 219.245C31.988 220.224 31.604 222.313 31.604 225.544V247.036C31.604 252.744 32.304 256.287 33.7293 257.684C35.1373 259.072 38.0587 259.76 42.468 259.76C46.9773 259.76 51.4253 259.031 55.82 257.571C60.216 256.115 63.7987 254.175 66.5773 251.755C68.5373 250.132 70.236 248.099 71.684 245.62C73.1493 243.145 74.2987 241.921 75.1413 241.921C75.7067 241.921 76.1667 242.169 76.532 242.695C76.8827 243.216 77.0627 243.867 77.0627 244.68C77.0627 246.473 76.5467 248.904 75.5333 251.956C74.5187 255.011 73.2453 257.615 71.7587 259.76C69.9027 262.468 67.532 264.437 64.6293 265.687C61.7427 266.953 58.152 267.591 53.868 267.591C52.02 267.591 48.2507 267.383 42.604 266.981C36.94 266.568 32.2387 266.364 28.4893 266.364C23.888 266.364 19.1987 266.568 14.4107 266.981C9.612 267.383 7.152 267.591 7.02133 267.591C6.01067 267.591 5.19733 267.369 4.63467 266.94C4.06267 266.517 3.768 265.924 3.768 265.151C3.768 264.257 3.996 263.541 4.43333 263.008C4.88133 262.468 5.88533 261.836 7.488 261.115C7.70667 260.981 8.11333 260.763 8.68667 260.473C9.25467 260.187 9.68133 259.953 9.99733 259.76C11.908 258.557 13.2693 256.899 14.1347 254.781C15.012 252.68 15.4373 249.997 15.4373 246.763V192.683Z" fill="#9C9C9C"/>
<path d="M119.398 225.817H135.021C136.445 225.817 137.51 225.667 138.239 225.344C138.974 225.036 139.339 224.577 139.339 224.003C139.339 223.728 139.23 223.207 139.011 222.412C138.783 221.625 138.507 220.792 138.145 219.891L128.477 196.519C128.173 195.713 127.829 195.081 127.486 194.641C127.135 194.188 126.799 193.961 126.481 193.961C126.085 193.961 125.713 194.141 125.362 194.497C124.997 194.857 124.701 195.343 124.431 195.976L114.242 220.288C113.958 220.972 113.747 221.625 113.567 222.284C113.39 222.937 113.301 223.421 113.301 223.728C113.301 224.539 113.698 225.091 114.491 225.38C115.293 225.679 116.923 225.817 119.398 225.817ZM95.2848 247.572L129.477 169.379V169.303C130.003 168.099 130.711 167.487 131.591 167.487C132.085 167.487 132.545 167.713 133.014 168.168C133.469 168.608 133.858 169.201 134.177 169.915L168.823 252.156C169.934 254.809 171.081 256.763 172.311 258.055C173.523 259.333 175.051 260.309 176.913 260.981C177.27 261.115 177.799 261.273 178.507 261.451C178.673 261.489 178.793 261.517 178.793 261.517L178.894 261.583C180.927 262.213 181.937 263.291 181.937 264.823C181.937 265.896 181.795 266.596 181.505 266.94C181.229 267.284 180.557 267.451 179.498 267.451C178.793 267.451 176.306 267.244 172.041 266.845C167.781 266.432 163.903 266.239 160.418 266.239C155.426 266.239 150.329 266.612 145.109 267.383C144.049 267.52 143.402 267.591 143.185 267.591C142.559 267.591 142.046 267.312 141.629 266.776C141.21 266.239 141.003 265.539 141.003 264.687C141.003 263.789 142.007 262.828 144.049 261.784C144.222 261.697 144.346 261.629 144.449 261.583C146.875 260.637 148.534 259.58 149.414 258.393C150.287 257.203 150.726 255.727 150.726 253.971C150.726 253.036 150.631 252.028 150.403 250.976C150.183 249.927 149.854 248.903 149.414 247.919L145.555 238.615C144.593 236.192 143.59 234.599 142.559 233.833C141.526 233.067 139.401 232.689 136.226 232.689H134.775H117.073C113.198 232.689 110.679 233.093 109.531 233.905C108.383 234.716 107.386 236.284 106.545 238.615L102.833 249.127C102.469 250.112 102.221 250.992 102.03 251.755C101.85 252.515 101.775 253.216 101.775 253.844C101.775 255.853 102.526 257.517 104.049 258.791C105.577 260.075 107.935 261.017 111.111 261.659C111.163 261.697 111.215 261.741 111.325 261.755C111.402 261.784 111.558 261.784 111.773 261.784C113.801 262.195 115.106 262.607 115.693 263.041C116.265 263.456 116.543 264.049 116.543 264.823C116.543 265.812 116.281 266.544 115.754 267.011C115.223 267.489 114.455 267.713 113.429 267.713C112.995 267.713 110.813 267.489 106.878 267.041C102.937 266.596 99.2941 266.377 95.9421 266.377C93.3315 266.377 90.7248 266.567 88.1195 266.981C85.5115 267.383 84.1928 267.591 84.1928 267.591C83.1728 267.591 82.4328 267.341 81.9288 266.875C81.4221 266.403 81.1675 265.716 81.1675 264.823C81.1675 263.569 82.1581 262.531 84.1461 261.727C85.3328 261.273 86.2488 260.845 86.8595 260.44C88.3181 259.46 89.6235 258.093 90.8155 256.361C91.9835 254.637 93.4608 251.705 95.2848 247.572" fill="#9C9C9C"/>
<path d="M197.775 192.683C197.775 188.104 197.521 184.912 196.992 183.117C196.459 181.324 195.52 179.776 194.132 178.472C193.291 177.707 192.329 177.095 191.257 176.649C190.169 176.201 188.635 175.844 186.647 175.575H186.519C183.741 175.073 182.352 174.065 182.352 172.543C182.352 171.649 182.652 170.933 183.272 170.419C183.889 169.904 184.751 169.639 185.857 169.639C186.031 169.639 186.647 169.688 187.708 169.777C194.647 170.449 201.837 170.783 209.311 170.783C217.049 170.783 225.171 170.625 233.695 170.287C242.228 169.949 246.905 169.777 247.747 169.777C250.26 169.777 251.793 170.068 252.352 170.657C252.893 171.233 253.171 172.563 253.171 174.631V177.527C253.171 180.8 253.216 184.243 253.32 187.825V189.243C253.32 190.407 253.163 191.161 252.88 191.501C252.591 191.839 252.008 192.016 251.129 192.016C249.669 192.016 248.829 190.936 248.639 188.805C248.439 186.68 248.095 185.073 247.621 183.992C246.245 181.117 243.853 179.087 240.455 177.935C237.053 176.761 231.893 176.172 224.956 176.172C220.844 176.172 217.983 176.761 216.367 177.935C214.757 179.087 213.945 181.164 213.945 184.12V205.684C213.945 207.748 214.4 209.216 215.307 210.125C216.209 211.027 217.707 211.469 219.785 211.469H224.157C227.245 211.469 229.681 211.112 231.475 210.389C233.255 209.675 234.797 208.463 236.08 206.759C236.696 205.913 237.389 204.597 238.137 202.852C239.284 200.207 240.535 198.868 241.913 198.868C242.665 198.868 243.22 199.097 243.569 199.552C243.927 199.989 244.097 200.743 244.097 201.779C244.097 201.959 244.059 202.383 243.964 203.06C243.693 206.1 243.569 209.185 243.569 212.284C243.569 217.224 243.853 222.38 244.421 227.768C244.56 229.077 244.628 229.891 244.628 230.192C244.628 231.093 244.421 231.76 244.036 232.184C243.64 232.612 243.061 232.825 242.308 232.825C240.856 232.825 239.947 231.609 239.595 229.189C239.328 227.432 239.016 226.039 238.665 225.008C237.651 222.313 236.171 220.443 234.225 219.38C232.285 218.336 229.187 217.8 224.956 217.8H219.643C217.428 217.8 215.935 218.297 215.143 219.245C214.347 220.224 213.945 222.313 213.945 225.544V247.036C213.945 252.744 214.653 256.287 216.065 257.684C217.489 259.072 220.396 259.76 224.813 259.76C229.323 259.76 233.764 259.031 238.173 257.571C242.553 256.115 246.155 254.175 248.933 251.755C250.879 250.132 252.577 248.099 254.028 245.62C255.504 243.145 256.635 241.921 257.487 241.921C258.059 241.921 258.528 242.169 258.871 242.695C259.229 243.216 259.4 243.867 259.4 244.68C259.4 246.473 258.9 248.904 257.873 251.956C256.86 255.011 255.605 257.615 254.103 259.76C252.253 262.468 249.868 264.437 246.981 265.687C244.088 266.953 240.505 267.591 236.215 267.591C234.363 267.591 230.609 267.383 224.956 266.981C219.297 266.568 214.593 266.364 210.839 266.364C206.24 266.364 201.545 266.568 196.763 266.981C191.965 267.383 189.501 267.591 189.357 267.591C188.352 267.591 187.555 267.369 186.987 266.94C186.413 266.517 186.124 265.924 186.124 265.151C186.124 264.257 186.332 263.541 186.772 263.008C187.225 262.468 188.239 261.836 189.827 261.115C190.044 260.981 190.451 260.763 191.027 260.473C191.6 260.187 192.039 259.953 192.351 259.76C194.253 258.557 195.623 256.899 196.488 254.781C197.353 252.68 197.775 249.997 197.775 246.763V192.683Z" fill="#9C9C9C"/>
<path d="M42.5531 295.052L43.1918 299.94L43.2558 300.443L43.1918 300.651C43.1358 300.779 43.0291 300.836 42.8958 300.847C42.7278 300.875 42.4798 300.593 42.1691 299.997C39.6185 295.56 36.1851 293.349 31.8385 293.349C28.3625 293.349 25.6531 294.409 23.6398 296.536C21.6571 298.664 20.6518 301.565 20.6518 305.255C20.6518 309.492 21.7771 312.959 23.9718 315.64C26.2091 318.331 29.0611 319.667 32.5611 319.667C34.5825 319.667 36.5918 319.128 38.5558 318.047C40.5265 316.964 41.8758 315.636 42.6505 314.073C43.0011 313.361 43.2638 312.979 43.4691 312.979C43.6745 312.979 43.7865 313.104 43.7865 313.375L43.7638 313.591L43.6825 314.033L43.2051 316.544L43.1358 316.909C43.0851 317.263 42.7638 317.625 42.1771 318.008C39.0518 320 35.5891 321 31.8278 321C27.4625 321 23.9438 319.697 21.2638 317.112C18.5918 314.519 17.2651 311.125 17.2651 306.885C17.2651 302.651 18.6371 299.143 21.4105 296.347C24.1731 293.544 27.6411 292.143 31.8131 292.143C34.6811 292.143 37.3198 292.792 39.7078 294.079L40.5398 294.505L40.8585 294.656L41.2118 294.779C41.2785 294.779 41.3731 294.716 41.5171 294.604C41.8105 294.388 42.0051 294.279 42.1211 294.279C42.3411 294.279 42.4798 294.541 42.5531 295.052Z" fill="#9C9C9C"/>
<path d="M53.5521 298.633V313.887C53.5521 315.786 53.6654 317.05 53.9108 317.659C54.1734 318.359 54.5094 318.843 54.9108 319.117C55.3068 319.419 55.9361 319.619 56.7908 319.731C57.4721 319.827 57.8081 319.999 57.8081 320.231C57.8081 320.549 57.5921 320.711 57.1708 320.711C56.9734 320.711 56.7148 320.69 56.4014 320.651C55.9948 320.583 55.2694 320.549 54.2468 320.549L51.3028 320.513L48.9054 320.651C48.4894 320.701 48.1721 320.711 47.9174 320.711C47.5548 320.711 47.3681 320.567 47.3681 320.291C47.3681 320.051 47.5748 319.89 48.0081 319.843C49.0268 319.651 49.6974 319.315 49.9934 318.771C50.2868 318.234 50.4374 317.099 50.4374 315.375V297.927C50.4374 296.25 50.2561 295.111 49.8628 294.534C49.4694 293.95 48.6548 293.545 47.3854 293.349C46.9748 293.271 46.7588 293.106 46.7468 292.865C46.7401 292.575 46.9201 292.433 47.3214 292.433C47.4348 292.433 47.5654 292.433 47.6828 292.445C48.6934 292.575 49.9988 292.638 51.6468 292.638C52.6388 292.638 53.5108 292.609 54.2374 292.575L55.5948 292.445C55.8428 292.433 56.0188 292.433 56.0921 292.433C56.4641 292.433 56.6508 292.559 56.6508 292.818C56.6508 293.059 56.4721 293.226 56.1254 293.349L55.0641 293.758C54.0588 294.141 53.5521 295.763 53.5521 298.633Z" fill="#9C9C9C"/>
<path d="M67.2275 295.935V316.87C67.2275 317.7 67.6435 318.26 68.4609 318.583C69.1889 318.856 70.1075 319.08 71.2182 319.292C72.3315 319.492 73.2769 319.588 74.0515 319.588C76.3675 319.588 78.4635 319.008 80.3169 317.844C83.4582 315.888 85.0355 312.591 85.0355 307.896C85.0355 305.342 84.5395 303.008 83.5542 300.859C82.5742 298.727 81.2155 297.042 79.5089 295.823C77.3915 294.328 74.8475 293.568 71.8475 293.568C69.6902 293.568 68.3395 293.795 67.7569 294.276C67.4035 294.534 67.2275 295.088 67.2275 295.935ZM64.1142 297.55C64.1142 296.167 63.8769 295.178 63.4155 294.534C62.9582 293.888 62.1995 293.519 61.1289 293.408C60.6742 293.375 60.4502 293.227 60.4502 292.984C60.4502 292.732 60.6249 292.596 60.9795 292.596L62.5862 292.672C62.7515 292.69 63.2302 292.706 64.0062 292.706C65.3955 292.706 66.4435 292.659 67.2115 292.596L69.0955 292.411C69.9049 292.35 70.8022 292.304 71.7849 292.304C77.3475 292.304 81.5155 293.708 84.3089 296.5C86.8422 299.047 88.1035 302.31 88.1035 306.287C88.1035 308.859 87.5435 311.195 86.4342 313.35C85.3249 315.492 83.7742 317.18 81.7982 318.422C79.3022 319.976 76.5742 320.75 73.6169 320.75C73.2675 320.75 72.6395 320.727 71.7382 320.651C69.9289 320.523 68.3475 320.468 66.9982 320.468C65.5435 320.468 64.2875 320.534 63.2142 320.7C62.7302 320.755 62.3462 320.796 62.0622 320.807C61.5862 320.856 61.3489 320.69 61.3489 320.35C61.3489 320.12 61.5395 319.976 61.9155 319.891C62.8395 319.698 63.4262 319.364 63.7035 318.888C63.9755 318.394 64.1142 317.396 64.1142 315.878V297.55Z" fill="#9C9C9C"/>
<path d="M98.134 295.885V304.091C98.134 304.713 98.1793 305.088 98.3073 305.221C98.43 305.341 98.7673 305.416 99.35 305.416H102.478C103.903 305.416 105.034 305.333 105.869 305.161C106.586 305.021 107.067 304.815 107.291 304.585C107.511 304.344 107.699 303.757 107.873 302.864C107.954 302.531 108.119 302.369 108.395 302.38C108.67 302.393 108.795 302.576 108.795 302.927C108.795 303.024 108.779 303.167 108.77 303.375C108.655 304.688 108.594 305.877 108.594 306.956C108.594 307.792 108.631 308.607 108.718 309.427C108.73 309.7 108.755 309.891 108.755 310.008C108.755 310.349 108.619 310.511 108.365 310.511C108.069 310.511 107.895 310.372 107.829 310.065L107.709 309.503C107.549 308.593 107.226 307.969 106.734 307.645C106.251 307.328 105.427 307.161 104.259 307.161H99.7846C99.114 307.161 98.666 307.24 98.4446 307.361C98.2166 307.505 98.1006 307.776 98.1006 308.183L98.134 308.859V316.352C98.134 317.525 98.33 318.232 98.7566 318.513C99.1593 318.792 100.211 318.945 101.886 318.945C107.211 318.945 110.637 317.74 112.15 315.341C112.293 315.12 112.449 314.989 112.606 314.967C112.861 314.964 112.979 315.137 112.979 315.505C112.979 316.383 112.49 317.427 111.495 318.645C110.302 320.107 108.803 320.828 106.99 320.828C106.586 320.828 106.057 320.807 105.394 320.749C102.795 320.513 100.655 320.391 98.966 320.391C96.5873 320.391 94.918 320.471 93.946 320.637C93.4166 320.727 93.0606 320.765 92.8806 320.765C92.4473 320.765 92.2313 320.625 92.2313 320.339C92.2313 320.107 92.4126 319.961 92.7686 319.857L93.5326 319.637C94.5113 319.355 95.0033 318.421 95.0033 316.773L95.0166 315.451V298.235C95.0166 296.297 94.8046 294.989 94.39 294.323C93.9486 293.645 93.1153 293.307 91.8846 293.307C91.4886 293.307 91.314 293.177 91.314 292.932C91.314 292.547 91.602 292.375 92.2073 292.375C92.5526 292.375 93.0086 292.396 93.5713 292.468C95.518 292.691 97.8446 292.8 100.586 292.8C102.229 292.8 103.699 292.765 104.977 292.721L107.858 292.576C108.67 292.536 109.154 292.525 109.319 292.497C109.687 292.432 109.955 292.412 110.137 292.412C110.602 292.412 110.811 292.596 110.811 292.997C110.811 293.117 110.786 293.281 110.733 293.471C110.705 293.651 110.661 294.192 110.602 295.088L110.505 296.287C110.426 297.063 110.369 297.557 110.286 297.755C110.225 297.956 110.078 298.052 109.839 298.073C109.57 298.083 109.439 297.877 109.439 297.453V296.927C109.439 296.5 109.353 296.079 109.207 295.688C108.937 295.079 108.418 294.68 107.634 294.467C106.866 294.265 105.403 294.169 103.313 294.169H100.111C99.2886 294.169 98.7273 294.276 98.498 294.479C98.2606 294.691 98.134 295.161 98.134 295.885Z" fill="#9C9C9C"/>
<path d="M131.051 306.573L127.861 298.513L127.689 298.089C127.527 297.651 127.355 297.433 127.16 297.417C127.068 297.406 126.967 297.526 126.847 297.794L122.875 306.611C122.696 306.994 122.595 307.245 122.595 307.362C122.595 307.721 122.923 307.898 123.552 307.898L124.092 307.914H130.241C130.913 307.914 131.255 307.745 131.255 307.411C131.255 307.307 131.212 307.154 131.155 306.937L131.051 306.573ZM130.811 309.854H123.447C122.443 309.854 121.809 309.93 121.561 310.091C121.323 310.263 121.003 310.805 120.589 311.726L119.261 314.721C118.659 316.097 118.36 317.111 118.36 317.783C118.36 318.422 118.523 318.887 118.835 319.163C119.153 319.445 119.776 319.687 120.717 319.89C121.131 319.977 121.323 320.13 121.348 320.378C121.36 320.603 121.173 320.711 120.783 320.711C120.628 320.711 120.405 320.711 120.092 320.69L118.147 320.567C117.488 320.534 116.744 320.523 115.883 320.523C115.492 320.523 115.183 320.534 114.976 320.549C114.281 320.638 113.908 320.669 113.84 320.669C113.479 320.669 113.293 320.534 113.293 320.291C113.293 320.075 113.407 319.925 113.636 319.857L114.387 319.638C114.655 319.567 115.021 319.223 115.492 318.646C115.943 318.065 116.316 317.469 116.62 316.849L117.215 315.505L127.663 292.266C127.861 291.862 128.051 291.666 128.256 291.666C128.484 291.666 128.664 291.857 128.817 292.258L137.556 314.661L138.016 315.763C138.655 317.406 139.175 318.425 139.604 318.83C140.008 319.226 140.867 319.554 142.164 319.781C142.573 319.857 142.787 320.029 142.776 320.273C142.751 320.505 142.573 320.614 142.211 320.614C142.079 320.614 141.812 320.603 141.44 320.567C140.731 320.505 139.469 320.471 137.655 320.471C135.777 320.471 134.604 320.513 134.116 320.586C133.832 320.651 133.627 320.669 133.493 320.669C133.133 320.669 132.967 320.523 132.967 320.255C132.967 320.049 133.127 319.89 133.469 319.843L134.104 319.687C134.777 319.567 135.133 319.101 135.133 318.31C135.133 317.594 134.708 316.154 133.881 314.013L132.872 311.321C132.577 310.573 132.357 310.138 132.181 310.015C132.029 309.911 131.576 309.854 130.811 309.854Z" fill="#9C9C9C"/>
<path d="M148.864 311.305C146.002 311.305 146.044 311.255 143.7 311.255C143.496 311.255 142.631 311.099 142.751 310.466C142.836 310.053 142.792 309.797 142.751 309.299C142.71 308.802 143.127 308.674 144.051 308.674C145.45 308.674 146.248 308.717 147.626 308.674C148.746 308.643 149.536 308.878 149.536 309.346C149.536 309.797 149.536 310.179 149.676 310.635C149.748 310.958 149.7 311.305 148.864 311.305Z" fill="#9C9C9C"/>
<path d="M177.056 308.742V298.214C177.056 296.508 176.818 295.27 176.324 294.518C175.83 293.75 174.996 293.308 173.834 293.206C173.441 293.172 173.242 293.018 173.242 292.766C173.242 292.48 173.393 292.336 173.638 292.349C173.938 292.362 174.388 292.417 174.956 292.513C175.472 292.597 176.084 292.638 176.802 292.638C178.312 292.638 179.252 292.609 179.598 292.576C180.068 292.532 180.366 292.513 180.48 292.513C180.726 292.513 180.868 292.638 180.868 292.878C180.868 293.073 180.726 293.226 180.441 293.349C179.617 293.682 179.084 294.169 178.84 294.764C178.584 295.385 178.477 296.537 178.477 298.234V308.297C178.477 312.005 177.736 314.852 176.256 316.849C175.32 318.106 173.973 319.117 172.248 319.862C170.5 320.625 168.64 321 166.645 321C164.342 321 162.265 320.549 160.436 319.652C158.58 318.756 157.236 317.54 156.376 316.018C155.417 314.248 154.916 311.953 154.916 309.114V298.773L154.881 297.625C154.881 296.166 154.693 295.177 154.294 294.614C153.894 294.068 153.085 293.709 151.88 293.526C151.517 293.477 151.333 293.341 151.333 293.106C151.333 292.792 151.597 292.638 152.088 292.638C152.453 292.638 152.91 292.652 153.51 292.672C154.126 292.721 154.581 292.732 154.868 292.732L156.437 292.721H157.981C158.144 292.721 158.528 292.69 159.136 292.638C159.625 292.597 159.974 292.576 160.173 292.576C160.484 292.576 160.622 292.677 160.622 292.888C160.622 293.152 160.424 293.308 159.988 293.388C159.192 293.552 158.678 293.901 158.398 294.417C158.129 294.922 158.008 295.836 158.008 297.152L158.048 298.497V308.742C158.048 312.234 158.58 314.721 159.677 316.214C161.21 318.33 163.78 319.393 167.38 319.393C170.62 319.393 173.04 318.502 174.65 316.734C176.244 314.966 177.056 312.302 177.056 308.742Z" fill="#9C9C9C"/>
<path d="M209.18 300.49V317.539C209.18 319.074 209.141 320 209.069 320.339C209 320.67 208.818 320.823 208.505 320.807C208.296 320.796 208.141 320.75 208.032 320.638L207.594 320.107L190.43 300.49L190.233 300.258C190.152 300.184 190.057 300.143 189.944 300.143C189.688 300.143 189.557 300.443 189.557 301.052V314.875L189.548 315.724L189.604 317.167C189.694 318.058 189.933 318.687 190.305 319.02C190.668 319.354 191.376 319.62 192.452 319.782C192.904 319.828 193.13 320 193.13 320.292C193.13 320.56 192.974 320.7 192.698 320.7C192.518 320.7 192.305 320.678 192.085 320.651C191.926 320.626 191.354 320.583 190.318 320.523L188.24 320.432L187.269 320.468C186.736 320.468 186.232 320.506 185.746 320.56C185.398 320.604 185.16 320.638 185.001 320.638C184.658 320.638 184.465 320.506 184.429 320.255C184.401 320.052 184.62 319.891 185.001 319.76C186.134 319.354 186.926 318.831 187.317 318.183C187.701 317.526 187.917 316.456 187.917 314.99V301.143C187.917 298.802 187.54 296.959 186.786 295.599C186.052 294.244 184.97 293.476 183.564 293.282C183.197 293.232 183.008 293.086 183.008 292.834C183.008 292.588 183.15 292.44 183.466 292.44C183.524 292.44 183.628 292.462 183.78 292.468L184.62 292.498L185.982 292.531L186.294 292.514C186.632 292.498 186.882 292.498 187.065 292.498C187.402 292.498 187.754 292.69 188.077 293.086L206.801 314.287C207.094 314.623 207.277 314.784 207.373 314.771C207.508 314.752 207.578 314.632 207.594 314.391V304.318L207.608 301.566L207.373 296.886C207.214 295.73 206.89 294.922 206.35 294.438C205.82 293.956 204.854 293.607 203.456 293.372C203.068 293.295 202.861 293.135 202.861 292.864C202.861 292.61 203.068 292.498 203.456 292.498C203.628 292.498 203.906 292.514 204.321 292.547C205.249 292.651 206.506 292.706 208.068 292.706C208.926 292.706 209.578 292.651 210.096 292.575C210.52 292.498 210.864 292.44 211.093 292.44C211.442 292.44 211.618 292.596 211.644 292.883C211.665 293.068 211.537 293.19 211.258 293.271C210.425 293.471 209.88 293.82 209.602 294.279C209.353 294.758 209.208 295.656 209.208 296.959V299.143L209.18 300.49Z" fill="#9C9C9C"/>
<path d="M230.409 306.573L227.214 298.513L227.052 298.089C226.901 297.651 226.725 297.433 226.53 297.417C226.429 297.406 226.317 297.526 226.206 297.794L222.232 306.611C222.056 306.994 221.974 307.245 221.974 307.362C221.974 307.721 222.274 307.898 222.906 307.898L223.45 307.914H229.596C230.278 307.914 230.616 307.745 230.616 307.411C230.616 307.307 230.584 307.154 230.514 306.937L230.409 306.573ZM230.173 309.854H222.809C221.804 309.854 221.172 309.93 220.937 310.091C220.686 310.263 220.366 310.805 219.962 311.726L218.62 314.721C218.028 316.097 217.724 317.111 217.724 317.783C217.724 318.422 217.886 318.887 218.198 319.163C218.509 319.445 219.144 319.687 220.078 319.89C220.482 319.977 220.686 320.13 220.714 320.378C220.718 320.603 220.538 320.711 220.146 320.711C219.996 320.711 219.758 320.711 219.457 320.69L217.501 320.567C216.85 320.534 216.104 320.523 215.256 320.523C214.846 320.523 214.546 320.534 214.346 320.549C213.653 320.638 213.276 320.669 213.212 320.669C212.849 320.669 212.658 320.534 212.658 320.291C212.658 320.075 212.77 319.925 212.998 319.857L213.76 319.638C214.028 319.567 214.385 319.223 214.846 318.646C215.305 318.065 215.696 317.469 215.992 316.849L216.584 315.505L227.028 292.266C227.214 291.862 227.414 291.666 227.628 291.666C227.842 291.666 228.033 291.857 228.19 292.258L236.92 314.661L237.374 315.763C238.025 317.406 238.54 318.425 238.962 318.83C239.381 319.226 240.24 319.554 241.525 319.781C241.949 319.857 242.152 320.029 242.136 320.273C242.114 320.505 241.94 320.614 241.562 320.614C241.442 320.614 241.184 320.603 240.792 320.567C240.094 320.505 238.828 320.471 237.034 320.471C235.148 320.471 233.968 320.513 233.478 320.586C233.209 320.651 232.994 320.669 232.86 320.669C232.5 320.669 232.34 320.523 232.34 320.255C232.34 320.049 232.494 319.89 232.83 319.843L233.469 319.687C234.146 319.567 234.482 319.101 234.482 318.31C234.482 317.594 234.065 316.154 233.249 314.013L232.224 311.321C231.95 310.573 231.712 310.138 231.548 310.015C231.398 309.911 230.934 309.854 230.173 309.854" fill="#9C9C9C"/>
</svg>
