<svg width="18" height="18" viewBox="0 0 18 18" fill="none" xmlns="http://www.w3.org/2000/svg">
<path d="M5 0C2.23858 0 0 2.23858 0 5V12.29C0 15.0514 2.23858 17.29 5 17.29H12.29C15.0514 17.29 17.29 15.0514 17.29 12.29V5C17.29 2.23858 15.0514 0 12.29 0H5ZM5.80459 13.7337H3.77596V6.65203H5.80452L5.80459 13.7337ZM4.81029 5.84449C4.12986 5.84449 3.57632 5.3312 3.57632 4.70036C3.57632 4.06951 4.12993 3.55623 4.81029 3.55623C5.49066 3.55623 6.04427 4.06951 6.04427 4.70036C6.04427 5.3312 5.49066 5.84449 4.81029 5.84449ZM13.7137 13.7337H11.6352V9.53381C11.6356 9.52526 11.666 8.8585 11.2879 8.46021C11.0997 8.26193 10.8405 8.16139 10.5174 8.16139C9.70459 8.16139 9.29405 8.74664 9.12006 9.10111V13.7337H7.09143V6.65203H9.11999V7.25032C9.78404 6.7116 10.5298 6.42738 11.2814 6.42738C13.2053 6.42738 13.7137 7.93026 13.7137 8.72491V13.7337Z" fill="white"/>
</svg>
