<svg xmlns="http://www.w3.org/2000/svg" width="24" height="24" viewBox="0 0 24 24">
  <defs>
    <style>
      .cls-1 {
        fill: #fff;
      }
    </style>
  </defs>
  <path id="shortcut_120284" class="cls-1" d="M24.724,4.333H21A.667.667,0,0,1,21,3h5.333A.667.667,0,0,1,27,3.667V9a.667.667,0,1,1-1.333,0V5.276L18.8,12.138a.667.667,0,0,1-.943-.943l6.862-6.862Zm.943,10a.667.667,0,1,1,1.333,0v9.333A3.333,3.333,0,0,1,23.667,27H6.333A3.333,3.333,0,0,1,3,23.667V6.333A3.333,3.333,0,0,1,6.333,3h9.333a.667.667,0,0,1,0,1.333H6.333a2,2,0,0,0-2,2V23.667a2,2,0,0,0,2,2H23.667a2,2,0,0,0,2-2Z" transform="translate(-3 -3)"/>
</svg>
